<?xml version="1.0" encoding="UTF-8"?>
<svg width="1151px" height="150px" viewBox="0 0 1151 150" version="1.1" xmlns="http://www.w3.org/2000/svg" xmlns:xlink="http://www.w3.org/1999/xlink">
    <!-- Generator: Sketch 54.1 (76490) - https://sketchapp.com -->
    <title>Group 13</title>
    <desc>Created with Sketch.</desc>
    <g id="Page-1" stroke="none" stroke-width="1" fill="none" fill-rule="evenodd">
        <g id="Group-13" transform="translate(0.580000, 0.514000)" fill-rule="nonzero">
            <path d="M-5.68434189e-14,10.036 L83.955,10.036 L83.955,35.898 L30.494,35.898 L30.494,58.672 L82.218,58.672 L82.218,84.534 L30.494,84.534 L30.494,109.624 L85.499,109.624 L85.499,135.486 L-5.68434189e-14,135.486 L-5.68434189e-14,10.036 Z M105.185,40.144 L132.012,40.144 L132.012,51.338 L132.398,51.338 C135.100014,47.2206461 138.766977,43.9396789 143.399,41.495 C148.031023,39.0503211 153.756633,37.828 160.576,37.828 C167.524035,37.828 173.506975,38.9216557 178.525,41.109 C183.543025,43.2963443 187.628151,46.352147 190.7805,50.2765 C193.932849,54.200853 196.248826,58.864973 197.7285,64.269 C199.208174,69.673027 199.948,75.5273018 199.948,81.832 L199.948,135.486 L171.384,135.486 L171.384,85.885 C171.384,83.0543192 171.094503,80.2880135 170.5155,77.586 C169.936497,74.8839865 168.93934,72.503677 167.524,70.445 C166.10866,68.386323 164.243012,66.7458394 161.927,65.5235 C159.610988,64.3011606 156.716017,63.69 153.242,63.69 C149.89665,63.69 147.033845,64.3011606 144.6535,65.5235 C142.273155,66.7458394 140.246675,68.3541567 138.574,70.3485 C136.901325,72.3428433 135.679004,74.6909865 134.907,77.393 C134.134996,80.0950135 133.749,82.9256519 133.749,85.885 L133.749,135.486 L105.185,135.486 L105.185,40.144 Z M231.407,61.953 C239.899042,61.3096634 246.718308,59.1866847 251.865,55.584 C257.011692,51.9813153 259.585,47.0920309 259.585,40.916 C259.585,36.9273134 258.201847,33.7106789 255.4355,31.266 C252.669153,28.8213211 249.034356,27.599 244.531,27.599 C241.571652,27.599 238.805346,28.2101606 236.232,29.4325 C233.658654,30.6548394 231.600008,32.0379923 230.056,33.582 L210.756,14.668 C214.10135,10.936648 218.733304,7.55918179 224.652,4.5355 C230.570696,1.51181822 237.582959,1.13686838e-13 245.689,1.13686838e-13 C253.023037,1.13686838e-13 259.424139,1.09365573 264.8925,3.281 C270.360861,5.46834427 274.864149,8.36331532 278.4025,11.966 C281.940851,15.5686847 284.610658,19.6859768 286.412,24.318 C288.213342,28.9500232 289.114,33.7749749 289.114,38.793 C289.114,43.6823578 288.374174,48.3464778 286.8945,52.7855 C285.414826,57.2245222 283.291847,61.2774817 280.5255,64.9445 C277.759153,68.6115183 274.317354,71.8281528 270.2,74.5945 C266.082646,77.3608472 261.450692,79.4516596 256.304,80.867 L253.602,94.57 L237.776,94.57 L231.407,61.953 Z M246.075,137.416 C240.542306,137.416 236.199849,135.679017 233.0475,132.205 C229.895151,128.730983 228.319,124.742356 228.319,120.239 C228.319,117.922988 228.737162,115.735677 229.5735,113.677 C230.409838,111.618323 231.599992,109.752675 233.144,108.08 C234.688008,106.407325 236.553656,105.088505 238.741,104.1235 C240.928344,103.158495 243.372986,102.676 246.075,102.676 C248.777014,102.676 251.221656,103.158495 253.409,104.1235 C255.596344,105.088505 257.461992,106.407325 259.006,108.08 C260.550008,109.752675 261.740162,111.618323 262.5765,113.677 C263.412838,115.735677 263.831,117.922988 263.831,120.239 C263.831,124.742356 262.254849,128.730983 259.1025,132.205 C255.950151,135.679017 251.607694,137.416 246.075,137.416 Z" id="En?" fill="#FF5500"></path>
            <path d="M348.044,10.086 L357.24,10.086 L357.24,30.15 L379.964,30.15 L379.964,10.086 L389.16,10.086 L389.16,59.486 L379.964,59.486 L379.964,38.13 L357.24,38.13 L357.24,59.486 L348.044,59.486 L348.044,10.086 Z M416.292,60.398 C413.251985,60.398 410.541345,59.8660053 408.16,58.802 C405.778655,57.7379947 403.764675,56.3193422 402.118,54.546 C400.471325,52.7726578 399.217338,50.6953452 398.356,48.314 C397.494662,45.9326548 397.064,43.3993468 397.064,40.714 C397.064,38.0793202 397.469329,35.5586787 398.28,33.152 C399.090671,30.7453213 400.293992,28.6553422 401.89,26.882 C403.486008,25.1086578 405.449322,23.6900053 407.78,22.626 C410.110678,21.5619947 412.795985,21.03 415.836,21.03 C418.876015,21.03 421.561322,21.5493281 423.892,22.588 C426.222678,23.6266719 428.185992,25.0453243 429.782,26.844 C431.378008,28.6426757 432.581329,30.7199882 433.392,33.076 C434.202671,35.4320118 434.608,37.9273202 434.608,40.562 C434.608,41.1193361 434.582667,41.6766639 434.532,42.234 C434.481333,42.7913361 434.405334,43.2726646 434.304,43.678 L405.804,43.678 C405.956001,45.0460068 406.36133,46.2873278 407.02,47.402 C407.67867,48.5166722 408.476662,49.4539962 409.414,50.214 C410.351338,50.9740038 411.427994,51.5693312 412.644,52 C413.860006,52.4306688 415.12666,52.646 416.444,52.646 C418.724011,52.646 420.737991,52.2533373 422.486,51.468 C424.234009,50.6826627 425.639995,49.7073392 426.704,48.542 L432.024,53.71 C430.453325,55.7873437 428.31268,57.4213274 425.602,58.612 C422.89132,59.8026726 419.788017,60.398 416.292,60.398 Z M415.836,28.402 C412.998652,28.402 410.706009,29.2126586 408.958,30.834 C407.209991,32.4553414 406.158668,34.5073209 405.804,36.99 L425.868,36.99 C425.513332,34.5073209 424.449342,32.4553414 422.676,30.834 C420.902658,29.2126586 418.622681,28.402 415.836,28.402 Z M462.728,60.398 C459.637318,60.398 456.990011,59.7773395 454.786,58.536 C452.581989,57.2946605 450.973338,55.7873422 449.96,54.014 L449.808,54.014 L449.808,59.486 L441.676,59.486 L441.676,7.046 L450.264,7.046 L450.264,26.958 L450.416,26.958 C451.328005,25.4379924 452.80999,24.0700061 454.862,22.854 C456.91401,21.6379939 459.535984,21.03 462.728,21.03 C465.565348,21.03 468.136655,21.5493281 470.442,22.588 C472.747345,23.6266719 474.710659,25.0199913 476.332,26.768 C477.953341,28.5160087 479.194662,30.5806548 480.056,32.962 C480.917338,35.3433452 481.348,37.8513202 481.348,40.486 C481.348,42.9180122 480.968004,45.3246548 480.208,47.706 C479.447996,50.0873452 478.295341,52.215324 476.75,54.09 C475.204659,55.964676 473.266678,57.4846608 470.936,58.65 C468.605322,59.8153392 465.869349,60.398 462.728,60.398 Z M461.36,52.494 C462.981341,52.494 464.475993,52.2026696 465.844,51.62 C467.212007,51.0373304 468.389995,50.2266719 469.378,49.188 C470.366005,48.1493281 471.138664,46.9080072 471.696,45.464 C472.253336,44.0199928 472.532,42.4620084 472.532,40.79 C472.532,39.1179916 472.253336,37.5726738 471.696,36.154 C471.138664,34.7353262 470.366005,33.4940053 469.378,32.43 C468.389995,31.3659947 467.212007,30.5426696 465.844,29.96 C464.475993,29.3773304 462.981341,29.086 461.36,29.086 C459.738659,29.086 458.256673,29.3773304 456.914,29.96 C455.571327,30.5426696 454.406005,31.3659947 453.418,32.43 C452.429995,33.4940053 451.657336,34.7353262 451.1,36.154 C450.542664,37.5726738 450.264,39.1179916 450.264,40.79 C450.264,42.4620084 450.542664,44.0199928 451.1,45.464 C451.657336,46.9080072 452.429995,48.1493281 453.418,49.188 C454.406005,50.2266719 455.571327,51.0373304 456.914,51.62 C458.256673,52.2026696 459.738659,52.494 461.36,52.494 Z M503.54,72.862 C501.411989,72.862 499.537341,72.4946703 497.916,71.76 C496.294659,71.0253297 495.002671,70.1260053 494.04,69.062 L499.664,63.59 C500.576005,64.6033384 501.817325,65.11 503.388,65.11 C504.654673,65.11 505.693329,64.7173373 506.504,63.932 C507.314671,63.1466627 507.72,61.9433414 507.72,60.322 L507.72,21.942 L516.308,21.942 L516.308,60.474 C516.308,62.1460084 516.054669,63.7419924 515.548,65.262 C515.041331,66.7820076 514.256005,68.0993278 513.192,69.214 C512.127995,70.3286722 510.798008,71.21533 509.202,71.874 C507.605992,72.53267 505.718678,72.862 503.54,72.862 Z M511.976,17.534 C510.354659,17.534 509.075338,17.0400049 508.138,16.052 C507.200662,15.0639951 506.732,13.8860068 506.732,12.518 C506.732,11.1499932 507.200662,9.9593384 508.138,8.946 C509.075338,7.9326616 510.354659,7.426 511.976,7.426 C513.648008,7.426 514.952662,7.9326616 515.89,8.946 C516.827338,9.9593384 517.296,11.1499932 517.296,12.518 C517.296,13.8860068 516.827338,15.0639951 515.89,16.052 C514.952662,17.0400049 513.648008,17.534 511.976,17.534 Z M542.756,60.398 C539.715985,60.398 537.005345,59.8660053 534.624,58.802 C532.242655,57.7379947 530.228675,56.3193422 528.582,54.546 C526.935325,52.7726578 525.681338,50.6953452 524.82,48.314 C523.958662,45.9326548 523.528,43.3993468 523.528,40.714 C523.528,38.0793202 523.933329,35.5586787 524.744,33.152 C525.554671,30.7453213 526.757992,28.6553422 528.354,26.882 C529.950008,25.1086578 531.913322,23.6900053 534.244,22.626 C536.574678,21.5619947 539.259985,21.03 542.3,21.03 C545.340015,21.03 548.025322,21.5493281 550.356,22.588 C552.686678,23.6266719 554.649992,25.0453243 556.246,26.844 C557.842008,28.6426757 559.045329,30.7199882 559.856,33.076 C560.666671,35.4320118 561.072,37.9273202 561.072,40.562 C561.072,41.1193361 561.046667,41.6766639 560.996,42.234 C560.945333,42.7913361 560.869334,43.2726646 560.768,43.678 L532.268,43.678 C532.420001,45.0460068 532.82533,46.2873278 533.484,47.402 C534.14267,48.5166722 534.940662,49.4539962 535.878,50.214 C536.815338,50.9740038 537.891994,51.5693312 539.108,52 C540.324006,52.4306688 541.59066,52.646 542.908,52.646 C545.188011,52.646 547.201991,52.2533373 548.95,51.468 C550.698009,50.6826627 552.103995,49.7073392 553.168,48.542 L558.488,53.71 C556.917325,55.7873437 554.77668,57.4213274 552.066,58.612 C549.35532,59.8026726 546.252017,60.398 542.756,60.398 Z M542.3,28.402 C539.462652,28.402 537.170009,29.2126586 535.422,30.834 C533.673991,32.4553414 532.622668,34.5073209 532.268,36.99 L552.332,36.99 C551.977332,34.5073209 550.913342,32.4553414 549.14,30.834 C547.366658,29.2126586 545.086681,28.402 542.3,28.402 Z M603.252,60.398 C600.110651,60.398 597.374678,59.8153392 595.044,58.65 C592.713322,57.4846608 590.775341,55.964676 589.23,54.09 C587.684659,52.215324 586.532004,50.0873452 585.772,47.706 C585.011996,45.3246548 584.632,42.9180122 584.632,40.486 C584.632,37.8513202 585.062662,35.3433452 585.924,32.962 C586.785338,30.5806548 588.026659,28.5160087 589.648,26.768 C591.269341,25.0199913 593.219989,23.6266719 595.5,22.588 C597.780011,21.5493281 600.338652,21.03 603.176,21.03 C606.368016,21.03 608.98999,21.6379939 611.042,22.854 C613.09401,24.0700061 614.601329,25.4379924 615.564,26.958 L615.716,26.958 L615.716,7.046 L624.304,7.046 L624.304,59.486 L616.172,59.486 L616.172,54.014 L616.02,54.014 C614.955995,55.7873422 613.322011,57.2946605 611.118,58.536 C608.913989,59.7773395 606.292015,60.398 603.252,60.398 Z M604.62,52.494 C606.190675,52.494 607.659993,52.2026696 609.028,51.62 C610.396007,51.0373304 611.573995,50.2266719 612.562,49.188 C613.550005,48.1493281 614.322664,46.9080072 614.88,45.464 C615.437336,44.0199928 615.716,42.4620084 615.716,40.79 C615.716,39.1179916 615.437336,37.5726738 614.88,36.154 C614.322664,34.7353262 613.550005,33.4940053 612.562,32.43 C611.573995,31.3659947 610.408673,30.5426696 609.066,29.96 C607.723327,29.3773304 606.241341,29.086 604.62,29.086 C602.947992,29.086 601.428007,29.3773304 600.06,29.96 C598.691993,30.5426696 597.514005,31.3659947 596.526,32.43 C595.537995,33.4940053 594.765336,34.7353262 594.208,36.154 C593.650664,37.5726738 593.372,39.1179916 593.372,40.79 C593.372,42.4620084 593.650664,44.0199928 594.208,45.464 C594.765336,46.9080072 595.550662,48.1493281 596.564,49.188 C597.577338,50.2266719 598.767993,51.0373304 600.136,51.62 C601.504007,52.2026696 602.998659,52.494 604.62,52.494 Z M651.208,60.398 C647.863983,60.398 644.950679,59.8026726 642.468,58.612 C639.985321,57.4213274 637.933341,55.888676 636.312,54.014 C634.690659,52.139324 633.487337,50.0240118 632.702,47.668 C631.916663,45.3119882 631.524,42.9940114 631.524,40.714 C631.524,38.4339886 631.916663,36.1160118 632.702,33.76 C633.487337,31.4039882 634.690659,29.288676 636.312,27.414 C637.933341,25.539324 639.985321,24.0066726 642.468,22.816 C644.950679,21.6253274 647.863983,21.03 651.208,21.03 C654.552017,21.03 657.465321,21.6253274 659.948,22.816 C662.430679,24.0066726 664.495325,25.539324 666.142,27.414 C667.788675,29.288676 669.004663,31.4039882 669.79,33.76 C670.575337,36.1160118 670.968,38.4339886 670.968,40.714 C670.968,42.9940114 670.575337,45.3119882 669.79,47.668 C669.004663,50.0240118 667.788675,52.139324 666.142,54.014 C664.495325,55.888676 662.430679,57.4213274 659.948,58.612 C657.465321,59.8026726 654.552017,60.398 651.208,60.398 Z M651.208,52.418 C652.778675,52.418 654.22266,52.1266696 655.54,51.544 C656.85734,50.9613304 658.009995,50.1506719 658.998,49.112 C659.986005,48.0733281 660.758664,46.8320072 661.316,45.388 C661.873336,43.9439928 662.152,42.3860084 662.152,40.714 C662.152,38.9913247 661.873336,37.4206738 661.316,36.002 C660.758664,34.5833262 659.986005,33.3546719 658.998,32.316 C658.009995,31.2773281 656.85734,30.4666696 655.54,29.884 C654.22266,29.3013304 652.778675,29.01 651.208,29.01 C649.687992,29.01 648.256673,29.3013304 646.914,29.884 C645.571327,30.4666696 644.406005,31.2773281 643.418,32.316 C642.429995,33.3546719 641.657336,34.5833262 641.1,36.002 C640.542664,37.4206738 640.264,38.9913247 640.264,40.714 C640.264,42.3860084 640.542664,43.9439928 641.1,45.388 C641.657336,46.8320072 642.429995,48.0733281 643.418,49.112 C644.406005,50.1506719 645.571327,50.9613304 646.914,51.544 C648.256673,52.1266696 649.687992,52.418 651.208,52.418 Z M695.212,60.398 C691.867983,60.398 688.954679,59.8026726 686.472,58.612 C683.989321,57.4213274 681.937341,55.888676 680.316,54.014 C678.694659,52.139324 677.491337,50.0240118 676.706,47.668 C675.920663,45.3119882 675.528,42.9940114 675.528,40.714 C675.528,38.4339886 675.920663,36.1160118 676.706,33.76 C677.491337,31.4039882 678.694659,29.288676 680.316,27.414 C681.937341,25.539324 683.989321,24.0066726 686.472,22.816 C688.954679,21.6253274 691.867983,21.03 695.212,21.03 C698.556017,21.03 701.469321,21.6253274 703.952,22.816 C706.434679,24.0066726 708.499325,25.539324 710.146,27.414 C711.792675,29.288676 713.008663,31.4039882 713.794,33.76 C714.579337,36.1160118 714.972,38.4339886 714.972,40.714 C714.972,42.9940114 714.579337,45.3119882 713.794,47.668 C713.008663,50.0240118 711.792675,52.139324 710.146,54.014 C708.499325,55.888676 706.434679,57.4213274 703.952,58.612 C701.469321,59.8026726 698.556017,60.398 695.212,60.398 Z M695.212,52.418 C696.782675,52.418 698.22666,52.1266696 699.544,51.544 C700.86134,50.9613304 702.013995,50.1506719 703.002,49.112 C703.990005,48.0733281 704.762664,46.8320072 705.32,45.388 C705.877336,43.9439928 706.156,42.3860084 706.156,40.714 C706.156,38.9913247 705.877336,37.4206738 705.32,36.002 C704.762664,34.5833262 703.990005,33.3546719 703.002,32.316 C702.013995,31.2773281 700.86134,30.4666696 699.544,29.884 C698.22666,29.3013304 696.782675,29.01 695.212,29.01 C693.691992,29.01 692.260673,29.3013304 690.918,29.884 C689.575327,30.4666696 688.410005,31.2773281 687.422,32.316 C686.433995,33.3546719 685.661336,34.5833262 685.104,36.002 C684.546664,37.4206738 684.268,38.9913247 684.268,40.714 C684.268,42.3860084 684.546664,43.9439928 685.104,45.388 C685.661336,46.8320072 686.433995,48.0733281 687.422,49.112 C688.410005,50.1506719 689.575327,50.9613304 690.918,51.544 C692.260673,52.1266696 693.691992,52.418 695.212,52.418 Z M722.268,21.942 L730.4,21.942 L730.4,27.49 L730.476,27.49 C731.286671,25.7673247 732.667324,24.2600065 734.618,22.968 C736.568676,21.6759935 738.835987,21.03 741.42,21.03 C742.433338,21.03 743.421329,21.1186658 744.384,21.296 C745.346671,21.4733342 746.258662,21.7139985 747.12,22.018 L743.928,30.454 C742.661327,29.79533 741.192008,29.466 739.52,29.466 C736.986654,29.466 734.909341,30.3399913 733.288,32.088 C731.666659,33.8360087 730.856,36.2046517 730.856,39.194 L730.856,59.486 L722.268,59.486 L722.268,21.942 Z M787.552,72.938 C784.106649,72.938 781.079346,72.3553392 778.47,71.19 C775.860654,70.0246608 773.821341,68.6060084 772.352,66.934 L778.204,61.538 C779.166671,62.6020053 780.445992,63.4759966 782.042,64.16 C783.638008,64.8440034 785.42399,65.186 787.4,65.186 C788.869341,65.186 790.22466,65.021335 791.466,64.692 C792.70734,64.362665 793.771329,63.8180038 794.658,63.058 C795.544671,62.2979962 796.241331,61.3226726 796.748,60.132 C797.254669,58.9413274 797.508,57.4846753 797.508,55.762 L797.508,51.962 L797.356,51.962 C796.494662,53.3300068 795.101343,54.5586612 793.176,55.648 C791.250657,56.7373388 788.793348,57.282 785.804,57.282 C782.915986,57.282 780.370011,56.7500053 778.166,55.686 C775.961989,54.6219947 774.125341,53.2286753 772.656,51.506 C771.186659,49.7833247 770.08467,47.8326776 769.35,45.654 C768.61533,43.4753224 768.248,41.2713445 768.248,39.042 C768.248,36.6099878 768.653329,34.292011 769.464,32.088 C770.274671,29.883989 771.439992,27.9713414 772.96,26.35 C774.480008,24.7286586 776.316656,23.4366715 778.47,22.474 C780.623344,21.5113285 783.042653,21.03 785.728,21.03 C788.616014,21.03 791.098656,21.5873278 793.176,22.702 C795.253344,23.8166722 796.798662,25.1846586 797.812,26.806 L797.964,26.806 L797.964,21.942 L806.096,21.942 L806.096,56.294 C806.096,58.7260122 805.690671,60.9553232 804.88,62.982 C804.069329,65.0086768 802.878675,66.7566593 801.308,68.226 C799.737325,69.6953407 797.799345,70.8479958 795.494,71.684 C793.188655,72.5200042 790.541348,72.938 787.552,72.938 Z M787.248,49.606 C788.666674,49.606 790.009327,49.3526692 791.276,48.846 C792.542673,48.3393308 793.631995,47.617338 794.544,46.68 C795.456005,45.742662 796.177997,44.640673 796.71,43.374 C797.242003,42.107327 797.508,40.7140076 797.508,39.194 C797.508,37.6739924 797.254669,36.2680065 796.748,34.976 C796.241331,33.6839935 795.532005,32.5820046 794.62,31.67 C793.707995,30.7579954 792.618673,30.0360027 791.352,29.504 C790.085327,28.9719973 788.717341,28.706 787.248,28.706 C785.727992,28.706 784.34734,28.9719973 783.106,29.504 C781.86466,30.0360027 780.788005,30.770662 779.876,31.708 C778.963995,32.645338 778.267336,33.747327 777.786,35.014 C777.304664,36.280673 777.064,37.6739924 777.064,39.194 C777.064,40.7140076 777.317331,42.107327 777.824,43.374 C778.330669,44.640673 779.039995,45.7299954 779.952,46.642 C780.864005,47.5540046 781.94066,48.2759973 783.182,48.808 C784.42334,49.3400027 785.778659,49.606 787.248,49.606 Z M832.544,60.398 C829.503985,60.398 826.793345,59.8660053 824.412,58.802 C822.030655,57.7379947 820.016675,56.3193422 818.37,54.546 C816.723325,52.7726578 815.469338,50.6953452 814.608,48.314 C813.746662,45.9326548 813.316,43.3993468 813.316,40.714 C813.316,38.0793202 813.721329,35.5586787 814.532,33.152 C815.342671,30.7453213 816.545992,28.6553422 818.142,26.882 C819.738008,25.1086578 821.701322,23.6900053 824.032,22.626 C826.362678,21.5619947 829.047985,21.03 832.088,21.03 C835.128015,21.03 837.813322,21.5493281 840.144,22.588 C842.474678,23.6266719 844.437992,25.0453243 846.034,26.844 C847.630008,28.6426757 848.833329,30.7199882 849.644,33.076 C850.454671,35.4320118 850.86,37.9273202 850.86,40.562 C850.86,41.1193361 850.834667,41.6766639 850.784,42.234 C850.733333,42.7913361 850.657334,43.2726646 850.556,43.678 L822.056,43.678 C822.208001,45.0460068 822.61333,46.2873278 823.272,47.402 C823.93067,48.5166722 824.728662,49.4539962 825.666,50.214 C826.603338,50.9740038 827.679994,51.5693312 828.896,52 C830.112006,52.4306688 831.37866,52.646 832.696,52.646 C834.976011,52.646 836.989991,52.2533373 838.738,51.468 C840.486009,50.6826627 841.891995,49.7073392 842.956,48.542 L848.276,53.71 C846.705325,55.7873437 844.56468,57.4213274 841.854,58.612 C839.14332,59.8026726 836.040017,60.398 832.544,60.398 Z M832.088,28.402 C829.250652,28.402 826.958009,29.2126586 825.21,30.834 C823.461991,32.4553414 822.410668,34.5073209 822.056,36.99 L842.12,36.99 C841.765332,34.5073209 840.701342,32.4553414 838.928,30.834 C837.154658,29.2126586 834.874681,28.402 832.088,28.402 Z M857.928,7.046 L866.516,7.046 L866.516,26.046 L866.668,26.046 C867.681338,24.5766593 869.087324,23.373338 870.886,22.436 C872.684676,21.498662 874.875987,21.03 877.46,21.03 C882.526692,21.03 886.339321,22.4993186 888.898,25.438 C891.456679,28.3766814 892.736,32.379308 892.736,37.446 L892.736,59.486 L884.148,59.486 L884.148,38.966 C884.148,35.9259848 883.45134,33.443343 882.058,31.518 C880.66466,29.592657 878.473348,28.63 875.484,28.63 C872.595986,28.63 870.379341,29.5799905 868.834,31.48 C867.288659,33.3800095 866.516,35.8753179 866.516,38.966 L866.516,59.486 L857.928,59.486 L857.928,7.046 Z M912.04,60.398 C910.06399,60.398 908.240008,60.1320027 906.568,59.6 C904.895992,59.0679973 903.464673,58.3080049 902.274,57.32 C901.083327,56.3319951 900.15867,55.1413403 899.5,53.748 C898.84133,52.3546597 898.512,50.7713422 898.512,48.998 C898.512,45.4006487 899.791321,42.6013433 902.35,40.6 C904.908679,38.5986567 908.467977,37.598 913.028,37.598 C915.308011,37.598 917.347324,37.8259977 919.146,38.282 C920.944676,38.7380023 922.426661,39.29533 923.592,39.954 L923.592,36.458 C923.592,33.924654 922.794008,32.0120065 921.198,30.72 C919.601992,29.4279935 917.562679,28.782 915.08,28.782 C913.10399,28.782 911.368674,29.0986635 909.874,29.732 C908.379326,30.3653365 907.201338,31.1633285 906.34,32.126 L901.02,27.034 C902.388007,25.3113247 904.300654,23.8800057 906.758,22.74 C909.215346,21.5999943 912.115983,21.03 915.46,21.03 C921.033361,21.03 925.17532,22.3346536 927.886,24.944 C930.59668,27.5533464 931.952,31.087311 931.952,35.546 L931.952,59.486 L923.592,59.486 L923.592,55.534 L923.44,55.534 C922.426662,57.0033407 921.033342,58.1813289 919.26,59.068 C917.486658,59.9546711 915.080015,60.398 912.04,60.398 Z M914.776,53.786 C917.360013,53.786 919.475325,53.0513407 921.122,51.582 C922.768675,50.1126593 923.592,48.1620122 923.592,45.73 L923.592,45.35 C922.527995,44.9446646 921.274007,44.6153346 919.83,44.362 C918.385993,44.1086654 916.777342,43.982 915.004,43.982 C912.673322,43.982 910.786007,44.3873293 909.342,45.198 C907.897993,46.0086707 907.176,47.2499916 907.176,48.922 C907.176,50.4420076 907.859993,51.6326624 909.228,52.494 C910.596007,53.3553376 912.445322,53.786 914.776,53.786 Z M956.804,60.398 C953.662651,60.398 950.926678,59.8153392 948.596,58.65 C946.265322,57.4846608 944.327341,55.964676 942.782,54.09 C941.236659,52.215324 940.084004,50.0873452 939.324,47.706 C938.563996,45.3246548 938.184,42.9180122 938.184,40.486 C938.184,37.8513202 938.614662,35.3433452 939.476,32.962 C940.337338,30.5806548 941.578659,28.5160087 943.2,26.768 C944.821341,25.0199913 946.771989,23.6266719 949.052,22.588 C951.332011,21.5493281 953.890652,21.03 956.728,21.03 C959.920016,21.03 962.54199,21.6379939 964.594,22.854 C966.64601,24.0700061 968.153329,25.4379924 969.116,26.958 L969.268,26.958 L969.268,7.046 L977.856,7.046 L977.856,59.486 L969.724,59.486 L969.724,54.014 L969.572,54.014 C968.507995,55.7873422 966.874011,57.2946605 964.67,58.536 C962.465989,59.7773395 959.844015,60.398 956.804,60.398 Z M958.172,52.494 C959.742675,52.494 961.211993,52.2026696 962.58,51.62 C963.948007,51.0373304 965.125995,50.2266719 966.114,49.188 C967.102005,48.1493281 967.874664,46.9080072 968.432,45.464 C968.989336,44.0199928 969.268,42.4620084 969.268,40.79 C969.268,39.1179916 968.989336,37.5726738 968.432,36.154 C967.874664,34.7353262 967.102005,33.4940053 966.114,32.43 C965.125995,31.3659947 963.960673,30.5426696 962.618,29.96 C961.275327,29.3773304 959.793341,29.086 958.172,29.086 C956.499992,29.086 954.980007,29.3773304 953.612,29.96 C952.243993,30.5426696 951.066005,31.3659947 950.078,32.43 C949.089995,33.4940053 948.317336,34.7353262 947.76,36.154 C947.202664,37.5726738 946.924,39.1179916 946.924,40.79 C946.924,42.4620084 947.202664,44.0199928 947.76,45.464 C948.317336,46.9080072 949.102662,48.1493281 950.116,49.188 C951.129338,50.2266719 952.319993,51.0373304 953.688,51.62 C955.056007,52.2026696 956.550659,52.494 958.172,52.494 Z M1006.888,7.046 L1015.476,7.046 L1015.476,26.046 L1015.628,26.046 C1016.64134,24.5766593 1018.04732,23.373338 1019.846,22.436 C1021.64468,21.498662 1023.83599,21.03 1026.42,21.03 C1031.48669,21.03 1035.29932,22.4993186 1037.858,25.438 C1040.41668,28.3766814 1041.696,32.379308 1041.696,37.446 L1041.696,59.486 L1033.108,59.486 L1033.108,38.966 C1033.108,35.9259848 1032.41134,33.443343 1031.018,31.518 C1029.62466,29.592657 1027.43335,28.63 1024.444,28.63 C1021.55599,28.63 1019.33934,29.5799905 1017.794,31.48 C1016.24866,33.3800095 1015.476,35.8753179 1015.476,38.966 L1015.476,59.486 L1006.888,59.486 L1006.888,7.046 Z M1067.612,60.398 C1064.26798,60.398 1061.35468,59.8026726 1058.872,58.612 C1056.38932,57.4213274 1054.33734,55.888676 1052.716,54.014 C1051.09466,52.139324 1049.89134,50.0240118 1049.106,47.668 C1048.32066,45.3119882 1047.928,42.9940114 1047.928,40.714 C1047.928,38.4339886 1048.32066,36.1160118 1049.106,33.76 C1049.89134,31.4039882 1051.09466,29.288676 1052.716,27.414 C1054.33734,25.539324 1056.38932,24.0066726 1058.872,22.816 C1061.35468,21.6253274 1064.26798,21.03 1067.612,21.03 C1070.95602,21.03 1073.86932,21.6253274 1076.352,22.816 C1078.83468,24.0066726 1080.89933,25.539324 1082.546,27.414 C1084.19267,29.288676 1085.40866,31.4039882 1086.194,33.76 C1086.97934,36.1160118 1087.372,38.4339886 1087.372,40.714 C1087.372,42.9940114 1086.97934,45.3119882 1086.194,47.668 C1085.40866,50.0240118 1084.19267,52.139324 1082.546,54.014 C1080.89933,55.888676 1078.83468,57.4213274 1076.352,58.612 C1073.86932,59.8026726 1070.95602,60.398 1067.612,60.398 Z M1067.612,52.418 C1069.18267,52.418 1070.62666,52.1266696 1071.944,51.544 C1073.26134,50.9613304 1074.414,50.1506719 1075.402,49.112 C1076.39,48.0733281 1077.16266,46.8320072 1077.72,45.388 C1078.27734,43.9439928 1078.556,42.3860084 1078.556,40.714 C1078.556,38.9913247 1078.27734,37.4206738 1077.72,36.002 C1077.16266,34.5833262 1076.39,33.3546719 1075.402,32.316 C1074.414,31.2773281 1073.26134,30.4666696 1071.944,29.884 C1070.62666,29.3013304 1069.18267,29.01 1067.612,29.01 C1066.09199,29.01 1064.66067,29.3013304 1063.318,29.884 C1061.97533,30.4666696 1060.81,31.2773281 1059.822,32.316 C1058.834,33.3546719 1058.06134,34.5833262 1057.504,36.002 C1056.94666,37.4206738 1056.668,38.9913247 1056.668,40.714 C1056.668,42.3860084 1056.94666,43.9439928 1057.504,45.388 C1058.06134,46.8320072 1058.834,48.0733281 1059.822,49.112 C1060.81,50.1506719 1061.97533,50.9613304 1063.318,51.544 C1064.66067,52.1266696 1066.09199,52.418 1067.612,52.418 Z M1111.16,60.398 C1108.11998,60.398 1105.40935,59.8660053 1103.028,58.802 C1100.64665,57.7379947 1098.63267,56.3193422 1096.986,54.546 C1095.33933,52.7726578 1094.08534,50.6953452 1093.224,48.314 C1092.36266,45.9326548 1091.932,43.3993468 1091.932,40.714 C1091.932,38.0793202 1092.33733,35.5586787 1093.148,33.152 C1093.95867,30.7453213 1095.16199,28.6553422 1096.758,26.882 C1098.35401,25.1086578 1100.31732,23.6900053 1102.648,22.626 C1104.97868,21.5619947 1107.66398,21.03 1110.704,21.03 C1113.74402,21.03 1116.42932,21.5493281 1118.76,22.588 C1121.09068,23.6266719 1123.05399,25.0453243 1124.65,26.844 C1126.24601,28.6426757 1127.44933,30.7199882 1128.26,33.076 C1129.07067,35.4320118 1129.476,37.9273202 1129.476,40.562 C1129.476,41.1193361 1129.45067,41.6766639 1129.4,42.234 C1129.34933,42.7913361 1129.27333,43.2726646 1129.172,43.678 L1100.672,43.678 C1100.824,45.0460068 1101.22933,46.2873278 1101.888,47.402 C1102.54667,48.5166722 1103.34466,49.4539962 1104.282,50.214 C1105.21934,50.9740038 1106.29599,51.5693312 1107.512,52 C1108.72801,52.4306688 1109.99466,52.646 1111.312,52.646 C1113.59201,52.646 1115.60599,52.2533373 1117.354,51.468 C1119.10201,50.6826627 1120.50799,49.7073392 1121.572,48.542 L1126.892,53.71 C1125.32133,55.7873437 1123.18068,57.4213274 1120.47,58.612 C1117.75932,59.8026726 1114.65602,60.398 1111.16,60.398 Z M1110.704,28.402 C1107.86665,28.402 1105.57401,29.2126586 1103.826,30.834 C1102.07799,32.4553414 1101.02667,34.5073209 1100.672,36.99 L1120.736,36.99 C1120.38133,34.5073209 1119.31734,32.4553414 1117.544,30.834 C1115.77066,29.2126586 1113.49068,28.402 1110.704,28.402 Z M343.408,97.942 L352.528,97.942 L360.964,124.542 L361.116,124.542 L369.476,97.942 L378.368,97.942 L365.524,135.486 L356.176,135.486 L343.408,97.942 Z M394.708,136.398 C392.73199,136.398 390.908008,136.132003 389.236,135.6 C387.563992,135.067997 386.132673,134.308005 384.942,133.32 C383.751327,132.331995 382.82667,131.14134 382.168,129.748 C381.50933,128.35466 381.18,126.771342 381.18,124.998 C381.18,121.400649 382.459321,118.601343 385.018,116.6 C387.576679,114.598657 391.135977,113.598 395.696,113.598 C397.976011,113.598 400.015324,113.825998 401.814,114.282 C403.612676,114.738002 405.094661,115.29533 406.26,115.954 L406.26,112.458 C406.26,109.924654 405.462008,108.012006 403.866,106.72 C402.269992,105.427994 400.230679,104.782 397.748,104.782 C395.77199,104.782 394.036674,105.098663 392.542,105.732 C391.047326,106.365336 389.869338,107.163329 389.008,108.126 L383.688,103.034 C385.056007,101.311325 386.968654,99.8800057 389.426,98.74 C391.883346,97.5999943 394.783983,97.03 398.128,97.03 C403.701361,97.03 407.84332,98.3346536 410.554,100.944 C413.26468,103.553346 414.62,107.087311 414.62,111.546 L414.62,135.486 L406.26,135.486 L406.26,131.534 L406.108,131.534 C405.094662,133.003341 403.701342,134.181329 401.928,135.068 C400.154658,135.954671 397.748015,136.398 394.708,136.398 Z M397.444,129.786 C400.028013,129.786 402.143325,129.051341 403.79,127.582 C405.436675,126.112659 406.26,124.162012 406.26,121.73 L406.26,121.35 C405.195995,120.944665 403.942007,120.615335 402.498,120.362 C401.053993,120.108665 399.445342,119.982 397.672,119.982 C395.341322,119.982 393.454007,120.387329 392.01,121.198 C390.565993,122.008671 389.844,123.249992 389.844,124.922 C389.844,126.442008 390.527993,127.632662 391.896,128.494 C393.264007,129.355338 395.113322,129.786 397.444,129.786 Z M433.924,136.398 C431.94799,136.398 430.124008,136.132003 428.452,135.6 C426.779992,135.067997 425.348673,134.308005 424.158,133.32 C422.967327,132.331995 422.04267,131.14134 421.384,129.748 C420.72533,128.35466 420.396,126.771342 420.396,124.998 C420.396,121.400649 421.675321,118.601343 424.234,116.6 C426.792679,114.598657 430.351977,113.598 434.912,113.598 C437.192011,113.598 439.231324,113.825998 441.03,114.282 C442.828676,114.738002 444.310661,115.29533 445.476,115.954 L445.476,112.458 C445.476,109.924654 444.678008,108.012006 443.082,106.72 C441.485992,105.427994 439.446679,104.782 436.964,104.782 C434.98799,104.782 433.252674,105.098663 431.758,105.732 C430.263326,106.365336 429.085338,107.163329 428.224,108.126 L422.904,103.034 C424.272007,101.311325 426.184654,99.8800057 428.642,98.74 C431.099346,97.5999943 433.999983,97.03 437.344,97.03 C442.917361,97.03 447.05932,98.3346536 449.77,100.944 C452.48068,103.553346 453.836,107.087311 453.836,111.546 L453.836,135.486 L445.476,135.486 L445.476,131.534 L445.324,131.534 C444.310662,133.003341 442.917342,134.181329 441.144,135.068 C439.370658,135.954671 436.964015,136.398 433.924,136.398 Z M436.66,129.786 C439.244013,129.786 441.359325,129.051341 443.006,127.582 C444.652675,126.112659 445.476,124.162012 445.476,121.73 L445.476,121.35 C444.411995,120.944665 443.158007,120.615335 441.714,120.362 C440.269993,120.108665 438.661342,119.982 436.888,119.982 C434.557322,119.982 432.670007,120.387329 431.226,121.198 C429.781993,122.008671 429.06,123.249992 429.06,124.922 C429.06,126.442008 429.743993,127.632662 431.112,128.494 C432.480007,129.355338 434.329322,129.786 436.66,129.786 Z M462.728,83.046 L471.316,83.046 L471.316,122.718 L471.468,122.718 L488.872,97.942 L498.828,97.942 L485.984,115.574 L499.36,135.486 L489.1,135.486 L480.36,122.186 L470.784,135.486 L462.728,135.486 L462.728,83.046 Z M519.424,148.862 C517.295989,148.862 515.421341,148.49467 513.8,147.76 C512.178659,147.02533 510.886671,146.126005 509.924,145.062 L515.548,139.59 C516.460005,140.603338 517.701325,141.11 519.272,141.11 C520.538673,141.11 521.577329,140.717337 522.388,139.932 C523.198671,139.146663 523.604,137.943341 523.604,136.322 L523.604,97.942 L532.192,97.942 L532.192,136.474 C532.192,138.146008 531.938669,139.741992 531.432,141.262 C530.925331,142.782008 530.140005,144.099328 529.076,145.214 C528.011995,146.328672 526.682008,147.21533 525.086,147.874 C523.489992,148.53267 521.602678,148.862 519.424,148.862 Z M527.86,93.534 C526.238659,93.534 524.959338,93.0400049 524.022,92.052 C523.084662,91.0639951 522.616,89.8860068 522.616,88.518 C522.616,87.1499932 523.084662,85.9593384 524.022,84.946 C524.959338,83.9326616 526.238659,83.426 527.86,83.426 C529.532008,83.426 530.836662,83.9326616 531.774,84.946 C532.711338,85.9593384 533.18,87.1499932 533.18,88.518 C533.18,89.8860068 532.711338,91.0639951 531.774,92.052 C530.836662,93.0400049 529.532008,93.534 527.86,93.534 Z M558.64,136.398 C555.599985,136.398 552.889345,135.866005 550.508,134.802 C548.126655,133.737995 546.112675,132.319342 544.466,130.546 C542.819325,128.772658 541.565338,126.695345 540.704,124.314 C539.842662,121.932655 539.412,119.399347 539.412,116.714 C539.412,114.07932 539.817329,111.558679 540.628,109.152 C541.438671,106.745321 542.641992,104.655342 544.238,102.882 C545.834008,101.108658 547.797322,99.6900053 550.128,98.626 C552.458678,97.5619947 555.143985,97.03 558.184,97.03 C561.224015,97.03 563.909322,97.5493281 566.24,98.588 C568.570678,99.6266719 570.533992,101.045324 572.13,102.844 C573.726008,104.642676 574.929329,106.719988 575.74,109.076 C576.550671,111.432012 576.956,113.92732 576.956,116.562 C576.956,117.119336 576.930667,117.676664 576.88,118.234 C576.829333,118.791336 576.753334,119.272665 576.652,119.678 L548.152,119.678 C548.304001,121.046007 548.70933,122.287328 549.368,123.402 C550.02667,124.516672 550.824662,125.453996 551.762,126.214 C552.699338,126.974004 553.775994,127.569331 554.992,128 C556.208006,128.430669 557.47466,128.646 558.792,128.646 C561.072011,128.646 563.085991,128.253337 564.834,127.468 C566.582009,126.682663 567.987995,125.707339 569.052,124.542 L574.372,129.71 C572.801325,131.787344 570.66068,133.421327 567.95,134.612 C565.23932,135.802673 562.136017,136.398 558.64,136.398 Z M558.184,104.402 C555.346652,104.402 553.054009,105.212659 551.306,106.834 C549.557991,108.455341 548.506668,110.507321 548.152,112.99 L568.216,112.99 C567.861332,110.507321 566.797342,108.455341 565.024,106.834 C563.250658,105.212659 560.970681,104.402 558.184,104.402 Z M624.228,136.398 C621.137318,136.398 618.490011,135.77734 616.286,134.536 C614.081989,133.29466 612.473338,131.787342 611.46,130.014 L611.308,130.014 L611.308,135.486 L603.176,135.486 L603.176,83.046 L611.764,83.046 L611.764,102.958 L611.916,102.958 C612.828005,101.437992 614.30999,100.070006 616.362,98.854 C618.41401,97.6379939 621.035984,97.03 624.228,97.03 C627.065348,97.03 629.636655,97.5493281 631.942,98.588 C634.247345,99.6266719 636.210659,101.019991 637.832,102.768 C639.453341,104.516009 640.694662,106.580655 641.556,108.962 C642.417338,111.343345 642.848,113.85132 642.848,116.486 C642.848,118.918012 642.468004,121.324655 641.708,123.706 C640.947996,126.087345 639.795341,128.215324 638.25,130.09 C636.704659,131.964676 634.766678,133.484661 632.436,134.65 C630.105322,135.815339 627.369349,136.398 624.228,136.398 Z M622.86,128.494 C624.481341,128.494 625.975993,128.20267 627.344,127.62 C628.712007,127.03733 629.889995,126.226672 630.878,125.188 C631.866005,124.149328 632.638664,122.908007 633.196,121.464 C633.753336,120.019993 634.032,118.462008 634.032,116.79 C634.032,115.117992 633.753336,113.572674 633.196,112.154 C632.638664,110.735326 631.866005,109.494005 630.878,108.43 C629.889995,107.365995 628.712007,106.54267 627.344,105.96 C625.975993,105.37733 624.481341,105.086 622.86,105.086 C621.238659,105.086 619.756673,105.37733 618.414,105.96 C617.071327,106.54267 615.906005,107.365995 614.918,108.43 C613.929995,109.494005 613.157336,110.735326 612.6,112.154 C612.042664,113.572674 611.764,115.117992 611.764,116.79 C611.764,118.462008 612.042664,120.019993 612.6,121.464 C613.157336,122.908007 613.929995,124.149328 614.918,125.188 C615.906005,126.226672 617.071327,127.03733 618.414,127.62 C619.756673,128.20267 621.238659,128.494 622.86,128.494 Z M666.636,136.398 C663.595985,136.398 660.885345,135.866005 658.504,134.802 C656.122655,133.737995 654.108675,132.319342 652.462,130.546 C650.815325,128.772658 649.561338,126.695345 648.7,124.314 C647.838662,121.932655 647.408,119.399347 647.408,116.714 C647.408,114.07932 647.813329,111.558679 648.624,109.152 C649.434671,106.745321 650.637992,104.655342 652.234,102.882 C653.830008,101.108658 655.793322,99.6900053 658.124,98.626 C660.454678,97.5619947 663.139985,97.03 666.18,97.03 C669.220015,97.03 671.905322,97.5493281 674.236,98.588 C676.566678,99.6266719 678.529992,101.045324 680.126,102.844 C681.722008,104.642676 682.925329,106.719988 683.736,109.076 C684.546671,111.432012 684.952,113.92732 684.952,116.562 C684.952,117.119336 684.926667,117.676664 684.876,118.234 C684.825333,118.791336 684.749334,119.272665 684.648,119.678 L656.148,119.678 C656.300001,121.046007 656.70533,122.287328 657.364,123.402 C658.02267,124.516672 658.820662,125.453996 659.758,126.214 C660.695338,126.974004 661.771994,127.569331 662.988,128 C664.204006,128.430669 665.47066,128.646 666.788,128.646 C669.068011,128.646 671.081991,128.253337 672.83,127.468 C674.578009,126.682663 675.983995,125.707339 677.048,124.542 L682.368,129.71 C680.797325,131.787344 678.65668,133.421327 675.946,134.612 C673.23532,135.802673 670.132017,136.398 666.636,136.398 Z M666.18,104.402 C663.342652,104.402 661.050009,105.212659 659.302,106.834 C657.553991,108.455341 656.502668,110.507321 656.148,112.99 L676.212,112.99 C675.857332,110.507321 674.793342,108.455341 673.02,106.834 C671.246658,105.212659 668.966681,104.402 666.18,104.402 Z M692.02,97.942 L700.152,97.942 L700.152,102.502 L700.304,102.502 C701.317338,100.880659 702.761324,99.5633384 704.636,98.55 C706.510676,97.5366616 708.815986,97.03 711.552,97.03 C716.618692,97.03 720.431321,98.4993186 722.99,101.438 C725.548679,104.376681 726.828,108.379308 726.828,113.446 L726.828,135.486 L718.24,135.486 L718.24,114.966 C718.24,111.925985 717.54334,109.443343 716.15,107.518 C714.75666,105.592657 712.565348,104.63 709.576,104.63 C706.687986,104.63 704.471341,105.57999 702.926,107.48 C701.380659,109.380009 700.608,111.875318 700.608,114.966 L700.608,135.486 L692.02,135.486 L692.02,97.942 Z M749.4,136.398 C745.295979,136.398 742.25601,135.245345 740.28,132.94 C738.30399,130.634655 737.316,127.252689 737.316,122.794 L737.316,105.314 L732.148,105.314 L732.148,97.942 L737.316,97.942 L737.316,87.758 L745.904,87.758 L745.904,97.942 L758.444,97.942 L758.444,105.314 L745.904,105.314 L745.904,122.49 C745.904,124.668678 746.385329,126.213995 747.348,127.126 C748.310671,128.038005 749.526659,128.494 750.996,128.494 C752.212006,128.494 753.288662,128.278669 754.226,127.848 C755.163338,127.417331 755.910664,126.847337 756.468,126.138 L759.28,132.902 C758.469329,133.814005 757.202675,134.624663 755.48,135.334 C753.757325,136.043337 751.730678,136.398 749.4,136.398 Z M805.716,136.398 C802.625318,136.398 799.978011,135.77734 797.774,134.536 C795.569989,133.29466 793.961338,131.787342 792.948,130.014 L792.796,130.014 L792.796,135.486 L784.664,135.486 L784.664,83.046 L793.252,83.046 L793.252,102.958 L793.404,102.958 C794.316005,101.437992 795.79799,100.070006 797.85,98.854 C799.90201,97.6379939 802.523984,97.03 805.716,97.03 C808.553348,97.03 811.124655,97.5493281 813.43,98.588 C815.735345,99.6266719 817.698659,101.019991 819.32,102.768 C820.941341,104.516009 822.182662,106.580655 823.044,108.962 C823.905338,111.343345 824.336,113.85132 824.336,116.486 C824.336,118.918012 823.956004,121.324655 823.196,123.706 C822.435996,126.087345 821.283341,128.215324 819.738,130.09 C818.192659,131.964676 816.254678,133.484661 813.924,134.65 C811.593322,135.815339 808.857349,136.398 805.716,136.398 Z M804.348,128.494 C805.969341,128.494 807.463993,128.20267 808.832,127.62 C810.200007,127.03733 811.377995,126.226672 812.366,125.188 C813.354005,124.149328 814.126664,122.908007 814.684,121.464 C815.241336,120.019993 815.52,118.462008 815.52,116.79 C815.52,115.117992 815.241336,113.572674 814.684,112.154 C814.126664,110.735326 813.354005,109.494005 812.366,108.43 C811.377995,107.365995 810.200007,106.54267 808.832,105.96 C807.463993,105.37733 805.969341,105.086 804.348,105.086 C802.726659,105.086 801.244673,105.37733 799.902,105.96 C798.559327,106.54267 797.394005,107.365995 796.406,108.43 C795.417995,109.494005 794.645336,110.735326 794.088,112.154 C793.530664,113.572674 793.252,115.117992 793.252,116.79 C793.252,118.462008 793.530664,120.019993 794.088,121.464 C794.645336,122.908007 795.417995,124.149328 796.406,125.188 C797.394005,126.226672 798.559327,127.03733 799.902,127.62 C801.244673,128.20267 802.726659,128.494 804.348,128.494 Z M848.124,136.398 C845.083985,136.398 842.373345,135.866005 839.992,134.802 C837.610655,133.737995 835.596675,132.319342 833.95,130.546 C832.303325,128.772658 831.049338,126.695345 830.188,124.314 C829.326662,121.932655 828.896,119.399347 828.896,116.714 C828.896,114.07932 829.301329,111.558679 830.112,109.152 C830.922671,106.745321 832.125992,104.655342 833.722,102.882 C835.318008,101.108658 837.281322,99.6900053 839.612,98.626 C841.942678,97.5619947 844.627985,97.03 847.668,97.03 C850.708015,97.03 853.393322,97.5493281 855.724,98.588 C858.054678,99.6266719 860.017992,101.045324 861.614,102.844 C863.210008,104.642676 864.413329,106.719988 865.224,109.076 C866.034671,111.432012 866.44,113.92732 866.44,116.562 C866.44,117.119336 866.414667,117.676664 866.364,118.234 C866.313333,118.791336 866.237334,119.272665 866.136,119.678 L837.636,119.678 C837.788001,121.046007 838.19333,122.287328 838.852,123.402 C839.51067,124.516672 840.308662,125.453996 841.246,126.214 C842.183338,126.974004 843.259994,127.569331 844.476,128 C845.692006,128.430669 846.95866,128.646 848.276,128.646 C850.556011,128.646 852.569991,128.253337 854.318,127.468 C856.066009,126.682663 857.471995,125.707339 858.536,124.542 L863.856,129.71 C862.285325,131.787344 860.14468,133.421327 857.434,134.612 C854.72332,135.802673 851.620017,136.398 848.124,136.398 Z M847.668,104.402 C844.830652,104.402 842.538009,105.212659 840.79,106.834 C839.041991,108.455341 837.990668,110.507321 837.636,112.99 L857.7,112.99 C857.345332,110.507321 856.281342,108.455341 854.508,106.834 C852.734658,105.212659 850.454681,104.402 847.668,104.402 Z M870.316,94.522 C868.795992,94.522 867.605338,94.0660046 866.744,93.154 C865.882662,92.2419954 865.452,91.152673 865.452,89.886 C865.452,88.619327 865.882662,87.5046715 866.744,86.542 C867.605338,85.5793285 868.795992,85.098 870.316,85.098 C871.836008,85.098 873.026662,85.5793285 873.888,86.542 C874.749338,87.5046715 875.18,88.619327 875.18,89.886 C875.18,91.152673 874.749338,92.2419954 873.888,93.154 C873.026662,94.0660046 871.836008,94.522 870.316,94.522 Z M885.592,94.522 C884.071992,94.522 882.881338,94.0660046 882.02,93.154 C881.158662,92.2419954 880.728,91.152673 880.728,89.886 C880.728,88.619327 881.158662,87.5046715 882.02,86.542 C882.881338,85.5793285 884.071992,85.098 885.592,85.098 C887.112008,85.098 888.302662,85.5793285 889.164,86.542 C890.025338,87.5046715 890.456,88.619327 890.456,89.886 C890.456,91.152673 890.025338,92.2419954 889.164,93.154 C888.302662,94.0660046 887.112008,94.522 885.592,94.522 Z M873.508,97.942 L882.096,97.942 L882.096,135.486 L873.508,135.486 L873.508,97.942 Z M891.976,97.942 L900.108,97.942 L900.108,102.502 L900.26,102.502 C901.273338,100.880659 902.717324,99.5633384 904.592,98.55 C906.466676,97.5366616 908.771986,97.03 911.508,97.03 C916.574692,97.03 920.387321,98.4993186 922.946,101.438 C925.504679,104.376681 926.784,108.379308 926.784,113.446 L926.784,135.486 L918.196,135.486 L918.196,114.966 C918.196,111.925985 917.49934,109.443343 916.106,107.518 C914.71266,105.592657 912.521348,104.63 909.532,104.63 C906.643986,104.63 904.427341,105.57999 902.882,107.48 C901.336659,109.380009 900.564,111.875318 900.564,114.966 L900.564,135.486 L891.976,135.486 L891.976,97.942 Z M931.724,97.942 L940.844,97.942 L949.28,124.542 L949.432,124.542 L957.792,97.942 L966.684,97.942 L953.84,135.486 L944.492,135.486 L931.724,97.942 Z M972.612,83.046 L981.2,83.046 L981.2,135.486 L972.612,135.486 L972.612,83.046 Z M1008.104,136.398 C1004.75998,136.398 1001.84668,135.802673 999.364,134.612 C996.881321,133.421327 994.829341,131.888676 993.208,130.014 C991.586659,128.139324 990.383337,126.024012 989.598,123.668 C988.812663,121.311988 988.42,118.994011 988.42,116.714 C988.42,114.433989 988.812663,112.116012 989.598,109.76 C990.383337,107.403988 991.586659,105.288676 993.208,103.414 C994.829341,101.539324 996.881321,100.006673 999.364,98.816 C1001.84668,97.6253274 1004.75998,97.03 1008.104,97.03 C1011.44802,97.03 1014.36132,97.6253274 1016.844,98.816 C1019.32668,100.006673 1021.39133,101.539324 1023.038,103.414 C1024.68467,105.288676 1025.90066,107.403988 1026.686,109.76 C1027.47134,112.116012 1027.864,114.433989 1027.864,116.714 C1027.864,118.994011 1027.47134,121.311988 1026.686,123.668 C1025.90066,126.024012 1024.68467,128.139324 1023.038,130.014 C1021.39133,131.888676 1019.32668,133.421327 1016.844,134.612 C1014.36132,135.802673 1011.44802,136.398 1008.104,136.398 Z M1008.104,128.418 C1009.67467,128.418 1011.11866,128.12667 1012.436,127.544 C1013.75334,126.96133 1014.906,126.150672 1015.894,125.112 C1016.882,124.073328 1017.65466,122.832007 1018.212,121.388 C1018.76934,119.943993 1019.048,118.386008 1019.048,116.714 C1019.048,114.991325 1018.76934,113.420674 1018.212,112.002 C1017.65466,110.583326 1016.882,109.354672 1015.894,108.316 C1014.906,107.277328 1013.75334,106.46667 1012.436,105.884 C1011.11866,105.30133 1009.67467,105.01 1008.104,105.01 C1006.58399,105.01 1005.15267,105.30133 1003.81,105.884 C1002.46733,106.46667 1001.302,107.277328 1000.314,108.316 C999.325995,109.354672 998.553336,110.583326 997.996,112.002 C997.438664,113.420674 997.16,114.991325 997.16,116.714 C997.16,118.386008 997.438664,119.943993 997.996,121.388 C998.553336,122.832007 999.325995,124.073328 1000.314,125.112 C1001.302,126.150672 1002.46733,126.96133 1003.81,127.544 C1005.15267,128.12667 1006.58399,128.418 1008.104,128.418 Z M1051.652,136.398 C1048.61198,136.398 1045.90135,135.866005 1043.52,134.802 C1041.13865,133.737995 1039.12467,132.319342 1037.478,130.546 C1035.83133,128.772658 1034.57734,126.695345 1033.716,124.314 C1032.85466,121.932655 1032.424,119.399347 1032.424,116.714 C1032.424,114.07932 1032.82933,111.558679 1033.64,109.152 C1034.45067,106.745321 1035.65399,104.655342 1037.25,102.882 C1038.84601,101.108658 1040.80932,99.6900053 1043.14,98.626 C1045.47068,97.5619947 1048.15598,97.03 1051.196,97.03 C1054.23602,97.03 1056.92132,97.5493281 1059.252,98.588 C1061.58268,99.6266719 1063.54599,101.045324 1065.142,102.844 C1066.73801,104.642676 1067.94133,106.719988 1068.752,109.076 C1069.56267,111.432012 1069.968,113.92732 1069.968,116.562 C1069.968,117.119336 1069.94267,117.676664 1069.892,118.234 C1069.84133,118.791336 1069.76533,119.272665 1069.664,119.678 L1041.164,119.678 C1041.316,121.046007 1041.72133,122.287328 1042.38,123.402 C1043.03867,124.516672 1043.83666,125.453996 1044.774,126.214 C1045.71134,126.974004 1046.78799,127.569331 1048.004,128 C1049.22001,128.430669 1050.48666,128.646 1051.804,128.646 C1054.08401,128.646 1056.09799,128.253337 1057.846,127.468 C1059.59401,126.682663 1060.99999,125.707339 1062.064,124.542 L1067.384,129.71 C1065.81333,131.787344 1063.67268,133.421327 1060.962,134.612 C1058.25132,135.802673 1055.14802,136.398 1051.652,136.398 Z M1051.196,104.402 C1048.35865,104.402 1046.06601,105.212659 1044.318,106.834 C1042.56999,108.455341 1041.51867,110.507321 1041.164,112.99 L1061.228,112.99 C1060.87333,110.507321 1059.80934,108.455341 1058.036,106.834 C1056.26266,105.212659 1053.98268,104.402 1051.196,104.402 Z M1092.996,136.398 C1089.85465,136.398 1087.11868,135.815339 1084.788,134.65 C1082.45732,133.484661 1080.51934,131.964676 1078.974,130.09 C1077.42866,128.215324 1076.276,126.087345 1075.516,123.706 C1074.756,121.324655 1074.376,118.918012 1074.376,116.486 C1074.376,113.85132 1074.80666,111.343345 1075.668,108.962 C1076.52934,106.580655 1077.77066,104.516009 1079.392,102.768 C1081.01334,101.019991 1082.96399,99.6266719 1085.244,98.588 C1087.52401,97.5493281 1090.08265,97.03 1092.92,97.03 C1096.11202,97.03 1098.73399,97.6379939 1100.786,98.854 C1102.83801,100.070006 1104.34533,101.437992 1105.308,102.958 L1105.46,102.958 L1105.46,83.046 L1114.048,83.046 L1114.048,135.486 L1105.916,135.486 L1105.916,130.014 L1105.764,130.014 C1104.69999,131.787342 1103.06601,133.29466 1100.862,134.536 C1098.65799,135.77734 1096.03602,136.398 1092.996,136.398 Z M1094.364,128.494 C1095.93467,128.494 1097.40399,128.20267 1098.772,127.62 C1100.14001,127.03733 1101.318,126.226672 1102.306,125.188 C1103.294,124.149328 1104.06666,122.908007 1104.624,121.464 C1105.18134,120.019993 1105.46,118.462008 1105.46,116.79 C1105.46,115.117992 1105.18134,113.572674 1104.624,112.154 C1104.06666,110.735326 1103.294,109.494005 1102.306,108.43 C1101.318,107.365995 1100.15267,106.54267 1098.81,105.96 C1097.46733,105.37733 1095.98534,105.086 1094.364,105.086 C1092.69199,105.086 1091.17201,105.37733 1089.804,105.96 C1088.43599,106.54267 1087.258,107.365995 1086.27,108.43 C1085.282,109.494005 1084.50934,110.735326 1083.952,112.154 C1083.39466,113.572674 1083.116,115.117992 1083.116,116.79 C1083.116,118.462008 1083.39466,120.019993 1083.952,121.464 C1084.50934,122.908007 1085.29466,124.149328 1086.308,125.188 C1087.32134,126.226672 1088.51199,127.03733 1089.88,127.62 C1091.24801,128.20267 1092.74266,128.494 1094.364,128.494 Z M1128.944,108.582 C1130.56534,108.328665 1132.09799,107.898003 1133.542,107.29 C1134.98601,106.681997 1136.23999,105.922005 1137.304,105.01 C1138.36801,104.097995 1139.204,103.046673 1139.812,101.856 C1140.42,100.665327 1140.724,99.3353407 1140.724,97.866 C1140.724,95.6873224 1140.04001,93.9013403 1138.672,92.508 C1137.30399,91.1146597 1135.50534,90.418 1133.276,90.418 C1131.65466,90.418 1130.22334,90.7093304 1128.982,91.292 C1127.74066,91.8746696 1126.76534,92.5206631 1126.056,93.23 L1120.432,87.682 C1121.64801,86.2633262 1123.34532,84.9840057 1125.524,83.844 C1127.70268,82.7039943 1130.43865,82.134 1133.732,82.134 C1136.36668,82.134 1138.68466,82.5393293 1140.686,83.35 C1142.68734,84.1606707 1144.37199,85.2626597 1145.74,86.656 C1147.10801,88.0493403 1148.134,89.6706574 1148.818,91.52 C1149.502,93.3693426 1149.844,95.3073232 1149.844,97.334 C1149.844,99.1073422 1149.56534,100.842658 1149.008,102.54 C1148.45066,104.237342 1147.61467,105.820659 1146.5,107.29 C1145.38533,108.759341 1144.03001,110.063994 1142.434,111.204 C1140.83799,112.344006 1139.00134,113.217997 1136.924,113.826 L1135.784,120.286 L1131.3,120.286 L1128.944,108.582 Z M1133.656,136.246 C1131.88266,136.246 1130.502,135.701339 1129.514,134.612 C1128.526,133.522661 1128.032,132.243341 1128.032,130.774 C1128.032,129.304659 1128.526,128.012672 1129.514,126.898 C1130.502,125.783328 1131.88266,125.226 1133.656,125.226 C1135.42934,125.226 1136.81,125.783328 1137.798,126.898 C1138.786,128.012672 1139.28,129.304659 1139.28,130.774 C1139.28,132.243341 1138.786,133.522661 1137.798,134.612 C1136.81,135.701339 1135.42934,136.246 1133.656,136.246 Z" id="Hebjedoorgehadhoevaakjebentbenvloed?" fill="#FFFFFF"></path>
        </g>
    </g>
</svg>