<?xml version="1.0" encoding="UTF-8"?>
<svg width="364px" height="39px" viewBox="0 0 364 39" version="1.1" xmlns="http://www.w3.org/2000/svg" xmlns:xlink="http://www.w3.org/1999/xlink">
    <!-- Generator: Sketch 54.1 (76490) - https://sketchapp.com -->
    <title>Facebook = data Copy 2</title>
    <desc>Created with Sketch.</desc>
    <g id="Page-1" stroke="none" stroke-width="1" fill="none" fill-rule="evenodd">
        <g id="Facebook-=-data-Copy-2" transform="translate(0.240000, 0.740000)" fill-rule="nonzero">
            <path d="M5.68434189e-14,2.16 L22.41,2.16 L22.41,9.396 L8.532,9.396 L8.532,17.442 L21.87,17.442 L21.87,24.678 L8.532,24.678 L8.532,37.26 L5.68434189e-14,37.26 L5.68434189e-14,2.16 Z M34.344,37.908 C31.3559851,37.908 29.0160085,37.1610075 27.324,35.667 C25.6319915,34.1729925 24.786,32.1840124 24.786,29.7 C24.786,27.107987 25.6769911,25.0830073 27.459,23.625 C29.2410089,22.1669927 31.8779825,21.438 35.37,21.438 C36.8100072,21.438 38.1599937,21.5639987 39.42,21.816 C40.6800063,22.0680013 41.7239959,22.3739982 42.552,22.734 L42.552,21.816 C42.552,20.1599917 42.0300052,18.936004 40.986,18.144 C39.9419948,17.351996 38.6640076,16.956 37.152,16.956 C35.9639941,16.956 34.8390053,17.1449981 33.777,17.523 C32.7149947,17.9010019 31.8960029,18.4139968 31.32,19.062 L26.46,14.364 C27.468005,13.1039937 28.9259905,12.0510042 30.834,11.205 C32.7420095,10.3589958 34.9379876,9.936 37.422,9.936 C39.6900113,9.936 41.624992,10.2059973 43.227,10.746 C44.829008,11.2860027 46.133995,12.0419951 47.142,13.014 C48.150005,13.9860049 48.8879977,15.1559932 49.356,16.524 C49.8240023,17.8920068 50.058,19.3859919 50.058,21.006 L50.058,37.26 L42.552,37.26 L42.552,34.776 L42.444,34.776 C41.6879962,35.8200052 40.6620065,36.6029974 39.366,37.125 C38.0699935,37.6470026 36.3960103,37.908 34.344,37.908 Z M37.368,32.292 C38.9160077,32.292 40.1669952,31.8690042 41.121,31.023 C42.0750048,30.1769958 42.552,28.9980076 42.552,27.486 L42.552,27.432 C41.7959962,27.2519991 41.022004,27.1170004 40.23,27.027 C39.437996,26.9369995 38.5200052,26.892 37.476,26.892 C34.3799845,26.892 32.832,27.8099908 32.832,29.646 C32.832,30.5460045 33.2459959,31.2119978 34.074,31.644 C34.9020041,32.0760022 35.9999932,32.292 37.368,32.292 Z M67.878,37.908 C65.4659879,37.908 63.3690089,37.4850042 61.587,36.639 C59.8049911,35.7929958 58.3290059,34.7040067 57.159,33.372 C55.9889942,32.0399933 55.1160029,30.5370084 54.54,28.863 C53.9639971,27.1889916 53.676,25.5420081 53.676,23.922 C53.676,22.3019919 53.9639971,20.6550084 54.54,18.981 C55.1160029,17.3069916 55.9799942,15.8040067 57.132,14.472 C58.2840058,13.1399933 59.7509911,12.0510042 61.533,11.205 C63.3150089,10.3589958 65.4119879,9.936 67.824,9.936 C70.0920113,9.936 72.0719915,10.3679957 73.764,11.232 C75.4560085,12.0960043 76.8239948,13.1219941 77.868,14.31 L72.468,19.656 C71.8919971,19.0079968 71.208004,18.5130017 70.416,18.171 C69.623996,17.8289983 68.7780045,17.658 67.878,17.658 C66.2219917,17.658 64.8180058,18.2249943 63.666,19.359 C62.5139942,20.4930057 61.938,22.0139905 61.938,23.922 C61.938,25.7940094 62.5229941,27.3059942 63.693,28.458 C64.8630059,29.6100058 66.2759917,30.186 67.932,30.186 C68.7960043,30.186 69.623996,30.0150017 70.416,29.673 C71.208004,29.3309983 71.8919971,28.8540031 72.468,28.242 L77.922,33.588 C76.8779948,34.7760059 75.5100085,35.7929958 73.818,36.639 C72.1259915,37.4850042 70.1460113,37.908 67.878,37.908 Z M92.988,37.908 C90.5759879,37.908 88.4880088,37.4850042 86.724,36.639 C84.9599912,35.7929958 83.4930059,34.7040067 82.323,33.372 C81.1529942,32.0399933 80.2890028,30.5370084 79.731,28.863 C79.1729972,27.1889916 78.894,25.5420081 78.894,23.922 C78.894,22.3019919 79.1549974,20.6550084 79.677,18.981 C80.1990026,17.3069916 81.0089945,15.8040067 82.107,14.472 C83.2050055,13.1399933 84.6179914,12.0510042 86.346,11.205 C88.0740086,10.3589958 90.1439879,9.936 92.556,9.936 C94.9680121,9.936 97.0289914,10.3589958 98.739,11.205 C100.449009,12.0510042 101.843995,13.1399933 102.924,14.472 C104.004005,15.8040067 104.795997,17.3069916 105.3,18.981 C105.804003,20.6550084 106.056,22.3019919 106.056,23.922 C106.056,24.318002 106.02,24.7949972 105.948,25.353 C105.876,25.9110028 105.804,26.3519984 105.732,26.676 L86.994,26.676 C87.2100011,27.3960036 87.5249979,28.0259973 87.939,28.566 C88.3530021,29.1060027 88.8479971,29.5469983 89.424,29.889 C90.0000029,30.2310017 90.6119968,30.4829992 91.26,30.645 C91.9080032,30.8070008 92.5739966,30.888 93.258,30.888 C94.4460059,30.888 95.5709947,30.6990019 96.633,30.321 C97.6950053,29.9429981 98.5139971,29.4300032 99.09,28.782 L103.95,33.48 C102.941995,34.7400063 101.48401,35.7929958 99.576,36.639 C97.6679905,37.4850042 95.4720124,37.908 92.988,37.908 Z M92.556,16.632 C91.1879932,16.632 89.9820052,16.9739966 88.938,17.658 C87.8939948,18.3420034 87.2100016,19.4939919 86.886,21.114 L98.172,21.114 C97.8479984,19.4939919 97.1730051,18.3420034 96.147,17.658 C95.1209949,16.9739966 93.9240068,16.632 92.556,16.632 Z M125.928,37.908 C123.87599,37.908 122.157007,37.512004 120.771,36.72 C119.384993,35.927996 118.314004,34.9920054 117.558,33.912 L117.45,33.912 L117.45,37.26 L109.944,37.26 L109.944,-5.68434189e-14 L117.936,-5.68434189e-14 L117.936,13.554 L117.99,13.554 C118.602003,12.6899957 119.555994,11.8710039 120.852,11.097 C122.148006,10.3229961 123.83999,9.936 125.928,9.936 C127.83601,9.936 129.581992,10.2779966 131.166,10.962 C132.750008,11.6460034 134.117994,12.5999939 135.27,13.824 C136.422006,15.0480061 137.312997,16.4969916 137.943,18.171 C138.573003,19.8450084 138.888,21.6719901 138.888,23.652 C138.888,25.2720081 138.654002,26.9189916 138.186,28.593 C137.717998,30.2670084 136.971005,31.7969931 135.945,33.183 C134.918995,34.5690069 133.578008,35.7029956 131.922,36.585 C130.265992,37.4670044 128.268012,37.908 125.928,37.908 Z M124.308,30.456 C125.280005,30.456 126.161996,30.2850017 126.954,29.943 C127.746004,29.6009983 128.420997,29.133003 128.979,28.539 C129.537003,27.944997 129.968998,27.252004 130.275,26.46 C130.581002,25.667996 130.734,24.8220045 130.734,23.922 C130.734,23.0579957 130.590001,22.2390039 130.302,21.465 C130.013999,20.6909961 129.600003,19.9980031 129.06,19.386 C128.519997,18.7739969 127.845004,18.2880018 127.035,17.928 C126.224996,17.5679982 125.316005,17.388 124.308,17.388 C123.263995,17.388 122.346004,17.5679982 121.554,17.928 C120.761996,18.2880018 120.096003,18.7739969 119.556,19.386 C119.015997,19.9980031 118.602001,20.6909961 118.314,21.465 C118.025999,22.2390039 117.882,23.0579957 117.882,23.922 C117.882,24.8220045 118.034998,25.667996 118.341,26.46 C118.647002,27.252004 119.078997,27.944997 119.637,28.539 C120.195003,29.133003 120.869996,29.6009983 121.662,29.943 C122.454004,30.2850017 123.335995,30.456 124.308,30.456 Z M155.79,37.908 C153.341988,37.908 151.227009,37.4850042 149.445,36.639 C147.662991,35.7929958 146.178006,34.7040067 144.99,33.372 C143.801994,32.0399933 142.920003,30.5370084 142.344,28.863 C141.767997,27.1889916 141.48,25.5420081 141.48,23.922 C141.48,22.3019919 141.767997,20.6550084 142.344,18.981 C142.920003,17.3069916 143.801994,15.8040067 144.99,14.472 C146.178006,13.1399933 147.662991,12.0510042 149.445,11.205 C151.227009,10.3589958 153.341988,9.936 155.79,9.936 C158.202012,9.936 160.307991,10.3589958 162.108,11.205 C163.908009,12.0510042 165.401994,13.1399933 166.59,14.472 C167.778006,15.8040067 168.659997,17.3069916 169.236,18.981 C169.812003,20.6550084 170.1,22.3019919 170.1,23.922 C170.1,25.5420081 169.812003,27.1889916 169.236,28.863 C168.659997,30.5370084 167.778006,32.0399933 166.59,33.372 C165.401994,34.7040067 163.908009,35.7929958 162.108,36.639 C160.307991,37.4850042 158.202012,37.908 155.79,37.908 Z M155.79,30.348 C156.618004,30.348 157.409996,30.1860016 158.166,29.862 C158.922004,29.5379984 159.578997,29.0970028 160.137,28.539 C160.695003,27.9809972 161.135998,27.306004 161.46,26.514 C161.784002,25.721996 161.946,24.8580047 161.946,23.922 C161.946,22.9859953 161.784002,22.122004 161.46,21.33 C161.135998,20.537996 160.695003,19.8540029 160.137,19.278 C159.578997,18.7019971 158.922004,18.2520016 158.166,17.928 C157.409996,17.6039984 156.618004,17.442 155.79,17.442 C154.961996,17.442 154.170004,17.6039984 153.414,17.928 C152.657996,18.2520016 152.001003,18.7019971 151.443,19.278 C150.884997,19.8540029 150.444002,20.537996 150.12,21.33 C149.795998,22.122004 149.634,22.9859953 149.634,23.922 C149.634,24.8580047 149.795998,25.721996 150.12,26.514 C150.444002,27.306004 150.884997,27.9809972 151.443,28.539 C152.001003,29.0970028 152.657996,29.5379984 153.414,29.862 C154.170004,30.1860016 154.961996,30.348 155.79,30.348 Z M187.002,37.908 C184.553988,37.908 182.439009,37.4850042 180.657,36.639 C178.874991,35.7929958 177.390006,34.7040067 176.202,33.372 C175.013994,32.0399933 174.132003,30.5370084 173.556,28.863 C172.979997,27.1889916 172.692,25.5420081 172.692,23.922 C172.692,22.3019919 172.979997,20.6550084 173.556,18.981 C174.132003,17.3069916 175.013994,15.8040067 176.202,14.472 C177.390006,13.1399933 178.874991,12.0510042 180.657,11.205 C182.439009,10.3589958 184.553988,9.936 187.002,9.936 C189.414012,9.936 191.519991,10.3589958 193.32,11.205 C195.120009,12.0510042 196.613994,13.1399933 197.802,14.472 C198.990006,15.8040067 199.871997,17.3069916 200.448,18.981 C201.024003,20.6550084 201.312,22.3019919 201.312,23.922 C201.312,25.5420081 201.024003,27.1889916 200.448,28.863 C199.871997,30.5370084 198.990006,32.0399933 197.802,33.372 C196.613994,34.7040067 195.120009,35.7929958 193.32,36.639 C191.519991,37.4850042 189.414012,37.908 187.002,37.908 Z M187.002,30.348 C187.830004,30.348 188.621996,30.1860016 189.378,29.862 C190.134004,29.5379984 190.790997,29.0970028 191.349,28.539 C191.907003,27.9809972 192.347998,27.306004 192.672,26.514 C192.996002,25.721996 193.158,24.8580047 193.158,23.922 C193.158,22.9859953 192.996002,22.122004 192.672,21.33 C192.347998,20.537996 191.907003,19.8540029 191.349,19.278 C190.790997,18.7019971 190.134004,18.2520016 189.378,17.928 C188.621996,17.6039984 187.830004,17.442 187.002,17.442 C186.173996,17.442 185.382004,17.6039984 184.626,17.928 C183.869996,18.2520016 183.213003,18.7019971 182.655,19.278 C182.096997,19.8540029 181.656002,20.537996 181.332,21.33 C181.007998,22.122004 180.846,22.9859953 180.846,23.922 C180.846,24.8580047 181.007998,25.721996 181.332,26.514 C181.656002,27.306004 182.096997,27.9809972 182.655,28.539 C183.213003,29.0970028 183.869996,29.5379984 184.626,29.862 C185.382004,30.1860016 186.173996,30.348 187.002,30.348 Z M205.416,-5.68434189e-14 L213.408,-5.68434189e-14 L213.408,25.218 L213.516,25.218 L223.668,10.584 L232.848,10.584 L224.1,22.41 L233.172,37.26 L223.884,37.26 L218.7,28.404 L212.328,37.26 L205.416,37.26 L205.416,-5.68434189e-14 Z" id="Facebook" fill="#3B5998"></path>
            <path d="M246.552,17.898 L265.914,17.898 L265.914,22.182 L246.552,22.182 L246.552,17.898 Z M246.552,27.138 L265.914,27.138 L265.914,31.422 L246.552,31.422 L246.552,27.138 Z" id="=" fill="#8B8B8B"></path>
            <path d="M291.492,37.764 C289.755991,37.764 288.244006,37.4420032 286.956,36.798 C285.667994,36.1539968 284.597004,35.3140052 283.743,34.278 C282.888996,33.2419948 282.252002,32.0660066 281.832,30.75 C281.411998,29.4339934 281.202,28.1040067 281.202,26.76 C281.202,25.3039927 281.439998,23.9180066 281.916,22.602 C282.392002,21.2859934 283.077996,20.1450048 283.974,19.179 C284.870004,18.2129952 285.947994,17.4430029 287.208,16.869 C288.468006,16.2949971 289.881992,16.008 291.45,16.008 C293.214009,16.008 294.662994,16.3439966 295.797,17.016 C296.931006,17.6880034 297.763997,18.4439958 298.296,19.284 L298.38,19.284 L298.38,8.28 L303.126,8.28 L303.126,37.26 L298.632,37.26 L298.632,34.236 L298.548,34.236 C297.959997,35.2160049 297.057006,36.0489966 295.839,36.735 C294.620994,37.4210034 293.172008,37.764 291.492,37.764 Z M292.248,33.396 C293.116004,33.396 293.927996,33.2350016 294.684,32.913 C295.440004,32.5909984 296.090997,32.1430029 296.637,31.569 C297.183003,30.9949971 297.609998,30.309004 297.918,29.511 C298.226002,28.712996 298.38,27.8520046 298.38,26.928 C298.38,26.0039954 298.226002,25.1500039 297.918,24.366 C297.609998,23.5819961 297.183003,22.8960029 296.637,22.308 C296.090997,21.7199971 295.447004,21.2650016 294.705,20.943 C293.962996,20.6209984 293.144004,20.46 292.248,20.46 C291.323995,20.46 290.484004,20.6209984 289.728,20.943 C288.971996,21.2650016 288.321003,21.7199971 287.775,22.308 C287.228997,22.8960029 286.802002,23.5819961 286.494,24.366 C286.185998,25.1500039 286.032,26.0039954 286.032,26.928 C286.032,27.8520046 286.185998,28.712996 286.494,29.511 C286.802002,30.309004 287.235997,30.9949971 287.796,31.569 C288.356003,32.1430029 289.013996,32.5909984 289.77,32.913 C290.526004,33.2350016 291.351996,33.396 292.248,33.396 Z M314.34,37.764 C313.247995,37.764 312.240005,37.6170015 311.316,37.323 C310.391995,37.0289985 309.601003,36.6090027 308.943,36.063 C308.284997,35.5169973 307.774002,34.8590038 307.41,34.089 C307.045998,33.3189961 306.864,32.4440049 306.864,31.464 C306.864,29.4759901 307.570993,27.9290055 308.985,26.823 C310.399007,25.7169945 312.365987,25.164 314.886,25.164 C316.146006,25.164 317.272995,25.2899987 318.267,25.542 C319.261005,25.7940013 320.079997,26.1019982 320.724,26.466 L320.724,24.534 C320.724,23.133993 320.283004,22.0770036 319.401,21.363 C318.518996,20.6489964 317.392007,20.292 316.02,20.292 C314.927995,20.292 313.969004,20.4669982 313.143,20.817 C312.316996,21.1670017 311.666002,21.6079973 311.19,22.14 L308.25,19.326 C309.006004,18.3739952 310.062993,17.5830031 311.421,16.953 C312.779007,16.3229968 314.381991,16.008 316.23,16.008 C319.310015,16.008 321.598993,16.7289928 323.097,18.171 C324.595007,19.6130072 325.344,21.5659877 325.344,24.03 L325.344,37.26 L320.724,37.26 L320.724,35.076 L320.64,35.076 C320.079997,35.8880041 319.310005,36.5389975 318.33,37.029 C317.349995,37.5190024 316.020008,37.764 314.34,37.764 Z M315.852,34.11 C317.280007,34.11 318.448995,33.7040041 319.359,32.892 C320.269005,32.0799959 320.724,31.0020067 320.724,29.658 L320.724,29.448 C320.135997,29.2239989 319.443004,29.0420007 318.645,28.902 C317.846996,28.7619993 316.958005,28.692 315.978,28.692 C314.689994,28.692 313.647004,28.9159978 312.849,29.364 C312.050996,29.8120022 311.652,30.4979954 311.652,31.422 C311.652,32.2620042 312.029996,32.9199976 312.786,33.396 C313.542004,33.8720024 314.563994,34.11 315.852,34.11 Z M337.818,37.764 C335.549989,37.764 333.870005,37.1270064 332.778,35.853 C331.685995,34.5789936 331.14,32.7100123 331.14,30.246 L331.14,20.586 L328.284,20.586 L328.284,16.512 L331.14,16.512 L331.14,10.884 L335.886,10.884 L335.886,16.512 L342.816,16.512 L342.816,20.586 L335.886,20.586 L335.886,30.078 C335.886,31.282006 336.151997,32.1359975 336.684,32.64 C337.216003,33.1440025 337.887996,33.396 338.7,33.396 C339.372003,33.396 339.966997,33.2770012 340.485,33.039 C341.003003,32.8009988 341.415998,32.486002 341.724,32.094 L343.278,35.832 C342.829998,36.3360025 342.130005,36.783998 341.178,37.176 C340.225995,37.568002 339.106006,37.764 337.818,37.764 Z M352.476,37.764 C351.383995,37.764 350.376005,37.6170015 349.452,37.323 C348.527995,37.0289985 347.737003,36.6090027 347.079,36.063 C346.420997,35.5169973 345.910002,34.8590038 345.546,34.089 C345.181998,33.3189961 345,32.4440049 345,31.464 C345,29.4759901 345.706993,27.9290055 347.121,26.823 C348.535007,25.7169945 350.501987,25.164 353.022,25.164 C354.282006,25.164 355.408995,25.2899987 356.403,25.542 C357.397005,25.7940013 358.215997,26.1019982 358.86,26.466 L358.86,24.534 C358.86,23.133993 358.419004,22.0770036 357.537,21.363 C356.654996,20.6489964 355.528007,20.292 354.156,20.292 C353.063995,20.292 352.105004,20.4669982 351.279,20.817 C350.452996,21.1670017 349.802002,21.6079973 349.326,22.14 L346.386,19.326 C347.142004,18.3739952 348.198993,17.5830031 349.557,16.953 C350.915007,16.3229968 352.517991,16.008 354.366,16.008 C357.446015,16.008 359.734993,16.7289928 361.233,18.171 C362.731007,19.6130072 363.48,21.5659877 363.48,24.03 L363.48,37.26 L358.86,37.26 L358.86,35.076 L358.776,35.076 C358.215997,35.8880041 357.446005,36.5389975 356.466,37.029 C355.485995,37.5190024 354.156008,37.764 352.476,37.764 Z M353.988,34.11 C355.416007,34.11 356.584995,33.7040041 357.495,32.892 C358.405005,32.0799959 358.86,31.0020067 358.86,29.658 L358.86,29.448 C358.271997,29.2239989 357.579004,29.0420007 356.781,28.902 C355.982996,28.7619993 355.094005,28.692 354.114,28.692 C352.825994,28.692 351.783004,28.9159978 350.985,29.364 C350.186996,29.8120022 349.788,30.4979954 349.788,31.422 C349.788,32.2620042 350.165996,32.9199976 350.922,33.396 C351.678004,33.8720024 352.699994,34.11 353.988,34.11 Z" id="data" fill="#FF5500"></path>
        </g>
    </g>
</svg>