<?xml version="1.0" encoding="UTF-8"?>
<svg width="724px" height="192px" viewBox="0 0 724 192" version="1.1" xmlns="http://www.w3.org/2000/svg" xmlns:xlink="http://www.w3.org/1999/xlink">
    <!-- Generator: Sketch 54.1 (76490) - https://sketchapp.com -->
    <title>Jehebtmaarliefstkeereenkeuzegemaaktwaarbijjebentgeholpendoordeinterface. 2</title>
    <desc>Created with Sketch.</desc>
    <g id="Page-1" stroke="none" stroke-width="1" fill="none" fill-rule="evenodd">
        <g id="Jehebtmaarliefstkeereenkeuzegemaaktwaarbijjebentgeholpendoordeinterface.-2" fill="#FFFFFF" fill-rule="nonzero">
            <path d="M7.245,32.13 C5.6249919,32.13 4.1850063,31.830003 2.925,31.23 C1.6649937,30.629997 0.69000345,29.9400039 0,29.16 L2.745,26.46 C3.2850027,27.060003 3.95249603,27.5249984 4.7475,27.855 C5.54250398,28.1850017 6.37499565,28.35 7.245,28.35 C8.9850087,28.35 10.3274953,27.8625049 11.2725,26.8875 C12.2175047,25.9124951 12.69,24.525009 12.69,22.725 L12.69,2.34 L16.92,2.34 L16.92,22.905 C16.92,24.3450072 16.6875023,25.6424942 16.2225,26.7975 C15.7574977,27.9525058 15.1050042,28.9199961 14.265,29.7 C13.4249958,30.4800039 12.4125059,31.0799979 11.2275,31.5 C10.0424941,31.9200021 8.71500735,32.13 7.245,32.13 Z M32.805,32.13 C31.1549918,32.13 29.6475068,31.8450028 28.2825,31.275 C26.9174932,30.7049971 25.7475049,29.9100051 24.7725,28.89 C23.7974951,27.8699949 23.0400027,26.6475071 22.5,25.2225 C21.9599973,23.7974929 21.69,22.2150087 21.69,20.475 C21.69,18.7649915 21.9524974,17.1900072 22.4775,15.75 C23.0025026,14.3099928 23.7524951,13.0800051 24.7275,12.06 C25.7025049,11.0399949 26.8574933,10.2450028 28.1925,9.675 C29.5275067,9.10499715 31.0049919,8.82 32.625,8.82 C34.2450081,8.82 35.7374932,9.09749722 37.1025,9.6525 C38.4675068,10.2075028 39.6299952,10.987495 40.59,11.9925 C41.5500048,12.997505 42.2999973,14.2124929 42.84,15.6375 C43.3800027,17.0625071 43.65,18.6299914 43.65,20.34 C43.65,20.6100013 43.6425001,20.8724987 43.6275,21.1275 C43.6124999,21.3825013 43.5900002,21.6149989 43.56,21.825 L25.74,21.825 C25.8000003,22.7850048 26.0249981,23.6774959 26.415,24.5025 C26.805002,25.3275041 27.3224968,26.0324971 27.9675,26.6175 C28.6125032,27.2025029 29.3549958,27.6599983 30.195,27.99 C31.0350042,28.3200016 31.9199954,28.485 32.85,28.485 C34.4700081,28.485 35.8424944,28.2000028 36.9675,27.63 C38.0925056,27.0599971 39.0299963,26.3550042 39.78,25.515 L42.3,27.99 C40.2299896,30.7500138 37.0650213,32.13 32.805,32.13 Z M32.625,12.33 C31.6049949,12.33 30.6900041,12.4949983 29.88,12.825 C29.069996,13.1550016 28.3800028,13.6049971 27.81,14.175 C27.2399972,14.7450028 26.7825017,15.3899964 26.4375,16.11 C26.0924983,16.8300036 25.8900003,17.5949959 25.83,18.405 L39.51,18.405 C39.4199996,17.5949959 39.2025017,16.8300036 38.8575,16.11 C38.5124983,15.3899964 38.0475029,14.7450028 37.4625,14.175 C36.8774971,13.6049971 36.1725041,13.1550016 35.3475,12.825 C34.5224959,12.4949983 33.615005,12.33 32.625,12.33 Z M59.85,0.54 L63.81,0.54 L63.81,11.97 L63.9,11.97 C64.4700029,11.0699955 65.3099944,10.320003 66.42,9.72 C67.5300056,9.119997 68.8799921,8.82 70.47,8.82 C73.2900141,8.82 75.4874921,9.6299919 77.0625,11.25 C78.6375079,12.8700081 79.425,15.179985 79.425,18.18 L79.425,31.59 L75.465,31.59 L75.465,18.99 C75.465,16.8599893 74.9775049,15.2025059 74.0025,14.0175 C73.0274951,12.8324941 71.5950095,12.24 69.705,12.24 C67.8749909,12.24 66.4350053,12.8324941 65.385,14.0175 C64.3349948,15.2025059 63.81,16.8599893 63.81,18.99 L63.81,31.59 L59.85,31.59 L59.85,0.54 Z M94.77,32.13 C93.1199918,32.13 91.6125068,31.8450028 90.2475,31.275 C88.8824932,30.7049971 87.7125049,29.9100051 86.7375,28.89 C85.7624951,27.8699949 85.0050027,26.6475071 84.465,25.2225 C83.9249973,23.7974929 83.655,22.2150087 83.655,20.475 C83.655,18.7649915 83.9174974,17.1900072 84.4425,15.75 C84.9675026,14.3099928 85.7174951,13.0800051 86.6925,12.06 C87.6675049,11.0399949 88.8224933,10.2450028 90.1575,9.675 C91.4925067,9.10499715 92.9699919,8.82 94.59,8.82 C96.2100081,8.82 97.7024932,9.09749722 99.0675,9.6525 C100.432507,10.2075028 101.594995,10.987495 102.555,11.9925 C103.515005,12.997505 104.264997,14.2124929 104.805,15.6375 C105.345003,17.0625071 105.615,18.6299914 105.615,20.34 C105.615,20.6100013 105.6075,20.8724987 105.5925,21.1275 C105.5775,21.3825013 105.555,21.6149989 105.525,21.825 L87.705,21.825 C87.7650003,22.7850048 87.9899981,23.6774959 88.38,24.5025 C88.770002,25.3275041 89.2874968,26.0324971 89.9325,26.6175 C90.5775032,27.2025029 91.3199958,27.6599983 92.16,27.99 C93.0000042,28.3200016 93.8849954,28.485 94.815,28.485 C96.4350081,28.485 97.8074944,28.2000028 98.9325,27.63 C100.057506,27.0599971 100.994996,26.3550042 101.745,25.515 L104.265,27.99 C102.19499,30.7500138 99.0300213,32.13 94.77,32.13 Z M94.59,12.33 C93.5699949,12.33 92.6550041,12.4949983 91.845,12.825 C91.034996,13.1550016 90.3450029,13.6049971 89.775,14.175 C89.2049972,14.7450028 88.7475017,15.3899964 88.4025,16.11 C88.0574983,16.8300036 87.8550003,17.5949959 87.795,18.405 L101.475,18.405 C101.385,17.5949959 101.167502,16.8300036 100.8225,16.11 C100.477498,15.3899964 100.012503,14.7450028 99.4275,14.175 C98.8424971,13.6049971 98.1375041,13.1550016 97.3125,12.825 C96.4874959,12.4949983 95.580005,12.33 94.59,12.33 Z M122.31,32.13 C120.419991,32.13 118.770007,31.732504 117.36,30.9375 C115.949993,30.142496 114.945003,29.1750057 114.345,28.035 L114.255,28.035 L114.255,31.59 L110.475,31.59 L110.475,0.54 L114.435,0.54 L114.435,12.69 L114.525,12.69 C115.125003,11.6399947 116.084993,10.7325038 117.405,9.9675 C118.725007,9.20249617 120.37499,8.82 122.355,8.82 C124.095009,8.82 125.662493,9.13499685 127.0575,9.765 C128.452507,10.3950031 129.622495,11.2499946 130.5675,12.33 C131.512505,13.4100054 132.239997,14.647493 132.75,16.0425 C133.260003,17.437507 133.515,18.8999923 133.515,20.43 C133.515,21.9600076 133.267502,23.429993 132.7725,24.84 C132.277498,26.250007 131.550005,27.4949946 130.59,28.575 C129.629995,29.6550054 128.460007,30.5174968 127.08,31.1625 C125.699993,31.8075032 124.110009,32.13 122.31,32.13 Z M121.905,28.53 C122.955005,28.53 123.944995,28.3350019 124.875,27.945 C125.805005,27.554998 126.607497,27.0075035 127.2825,26.3025 C127.957503,25.5974965 128.489998,24.7500049 128.88,23.76 C129.270002,22.769995 129.465,21.6900058 129.465,20.52 C129.465,19.3499941 129.270002,18.2700049 128.88,17.28 C128.489998,16.2899951 127.957503,15.4425035 127.2825,14.7375 C126.607497,14.0324965 125.805005,13.4850019 124.875,13.095 C123.944995,12.704998 122.955005,12.51 121.905,12.51 C120.854995,12.51 119.880005,12.704998 118.98,13.095 C118.079995,13.4850019 117.292503,14.0324965 116.6175,14.7375 C115.942497,15.4425035 115.410002,16.2824951 115.02,17.2575 C114.629998,18.2325049 114.435,19.319994 114.435,20.52 C114.435,21.720006 114.629998,22.8074951 115.02,23.7825 C115.410002,24.7575049 115.942497,25.5974965 116.6175,26.3025 C117.292503,27.0075035 118.079995,27.554998 118.98,27.945 C119.880005,28.3350019 120.854995,28.53 121.905,28.53 Z M145.8,32.13 C143.609989,32.13 142.012505,31.5000063 141.0075,30.24 C140.002495,28.9799937 139.5,27.2100114 139.5,24.93 L139.5,12.87 L136.125,12.87 L136.125,9.36 L139.5,9.36 L139.5,3.33 L143.46,3.33 L143.46,9.36 L150.795,9.36 L150.795,12.87 L143.46,12.87 L143.46,24.66 C143.46,26.070007 143.737497,27.0449973 144.2925,27.585 C144.847503,28.1250027 145.589995,28.395 146.52,28.395 C147.240004,28.395 147.884997,28.2675013 148.455,28.0125 C149.025003,27.7574987 149.489998,27.4200021 149.85,27 L151.2,30.33 C150.719998,30.8400026 150.015005,31.2674983 149.085,31.6125 C148.154995,31.9575017 147.060006,32.13 145.8,32.13 Z M166.995,9.36 L170.775,9.36 L170.775,12.15 L170.865,12.15 C171.405003,11.1899952 172.259994,10.3950031 173.43,9.765 C174.600006,9.13499685 175.995,8.82 177.615,8.82 C179.415009,8.82 180.929994,9.16499655 182.16,9.855 C183.390006,10.5450034 184.349997,11.5349935 185.04,12.825 C185.820004,11.5049934 186.907493,10.5075034 188.3025,9.8325 C189.697507,9.15749662 191.339991,8.82 193.23,8.82 C196.050014,8.82 198.247492,9.6299919 199.8225,11.25 C201.397508,12.8700081 202.185,15.179985 202.185,18.18 L202.185,31.59 L198.225,31.59 L198.225,18.99 C198.225,16.8599893 197.737505,15.2025059 196.7625,14.0175 C195.787495,12.8324941 194.355009,12.24 192.465,12.24 C190.634991,12.24 189.195005,12.8324941 188.145,14.0175 C187.094995,15.2025059 186.57,16.8599893 186.57,18.99 L186.57,31.59 L182.61,31.59 L182.61,18.99 C182.61,16.8599893 182.122505,15.2025059 181.1475,14.0175 C180.172495,12.8324941 178.740009,12.24 176.85,12.24 C175.019991,12.24 173.580005,12.8324941 172.53,14.0175 C171.479995,15.2025059 170.955,16.8599893 170.955,18.99 L170.955,31.59 L166.995,31.59 L166.995,9.36 Z M214.425,32.13 C213.284994,32.13 212.220005,31.9800015 211.23,31.68 C210.239995,31.3799985 209.385004,30.9450028 208.665,30.375 C207.944996,29.8049971 207.375002,29.1000042 206.955,28.26 C206.534998,27.4199958 206.325,26.4750052 206.325,25.425 C206.325,24.4049949 206.534998,23.4825041 206.955,22.6575 C207.375002,21.8324959 207.952496,21.1275029 208.6875,20.5425 C209.422504,19.9574971 210.307495,19.5150015 211.3425,19.215 C212.377505,18.9149985 213.524994,18.765 214.785,18.765 C216.255007,18.765 217.529995,18.9299984 218.61,19.26 C219.690005,19.5900016 220.574997,19.9649979 221.265,20.385 L221.265,17.37 C221.265,15.8099922 220.762505,14.6025043 219.7575,13.7475 C218.752495,12.8924957 217.440008,12.465 215.82,12.465 C214.499993,12.465 213.397504,12.6824978 212.5125,13.1175 C211.627496,13.5525022 210.930003,14.0549971 210.42,14.625 L207.9,12.24 C208.710004,11.2799952 209.797493,10.4700033 211.1625,9.81 C212.527507,9.1499967 214.154991,8.82 216.045,8.82 C218.985015,8.82 221.249992,9.5399928 222.84,10.98 C224.430008,12.4200072 225.225,14.4149872 225.225,16.965 L225.225,31.59 L221.265,31.59 L221.265,29.07 L221.175,29.07 C220.574997,29.9400043 219.757505,30.6674971 218.7225,31.2525 C217.687495,31.8375029 216.255009,32.13 214.425,32.13 Z M215.37,28.755 C216.210004,28.755 216.997496,28.6275013 217.7325,28.3725 C218.467504,28.1174987 219.089997,27.7500024 219.6,27.27 C220.110003,26.7899976 220.514999,26.2275032 220.815,25.5825 C221.115002,24.9374968 221.265,24.2250039 221.265,23.445 L221.265,23.085 C220.604997,22.8149987 219.780005,22.5675011 218.79,22.3425 C217.799995,22.1174989 216.705006,22.005 215.505,22.005 C214.064993,22.005 212.850005,22.2824972 211.86,22.8375 C210.869995,23.3925028 210.375,24.2399943 210.375,25.38 C210.375,26.4300053 210.817496,27.254997 211.7025,27.855 C212.587504,28.455003 213.809992,28.755 215.37,28.755 Z M237.465,32.13 C236.324994,32.13 235.260005,31.9800015 234.27,31.68 C233.279995,31.3799985 232.425004,30.9450028 231.705,30.375 C230.984996,29.8049971 230.415002,29.1000042 229.995,28.26 C229.574998,27.4199958 229.365,26.4750052 229.365,25.425 C229.365,24.4049949 229.574998,23.4825041 229.995,22.6575 C230.415002,21.8324959 230.992496,21.1275029 231.7275,20.5425 C232.462504,19.9574971 233.347495,19.5150015 234.3825,19.215 C235.417505,18.9149985 236.564994,18.765 237.825,18.765 C239.295007,18.765 240.569995,18.9299984 241.65,19.26 C242.730005,19.5900016 243.614997,19.9649979 244.305,20.385 L244.305,17.37 C244.305,15.8099922 243.802505,14.6025043 242.7975,13.7475 C241.792495,12.8924957 240.480008,12.465 238.86,12.465 C237.539993,12.465 236.437504,12.6824978 235.5525,13.1175 C234.667496,13.5525022 233.970003,14.0549971 233.46,14.625 L230.94,12.24 C231.750004,11.2799952 232.837493,10.4700033 234.2025,9.81 C235.567507,9.1499967 237.194991,8.82 239.085,8.82 C242.025015,8.82 244.289992,9.5399928 245.88,10.98 C247.470008,12.4200072 248.265,14.4149872 248.265,16.965 L248.265,31.59 L244.305,31.59 L244.305,29.07 L244.215,29.07 C243.614997,29.9400043 242.797505,30.6674971 241.7625,31.2525 C240.727495,31.8375029 239.295009,32.13 237.465,32.13 Z M238.41,28.755 C239.250004,28.755 240.037496,28.6275013 240.7725,28.3725 C241.507504,28.1174987 242.129997,27.7500024 242.64,27.27 C243.150003,26.7899976 243.554999,26.2275032 243.855,25.5825 C244.155002,24.9374968 244.305,24.2250039 244.305,23.445 L244.305,23.085 C243.644997,22.8149987 242.820005,22.5675011 241.83,22.3425 C240.839995,22.1174989 239.745006,22.005 238.545,22.005 C237.104993,22.005 235.890005,22.2824972 234.9,22.8375 C233.909995,23.3925028 233.415,24.2399943 233.415,25.38 C233.415,26.4300053 233.857496,27.254997 234.7425,27.855 C235.627504,28.455003 236.849992,28.755 238.41,28.755 Z M254.295,9.36 L258.075,9.36 L258.075,12.78 L258.12,12.78 C258.540002,11.6999946 259.304994,10.7700039 260.415,9.99 C261.525006,9.2099961 262.799993,8.82 264.24,8.82 C265.530006,8.82 266.684995,9.0299979 267.705,9.45 L266.13,13.32 C265.349996,12.929998 264.450005,12.735 263.43,12.735 C261.839992,12.735 260.580005,13.3049943 259.65,14.445 C258.719995,15.5850057 258.255,17.054991 258.255,18.855 L258.255,31.59 L254.295,31.59 L254.295,9.36 Z M271.125,0.54 L275.085,0.54 L275.085,31.59 L271.125,31.59 L271.125,0.54 Z M283.725,6.21 C282.944996,6.21 282.330002,5.9700024 281.88,5.49 C281.429998,5.0099976 281.205,4.4400033 281.205,3.78 C281.205,3.1199967 281.429998,2.54250247 281.88,2.0475 C282.330002,1.55249752 282.944996,1.305 283.725,1.305 C284.505004,1.305 285.119998,1.55249752 285.57,2.0475 C286.020002,2.54250247 286.245,3.1199967 286.245,3.78 C286.245,4.4400033 286.020002,5.0099976 285.57,5.49 C285.119998,5.9700024 284.505004,6.21 283.725,6.21 Z M281.745,9.36 L285.705,9.36 L285.705,31.59 L281.745,31.59 L281.745,9.36 Z M301.68,32.13 C300.029992,32.13 298.522507,31.8450028 297.1575,31.275 C295.792493,30.7049971 294.622505,29.9100051 293.6475,28.89 C292.672495,27.8699949 291.915003,26.6475071 291.375,25.2225 C290.834997,23.7974929 290.565,22.2150087 290.565,20.475 C290.565,18.7649915 290.827497,17.1900072 291.3525,15.75 C291.877503,14.3099928 292.627495,13.0800051 293.6025,12.06 C294.577505,11.0399949 295.732493,10.2450028 297.0675,9.675 C298.402507,9.10499715 299.879992,8.82 301.5,8.82 C303.120008,8.82 304.612493,9.09749722 305.9775,9.6525 C307.342507,10.2075028 308.504995,10.987495 309.465,11.9925 C310.425005,12.997505 311.174997,14.2124929 311.715,15.6375 C312.255003,17.0625071 312.525,18.6299914 312.525,20.34 C312.525,20.6100013 312.5175,20.8724987 312.5025,21.1275 C312.4875,21.3825013 312.465,21.6149989 312.435,21.825 L294.615,21.825 C294.675,22.7850048 294.899998,23.6774959 295.29,24.5025 C295.680002,25.3275041 296.197497,26.0324971 296.8425,26.6175 C297.487503,27.2025029 298.229996,27.6599983 299.07,27.99 C299.910004,28.3200016 300.794995,28.485 301.725,28.485 C303.345008,28.485 304.717494,28.2000028 305.8425,27.63 C306.967506,27.0599971 307.904996,26.3550042 308.655,25.515 L311.175,27.99 C309.10499,30.7500138 305.940021,32.13 301.68,32.13 Z M301.5,12.33 C300.479995,12.33 299.565004,12.4949983 298.755,12.825 C297.944996,13.1550016 297.255003,13.6049971 296.685,14.175 C296.114997,14.7450028 295.657502,15.3899964 295.3125,16.11 C294.967498,16.8300036 294.765,17.5949959 294.705,18.405 L308.385,18.405 C308.295,17.5949959 308.077502,16.8300036 307.7325,16.11 C307.387498,15.3899964 306.922503,14.7450028 306.3375,14.175 C305.752497,13.6049971 305.047504,13.1550016 304.2225,12.825 C303.397496,12.4949983 302.490005,12.33 301.5,12.33 Z M318.51,12.87 L315.135,12.87 L315.135,9.36 L318.51,9.36 L318.51,7.2 C318.51,5.06998935 319.139994,3.33750667 320.4,2.0025 C321.660006,0.667493325 323.459988,0 325.8,0 C327.030006,0 328.109995,0.2099979 329.04,0.63 C329.970005,1.0500021 330.734997,1.57499685 331.335,2.205 L328.905,4.635 C328.574998,4.2749982 328.125003,3.99750097 327.555,3.8025 C326.984997,3.60749902 326.445003,3.51 325.935,3.51 C324.944995,3.51 324.120003,3.8399967 323.46,4.5 C322.799997,5.1600033 322.47,6.089994 322.47,7.29 L322.47,9.36 L328.86,9.36 L328.86,12.87 L322.47,12.87 L322.47,31.59 L318.51,31.59 L318.51,12.87 Z M339.075,32.13 C336.974989,32.13 335.205007,31.8000033 333.765,31.14 C332.324993,30.4799967 331.170004,29.6250052 330.3,28.575 L332.91,26.01 C333.630004,26.7900039 334.484995,27.4124977 335.475,27.8775 C336.465005,28.3425023 337.709992,28.575 339.21,28.575 C340.530007,28.575 341.669995,28.3500022 342.63,27.9 C343.590005,27.4499977 344.07,26.7000053 344.07,25.65 C344.07,25.0799971 343.912502,24.592502 343.5975,24.1875 C343.282498,23.782498 342.862503,23.4450013 342.3375,23.175 C341.812497,22.9049986 341.190004,22.672501 340.47,22.4775 C339.749996,22.282499 338.985004,22.080001 338.175,21.87 C337.274995,21.6599989 336.405004,21.3900016 335.565,21.06 C334.724996,20.7299983 333.990003,20.3100026 333.36,19.8 C332.729997,19.2899974 332.220002,18.6825035 331.83,17.9775 C331.439998,17.2724965 331.245,16.4250049 331.245,15.435 C331.245,14.3549946 331.462498,13.4025041 331.8975,12.5775 C332.332502,11.7524959 332.932496,11.0625028 333.6975,10.5075 C334.462504,9.95249722 335.354995,9.53250142 336.375,9.2475 C337.395005,8.96249857 338.489994,8.82 339.66,8.82 C341.400009,8.82 342.989993,9.12749692 344.43,9.7425 C345.870007,10.3575031 347.054995,11.2349943 347.985,12.375 L345.42,14.895 C344.729997,14.1749964 343.905005,13.5750024 342.945,13.095 C341.984995,12.6149976 340.860006,12.375 339.57,12.375 C339.029997,12.375 338.497503,12.4274995 337.9725,12.5325 C337.447497,12.6375005 336.982502,12.8024989 336.5775,13.0275 C336.172498,13.2525011 335.850001,13.5449982 335.61,13.905 C335.369999,14.2650018 335.25,14.6849976 335.25,15.165 C335.25,15.7350029 335.399999,16.2074981 335.7,16.5825 C336.000001,16.9575019 336.419997,17.2874986 336.96,17.5725 C337.500003,17.8575014 338.129996,18.097499 338.85,18.2925 C339.570004,18.487501 340.334996,18.689999 341.145,18.9 C342.015004,19.110001 342.862496,19.3724984 343.6875,19.6875 C344.512504,20.0025016 345.254997,20.4149974 345.915,20.925 C346.575003,21.4350026 347.099998,22.0499964 347.49,22.77 C347.880002,23.4900036 348.075,24.3599949 348.075,25.38 C348.075,26.5500058 347.835002,27.5549958 347.355,28.395 C346.874998,29.2350042 346.222504,29.9324972 345.3975,30.4875 C344.572496,31.0425028 343.612505,31.4549986 342.5175,31.725 C341.422495,31.9950013 340.275006,32.13 339.075,32.13 Z M360.63,32.13 C358.439989,32.13 356.842505,31.5000063 355.8375,30.24 C354.832495,28.9799937 354.33,27.2100114 354.33,24.93 L354.33,12.87 L350.955,12.87 L350.955,9.36 L354.33,9.36 L354.33,3.33 L358.29,3.33 L358.29,9.36 L365.625,9.36 L365.625,12.87 L358.29,12.87 L358.29,24.66 C358.29,26.070007 358.567497,27.0449973 359.1225,27.585 C359.677503,28.1250027 360.419995,28.395 361.35,28.395 C362.070004,28.395 362.714997,28.2675013 363.285,28.0125 C363.855003,27.7574987 364.319998,27.4200021 364.68,27 L366.03,30.33 C365.549998,30.8400026 364.845005,31.2674983 363.915,31.6125 C362.984995,31.9575017 361.890006,32.13 360.63,32.13 Z M551.925,0.54 L555.885,0.54 L555.885,25.83 L555.975,25.83 L567.585,9.36 L572.22,9.36 L564.39,20.205 L572.58,31.59 L567.72,31.59 L561.915,23.355 L555.975,31.59 L551.925,31.59 L551.925,0.54 Z M585.315,32.13 C583.664992,32.13 582.157507,31.8450028 580.7925,31.275 C579.427493,30.7049971 578.257505,29.9100051 577.2825,28.89 C576.307495,27.8699949 575.550003,26.6475071 575.01,25.2225 C574.469997,23.7974929 574.2,22.2150087 574.2,20.475 C574.2,18.7649915 574.462497,17.1900072 574.9875,15.75 C575.512503,14.3099928 576.262495,13.0800051 577.2375,12.06 C578.212505,11.0399949 579.367493,10.2450028 580.7025,9.675 C582.037507,9.10499715 583.514992,8.82 585.135,8.82 C586.755008,8.82 588.247493,9.09749722 589.6125,9.6525 C590.977507,10.2075028 592.139995,10.987495 593.1,11.9925 C594.060005,12.997505 594.809997,14.2124929 595.35,15.6375 C595.890003,17.0625071 596.16,18.6299914 596.16,20.34 C596.16,20.6100013 596.1525,20.8724987 596.1375,21.1275 C596.1225,21.3825013 596.1,21.6149989 596.07,21.825 L578.25,21.825 C578.31,22.7850048 578.534998,23.6774959 578.925,24.5025 C579.315002,25.3275041 579.832497,26.0324971 580.4775,26.6175 C581.122503,27.2025029 581.864996,27.6599983 582.705,27.99 C583.545004,28.3200016 584.429995,28.485 585.36,28.485 C586.980008,28.485 588.352494,28.2000028 589.4775,27.63 C590.602506,27.0599971 591.539996,26.3550042 592.29,25.515 L594.81,27.99 C592.73999,30.7500138 589.575021,32.13 585.315,32.13 Z M585.135,12.33 C584.114995,12.33 583.200004,12.4949983 582.39,12.825 C581.579996,13.1550016 580.890003,13.6049971 580.32,14.175 C579.749997,14.7450028 579.292502,15.3899964 578.9475,16.11 C578.602498,16.8300036 578.4,17.5949959 578.34,18.405 L592.02,18.405 C591.93,17.5949959 591.712502,16.8300036 591.3675,16.11 C591.022498,15.3899964 590.557503,14.7450028 589.9725,14.175 C589.387497,13.6049971 588.682504,13.1550016 587.8575,12.825 C587.032496,12.4949983 586.125005,12.33 585.135,12.33 Z M610.335,32.13 C608.684992,32.13 607.177507,31.8450028 605.8125,31.275 C604.447493,30.7049971 603.277505,29.9100051 602.3025,28.89 C601.327495,27.8699949 600.570003,26.6475071 600.03,25.2225 C599.489997,23.7974929 599.22,22.2150087 599.22,20.475 C599.22,18.7649915 599.482497,17.1900072 600.0075,15.75 C600.532503,14.3099928 601.282495,13.0800051 602.2575,12.06 C603.232505,11.0399949 604.387493,10.2450028 605.7225,9.675 C607.057507,9.10499715 608.534992,8.82 610.155,8.82 C611.775008,8.82 613.267493,9.09749722 614.6325,9.6525 C615.997507,10.2075028 617.159995,10.987495 618.12,11.9925 C619.080005,12.997505 619.829997,14.2124929 620.37,15.6375 C620.910003,17.0625071 621.18,18.6299914 621.18,20.34 C621.18,20.6100013 621.1725,20.8724987 621.1575,21.1275 C621.1425,21.3825013 621.12,21.6149989 621.09,21.825 L603.27,21.825 C603.33,22.7850048 603.554998,23.6774959 603.945,24.5025 C604.335002,25.3275041 604.852497,26.0324971 605.4975,26.6175 C606.142503,27.2025029 606.884996,27.6599983 607.725,27.99 C608.565004,28.3200016 609.449995,28.485 610.38,28.485 C612.000008,28.485 613.372494,28.2000028 614.4975,27.63 C615.622506,27.0599971 616.559996,26.3550042 617.31,25.515 L619.83,27.99 C617.75999,30.7500138 614.595021,32.13 610.335,32.13 Z M610.155,12.33 C609.134995,12.33 608.220004,12.4949983 607.41,12.825 C606.599996,13.1550016 605.910003,13.6049971 605.34,14.175 C604.769997,14.7450028 604.312502,15.3899964 603.9675,16.11 C603.622498,16.8300036 603.42,17.5949959 603.36,18.405 L617.04,18.405 C616.95,17.5949959 616.732502,16.8300036 616.3875,16.11 C616.042498,15.3899964 615.577503,14.7450028 614.9925,14.175 C614.407497,13.6049971 613.702504,13.1550016 612.8775,12.825 C612.052496,12.4949983 611.145005,12.33 610.155,12.33 Z M626.04,9.36 L629.82,9.36 L629.82,12.78 L629.865,12.78 C630.285002,11.6999946 631.049994,10.7700039 632.16,9.99 C633.270006,9.2099961 634.544993,8.82 635.985,8.82 C637.275006,8.82 638.429995,9.0299979 639.45,9.45 L637.875,13.32 C637.094996,12.929998 636.195005,12.735 635.175,12.735 C633.584992,12.735 632.325005,13.3049943 631.395,14.445 C630.464995,15.5850057 630,17.054991 630,18.855 L630,31.59 L626.04,31.59 L626.04,9.36 Z M663.525,32.13 C661.874992,32.13 660.367507,31.8450028 659.0025,31.275 C657.637493,30.7049971 656.467505,29.9100051 655.4925,28.89 C654.517495,27.8699949 653.760003,26.6475071 653.22,25.2225 C652.679997,23.7974929 652.41,22.2150087 652.41,20.475 C652.41,18.7649915 652.672497,17.1900072 653.1975,15.75 C653.722503,14.3099928 654.472495,13.0800051 655.4475,12.06 C656.422505,11.0399949 657.577493,10.2450028 658.9125,9.675 C660.247507,9.10499715 661.724992,8.82 663.345,8.82 C664.965008,8.82 666.457493,9.09749722 667.8225,9.6525 C669.187507,10.2075028 670.349995,10.987495 671.31,11.9925 C672.270005,12.997505 673.019997,14.2124929 673.56,15.6375 C674.100003,17.0625071 674.37,18.6299914 674.37,20.34 C674.37,20.6100013 674.3625,20.8724987 674.3475,21.1275 C674.3325,21.3825013 674.31,21.6149989 674.28,21.825 L656.46,21.825 C656.52,22.7850048 656.744998,23.6774959 657.135,24.5025 C657.525002,25.3275041 658.042497,26.0324971 658.6875,26.6175 C659.332503,27.2025029 660.074996,27.6599983 660.915,27.99 C661.755004,28.3200016 662.639995,28.485 663.57,28.485 C665.190008,28.485 666.562494,28.2000028 667.6875,27.63 C668.812506,27.0599971 669.749996,26.3550042 670.5,25.515 L673.02,27.99 C670.94999,30.7500138 667.785021,32.13 663.525,32.13 Z M663.345,12.33 C662.324995,12.33 661.410004,12.4949983 660.6,12.825 C659.789996,13.1550016 659.100003,13.6049971 658.53,14.175 C657.959997,14.7450028 657.502502,15.3899964 657.1575,16.11 C656.812498,16.8300036 656.61,17.5949959 656.55,18.405 L670.23,18.405 C670.14,17.5949959 669.922502,16.8300036 669.5775,16.11 C669.232498,15.3899964 668.767503,14.7450028 668.1825,14.175 C667.597497,13.6049971 666.892504,13.1550016 666.0675,12.825 C665.242496,12.4949983 664.335005,12.33 663.345,12.33 Z M688.545,32.13 C686.894992,32.13 685.387507,31.8450028 684.0225,31.275 C682.657493,30.7049971 681.487505,29.9100051 680.5125,28.89 C679.537495,27.8699949 678.780003,26.6475071 678.24,25.2225 C677.699997,23.7974929 677.43,22.2150087 677.43,20.475 C677.43,18.7649915 677.692497,17.1900072 678.2175,15.75 C678.742503,14.3099928 679.492495,13.0800051 680.4675,12.06 C681.442505,11.0399949 682.597493,10.2450028 683.9325,9.675 C685.267507,9.10499715 686.744992,8.82 688.365,8.82 C689.985008,8.82 691.477493,9.09749722 692.8425,9.6525 C694.207507,10.2075028 695.369995,10.987495 696.33,11.9925 C697.290005,12.997505 698.039997,14.2124929 698.58,15.6375 C699.120003,17.0625071 699.39,18.6299914 699.39,20.34 C699.39,20.6100013 699.3825,20.8724987 699.3675,21.1275 C699.3525,21.3825013 699.33,21.6149989 699.3,21.825 L681.48,21.825 C681.54,22.7850048 681.764998,23.6774959 682.155,24.5025 C682.545002,25.3275041 683.062497,26.0324971 683.7075,26.6175 C684.352503,27.2025029 685.094996,27.6599983 685.935,27.99 C686.775004,28.3200016 687.659995,28.485 688.59,28.485 C690.210008,28.485 691.582494,28.2000028 692.7075,27.63 C693.832506,27.0599971 694.769996,26.3550042 695.52,25.515 L698.04,27.99 C695.96999,30.7500138 692.805021,32.13 688.545,32.13 Z M688.365,12.33 C687.344995,12.33 686.430004,12.4949983 685.62,12.825 C684.809996,13.1550016 684.120003,13.6049971 683.55,14.175 C682.979997,14.7450028 682.522502,15.3899964 682.1775,16.11 C681.832498,16.8300036 681.63,17.5949959 681.57,18.405 L695.25,18.405 C695.16,17.5949959 694.942502,16.8300036 694.5975,16.11 C694.252498,15.3899964 693.787503,14.7450028 693.2025,14.175 C692.617497,13.6049971 691.912504,13.1550016 691.0875,12.825 C690.262496,12.4949983 689.355005,12.33 688.365,12.33 Z M704.25,9.36 L708.03,9.36 L708.03,12.15 L708.12,12.15 C708.660003,11.1899952 709.514994,10.3950031 710.685,9.765 C711.855006,9.13499685 713.25,8.82 714.87,8.82 C717.690014,8.82 719.887492,9.6299919 721.4625,11.25 C723.037508,12.8700081 723.825,15.179985 723.825,18.18 L723.825,31.59 L719.865,31.59 L719.865,18.99 C719.865,16.8599893 719.377505,15.2025059 718.4025,14.0175 C717.427495,12.8324941 715.995009,12.24 714.105,12.24 C712.274991,12.24 710.835005,12.8324941 709.785,14.0175 C708.734995,15.2025059 708.21,16.8599893 708.21,18.99 L708.21,31.59 L704.25,31.59 L704.25,9.36 Z M2.79,91.54 L6.75,91.54 L6.75,116.83 L6.84,116.83 L18.45,100.36 L23.085,100.36 L15.255,111.205 L23.445,122.59 L18.585,122.59 L12.78,114.355 L6.84,122.59 L2.79,122.59 L2.79,91.54 Z M36.18,123.13 C34.5299918,123.13 33.0225068,122.845003 31.6575,122.275 C30.2924932,121.704997 29.1225049,120.910005 28.1475,119.89 C27.1724951,118.869995 26.4150027,117.647507 25.875,116.2225 C25.3349973,114.797493 25.065,113.215009 25.065,111.475 C25.065,109.764991 25.3274974,108.190007 25.8525,106.75 C26.3775026,105.309993 27.1274951,104.080005 28.1025,103.06 C29.0775049,102.039995 30.2324933,101.245003 31.5675,100.675 C32.9025067,100.104997 34.3799919,99.82 36,99.82 C37.6200081,99.82 39.1124932,100.097497 40.4775,100.6525 C41.8425068,101.207503 43.0049952,101.987495 43.965,102.9925 C44.9250048,103.997505 45.6749973,105.212493 46.215,106.6375 C46.7550027,108.062507 47.025,109.629991 47.025,111.34 C47.025,111.610001 47.0175001,111.872499 47.0025,112.1275 C46.9874999,112.382501 46.9650002,112.614999 46.935,112.825 L29.115,112.825 C29.1750003,113.785005 29.3999981,114.677496 29.79,115.5025 C30.180002,116.327504 30.6974968,117.032497 31.3425,117.6175 C31.9875032,118.202503 32.7299958,118.659998 33.57,118.99 C34.4100042,119.320002 35.2949954,119.485 36.225,119.485 C37.8450081,119.485 39.2174944,119.200003 40.3425,118.63 C41.4675056,118.059997 42.4049963,117.355004 43.155,116.515 L45.675,118.99 C43.6049896,121.750014 40.4400213,123.13 36.18,123.13 Z M36,103.33 C34.9799949,103.33 34.0650041,103.494998 33.255,103.825 C32.444996,104.155002 31.7550029,104.604997 31.185,105.175 C30.6149972,105.745003 30.1575017,106.389996 29.8125,107.11 C29.4674983,107.830004 29.2650003,108.594996 29.205,109.405 L42.885,109.405 C42.7949996,108.594996 42.5775017,107.830004 42.2325,107.11 C41.8874983,106.389996 41.4225029,105.745003 40.8375,105.175 C40.2524971,104.604997 39.5475041,104.155002 38.7225,103.825 C37.8974959,103.494998 36.990005,103.33 36,103.33 Z M60.075,123.13 C57.2549859,123.13 55.0800077,122.320008 53.55,120.7 C52.0199924,119.079992 51.255,116.770015 51.255,113.77 L51.255,100.36 L55.215,100.36 L55.215,112.96 C55.215,115.090011 55.6799954,116.739994 56.61,117.91 C57.5400047,119.080006 58.9499906,119.665 60.84,119.665 C62.6700092,119.665 64.087495,119.080006 65.0925,117.91 C66.097505,116.739994 66.6,115.090011 66.6,112.96 L66.6,100.36 L70.56,100.36 L70.56,122.59 L66.78,122.59 L66.78,119.8 L66.69,119.8 C66.1499973,120.760005 65.3175056,121.554997 64.1925,122.185 C63.0674944,122.815003 61.6950081,123.13 60.075,123.13 Z M75.42,119.53 L88.38,103.87 L75.78,103.87 L75.78,100.36 L93.6,100.36 L93.6,103.42 L80.595,119.08 L93.96,119.08 L93.96,122.59 L75.42,122.59 L75.42,119.53 Z M108.135,123.13 C106.484992,123.13 104.977507,122.845003 103.6125,122.275 C102.247493,121.704997 101.077505,120.910005 100.1025,119.89 C99.1274951,118.869995 98.3700027,117.647507 97.83,116.2225 C97.2899973,114.797493 97.02,113.215009 97.02,111.475 C97.02,109.764991 97.2824974,108.190007 97.8075,106.75 C98.3325026,105.309993 99.0824951,104.080005 100.0575,103.06 C101.032505,102.039995 102.187493,101.245003 103.5225,100.675 C104.857507,100.104997 106.334992,99.82 107.955,99.82 C109.575008,99.82 111.067493,100.097497 112.4325,100.6525 C113.797507,101.207503 114.959995,101.987495 115.92,102.9925 C116.880005,103.997505 117.629997,105.212493 118.17,106.6375 C118.710003,108.062507 118.98,109.629991 118.98,111.34 C118.98,111.610001 118.9725,111.872499 118.9575,112.1275 C118.9425,112.382501 118.92,112.614999 118.89,112.825 L101.07,112.825 C101.13,113.785005 101.354998,114.677496 101.745,115.5025 C102.135002,116.327504 102.652497,117.032497 103.2975,117.6175 C103.942503,118.202503 104.684996,118.659998 105.525,118.99 C106.365004,119.320002 107.249995,119.485 108.18,119.485 C109.800008,119.485 111.172494,119.200003 112.2975,118.63 C113.422506,118.059997 114.359996,117.355004 115.11,116.515 L117.63,118.99 C115.55999,121.750014 112.395021,123.13 108.135,123.13 Z M107.955,103.33 C106.934995,103.33 106.020004,103.494998 105.21,103.825 C104.399996,104.155002 103.710003,104.604997 103.14,105.175 C102.569997,105.745003 102.112502,106.389996 101.7675,107.11 C101.422498,107.830004 101.22,108.594996 101.16,109.405 L114.84,109.405 C114.75,108.594996 114.532502,107.830004 114.1875,107.11 C113.842498,106.389996 113.377503,105.745003 112.7925,105.175 C112.207497,104.604997 111.502504,104.155002 110.6775,103.825 C109.852496,103.494998 108.945005,103.33 107.955,103.33 Z M144.765,130.555 C142.72499,130.555 140.947508,130.217503 139.4325,129.5425 C137.917492,128.867497 136.710004,128.035005 135.81,127.045 L138.465,124.39 C139.155003,125.110004 140.024995,125.702498 141.075,126.1675 C142.125005,126.632502 143.294994,126.865 144.585,126.865 C146.62501,126.865 148.229994,126.355005 149.4,125.335 C150.570006,124.314995 151.155,122.680011 151.155,120.43 L151.155,118.045 L151.065,118.045 C150.494997,119.005005 149.595006,119.844996 148.365,120.565 C147.134994,121.285004 145.605009,121.645 143.775,121.645 C142.154992,121.645 140.700006,121.345003 139.41,120.745 C138.119994,120.144997 137.017505,119.342505 136.1025,118.3375 C135.187495,117.332495 134.490002,116.177507 134.01,114.8725 C133.529998,113.567493 133.29,112.195007 133.29,110.755 C133.29,109.314993 133.522498,107.935007 133.9875,106.615 C134.452502,105.294993 135.134996,104.132505 136.035,103.1275 C136.935004,102.122495 138.029994,101.320003 139.32,100.72 C140.610006,100.119997 142.079992,99.82 143.73,99.82 C145.530009,99.82 147.089993,100.187496 148.41,100.9225 C149.730007,101.657504 150.674997,102.564995 151.245,103.645 L151.335,103.645 L151.335,100.36 L155.115,100.36 L155.115,120.835 C155.115,122.245007 154.890002,123.542494 154.44,124.7275 C153.989998,125.912506 153.330004,126.932496 152.46,127.7875 C151.589996,128.642504 150.510006,129.317498 149.22,129.8125 C147.929994,130.307502 146.445008,130.555 144.765,130.555 Z M144.18,117.955 C145.110005,117.955 146.002496,117.790002 146.8575,117.46 C147.712504,117.129998 148.454997,116.650003 149.085,116.02 C149.715003,115.389997 150.217498,114.632504 150.5925,113.7475 C150.967502,112.862496 151.155,111.865006 151.155,110.755 C151.155,109.644994 150.967502,108.640004 150.5925,107.74 C150.217498,106.839995 149.715003,106.075003 149.085,105.445 C148.454997,104.814997 147.712504,104.335002 146.8575,104.005 C146.002496,103.674998 145.110005,103.51 144.18,103.51 C143.219995,103.51 142.320004,103.682498 141.48,104.0275 C140.639996,104.372502 139.912503,104.859997 139.2975,105.49 C138.682497,106.120003 138.202502,106.884995 137.8575,107.785 C137.512498,108.685004 137.34,109.674995 137.34,110.755 C137.34,111.835005 137.512498,112.817496 137.8575,113.7025 C138.202502,114.587504 138.682497,115.344997 139.2975,115.975 C139.912503,116.605003 140.639996,117.092498 141.48,117.4375 C142.320004,117.782502 143.219995,117.955 144.18,117.955 Z M171.09,123.13 C169.439992,123.13 167.932507,122.845003 166.5675,122.275 C165.202493,121.704997 164.032505,120.910005 163.0575,119.89 C162.082495,118.869995 161.325003,117.647507 160.785,116.2225 C160.244997,114.797493 159.975,113.215009 159.975,111.475 C159.975,109.764991 160.237497,108.190007 160.7625,106.75 C161.287503,105.309993 162.037495,104.080005 163.0125,103.06 C163.987505,102.039995 165.142493,101.245003 166.4775,100.675 C167.812507,100.104997 169.289992,99.82 170.91,99.82 C172.530008,99.82 174.022493,100.097497 175.3875,100.6525 C176.752507,101.207503 177.914995,101.987495 178.875,102.9925 C179.835005,103.997505 180.584997,105.212493 181.125,106.6375 C181.665003,108.062507 181.935,109.629991 181.935,111.34 C181.935,111.610001 181.9275,111.872499 181.9125,112.1275 C181.8975,112.382501 181.875,112.614999 181.845,112.825 L164.025,112.825 C164.085,113.785005 164.309998,114.677496 164.7,115.5025 C165.090002,116.327504 165.607497,117.032497 166.2525,117.6175 C166.897503,118.202503 167.639996,118.659998 168.48,118.99 C169.320004,119.320002 170.204995,119.485 171.135,119.485 C172.755008,119.485 174.127494,119.200003 175.2525,118.63 C176.377506,118.059997 177.314996,117.355004 178.065,116.515 L180.585,118.99 C178.51499,121.750014 175.350021,123.13 171.09,123.13 Z M170.91,103.33 C169.889995,103.33 168.975004,103.494998 168.165,103.825 C167.354996,104.155002 166.665003,104.604997 166.095,105.175 C165.524997,105.745003 165.067502,106.389996 164.7225,107.11 C164.377498,107.830004 164.175,108.594996 164.115,109.405 L177.795,109.405 C177.705,108.594996 177.487502,107.830004 177.1425,107.11 C176.797498,106.389996 176.332503,105.745003 175.7475,105.175 C175.162497,104.604997 174.457504,104.155002 173.6325,103.825 C172.807496,103.494998 171.900005,103.33 170.91,103.33 Z M186.795,100.36 L190.575,100.36 L190.575,103.15 L190.665,103.15 C191.205003,102.189995 192.059994,101.395003 193.23,100.765 C194.400006,100.134997 195.795,99.82 197.415,99.82 C199.215009,99.82 200.729994,100.164997 201.96,100.855 C203.190006,101.545003 204.149997,102.534994 204.84,103.825 C205.620004,102.504993 206.707493,101.507503 208.1025,100.8325 C209.497507,100.157497 211.139991,99.82 213.03,99.82 C215.850014,99.82 218.047492,100.629992 219.6225,102.25 C221.197508,103.870008 221.985,106.179985 221.985,109.18 L221.985,122.59 L218.025,122.59 L218.025,109.99 C218.025,107.859989 217.537505,106.202506 216.5625,105.0175 C215.587495,103.832494 214.155009,103.24 212.265,103.24 C210.434991,103.24 208.995005,103.832494 207.945,105.0175 C206.894995,106.202506 206.37,107.859989 206.37,109.99 L206.37,122.59 L202.41,122.59 L202.41,109.99 C202.41,107.859989 201.922505,106.202506 200.9475,105.0175 C199.972495,103.832494 198.540009,103.24 196.65,103.24 C194.819991,103.24 193.380005,103.832494 192.33,105.0175 C191.279995,106.202506 190.755,107.859989 190.755,109.99 L190.755,122.59 L186.795,122.59 L186.795,100.36 Z M234.225,123.13 C233.084994,123.13 232.020005,122.980001 231.03,122.68 C230.039995,122.379998 229.185004,121.945003 228.465,121.375 C227.744996,120.804997 227.175002,120.100004 226.755,119.26 C226.334998,118.419996 226.125,117.475005 226.125,116.425 C226.125,115.404995 226.334998,114.482504 226.755,113.6575 C227.175002,112.832496 227.752496,112.127503 228.4875,111.5425 C229.222504,110.957497 230.107495,110.515001 231.1425,110.215 C232.177505,109.914998 233.324994,109.765 234.585,109.765 C236.055007,109.765 237.329995,109.929998 238.41,110.26 C239.490005,110.590002 240.374997,110.964998 241.065,111.385 L241.065,108.37 C241.065,106.809992 240.562505,105.602504 239.5575,104.7475 C238.552495,103.892496 237.240008,103.465 235.62,103.465 C234.299993,103.465 233.197504,103.682498 232.3125,104.1175 C231.427496,104.552502 230.730003,105.054997 230.22,105.625 L227.7,103.24 C228.510004,102.279995 229.597493,101.470003 230.9625,100.81 C232.327507,100.149997 233.954991,99.82 235.845,99.82 C238.785015,99.82 241.049992,100.539993 242.64,101.98 C244.230008,103.420007 245.025,105.414987 245.025,107.965 L245.025,122.59 L241.065,122.59 L241.065,120.07 L240.975,120.07 C240.374997,120.940004 239.557505,121.667497 238.5225,122.2525 C237.487495,122.837503 236.055009,123.13 234.225,123.13 Z M235.17,119.755 C236.010004,119.755 236.797496,119.627501 237.5325,119.3725 C238.267504,119.117499 238.889997,118.750002 239.4,118.27 C239.910003,117.789998 240.314999,117.227503 240.615,116.5825 C240.915002,115.937497 241.065,115.225004 241.065,114.445 L241.065,114.085 C240.404997,113.814999 239.580005,113.567501 238.59,113.3425 C237.599995,113.117499 236.505006,113.005 235.305,113.005 C233.864993,113.005 232.650005,113.282497 231.66,113.8375 C230.669995,114.392503 230.175,115.239994 230.175,116.38 C230.175,117.430005 230.617496,118.254997 231.5025,118.855 C232.387504,119.455003 233.609992,119.755 235.17,119.755 Z M257.265,123.13 C256.124994,123.13 255.060005,122.980001 254.07,122.68 C253.079995,122.379998 252.225004,121.945003 251.505,121.375 C250.784996,120.804997 250.215002,120.100004 249.795,119.26 C249.374998,118.419996 249.165,117.475005 249.165,116.425 C249.165,115.404995 249.374998,114.482504 249.795,113.6575 C250.215002,112.832496 250.792496,112.127503 251.5275,111.5425 C252.262504,110.957497 253.147495,110.515001 254.1825,110.215 C255.217505,109.914998 256.364994,109.765 257.625,109.765 C259.095007,109.765 260.369995,109.929998 261.45,110.26 C262.530005,110.590002 263.414997,110.964998 264.105,111.385 L264.105,108.37 C264.105,106.809992 263.602505,105.602504 262.5975,104.7475 C261.592495,103.892496 260.280008,103.465 258.66,103.465 C257.339993,103.465 256.237504,103.682498 255.3525,104.1175 C254.467496,104.552502 253.770003,105.054997 253.26,105.625 L250.74,103.24 C251.550004,102.279995 252.637493,101.470003 254.0025,100.81 C255.367507,100.149997 256.994991,99.82 258.885,99.82 C261.825015,99.82 264.089992,100.539993 265.68,101.98 C267.270008,103.420007 268.065,105.414987 268.065,107.965 L268.065,122.59 L264.105,122.59 L264.105,120.07 L264.015,120.07 C263.414997,120.940004 262.597505,121.667497 261.5625,122.2525 C260.527495,122.837503 259.095009,123.13 257.265,123.13 Z M258.21,119.755 C259.050004,119.755 259.837496,119.627501 260.5725,119.3725 C261.307504,119.117499 261.929997,118.750002 262.44,118.27 C262.950003,117.789998 263.354999,117.227503 263.655,116.5825 C263.955002,115.937497 264.105,115.225004 264.105,114.445 L264.105,114.085 C263.444997,113.814999 262.620005,113.567501 261.63,113.3425 C260.639995,113.117499 259.545006,113.005 258.345,113.005 C256.904993,113.005 255.690005,113.282497 254.7,113.8375 C253.709995,114.392503 253.215,115.239994 253.215,116.38 C253.215,117.430005 253.657496,118.254997 254.5425,118.855 C255.427504,119.455003 256.649992,119.755 258.21,119.755 Z M274.095,91.54 L278.055,91.54 L278.055,116.83 L278.145,116.83 L289.755,100.36 L294.39,100.36 L286.56,111.205 L294.75,122.59 L289.89,122.59 L284.085,114.355 L278.145,122.59 L274.095,122.59 L274.095,91.54 Z M306.045,123.13 C303.854989,123.13 302.257505,122.500006 301.2525,121.24 C300.247495,119.979994 299.745,118.210011 299.745,115.93 L299.745,103.87 L296.37,103.87 L296.37,100.36 L299.745,100.36 L299.745,94.33 L303.705,94.33 L303.705,100.36 L311.04,100.36 L311.04,103.87 L303.705,103.87 L303.705,115.66 C303.705,117.070007 303.982497,118.044997 304.5375,118.585 C305.092503,119.125003 305.834995,119.395 306.765,119.395 C307.485004,119.395 308.129997,119.267501 308.7,119.0125 C309.270003,118.757499 309.734998,118.420002 310.095,118 L311.445,121.33 C310.964998,121.840003 310.260005,122.267498 309.33,122.6125 C308.399995,122.957502 307.305006,123.13 306.045,123.13 Z M324.765,100.36 L328.905,100.36 L334.53,117.505 L334.62,117.505 L339.345,100.36 L343.395,100.36 L348.12,117.505 L348.21,117.505 L353.835,100.36 L357.975,100.36 L350.415,122.59 L346.05,122.59 L341.37,107.065 L336.69,122.59 L332.325,122.59 L324.765,100.36 Z M368.37,123.13 C367.229994,123.13 366.165005,122.980001 365.175,122.68 C364.184995,122.379998 363.330004,121.945003 362.61,121.375 C361.889996,120.804997 361.320002,120.100004 360.9,119.26 C360.479998,118.419996 360.27,117.475005 360.27,116.425 C360.27,115.404995 360.479998,114.482504 360.9,113.6575 C361.320002,112.832496 361.897496,112.127503 362.6325,111.5425 C363.367504,110.957497 364.252495,110.515001 365.2875,110.215 C366.322505,109.914998 367.469994,109.765 368.73,109.765 C370.200007,109.765 371.474995,109.929998 372.555,110.26 C373.635005,110.590002 374.519997,110.964998 375.21,111.385 L375.21,108.37 C375.21,106.809992 374.707505,105.602504 373.7025,104.7475 C372.697495,103.892496 371.385008,103.465 369.765,103.465 C368.444993,103.465 367.342504,103.682498 366.4575,104.1175 C365.572496,104.552502 364.875003,105.054997 364.365,105.625 L361.845,103.24 C362.655004,102.279995 363.742493,101.470003 365.1075,100.81 C366.472507,100.149997 368.099991,99.82 369.99,99.82 C372.930015,99.82 375.194992,100.539993 376.785,101.98 C378.375008,103.420007 379.17,105.414987 379.17,107.965 L379.17,122.59 L375.21,122.59 L375.21,120.07 L375.12,120.07 C374.519997,120.940004 373.702505,121.667497 372.6675,122.2525 C371.632495,122.837503 370.200009,123.13 368.37,123.13 Z M369.315,119.755 C370.155004,119.755 370.942496,119.627501 371.6775,119.3725 C372.412504,119.117499 373.034997,118.750002 373.545,118.27 C374.055003,117.789998 374.459999,117.227503 374.76,116.5825 C375.060002,115.937497 375.21,115.225004 375.21,114.445 L375.21,114.085 C374.549997,113.814999 373.725005,113.567501 372.735,113.3425 C371.744995,113.117499 370.650006,113.005 369.45,113.005 C368.009993,113.005 366.795005,113.282497 365.805,113.8375 C364.814995,114.392503 364.32,115.239994 364.32,116.38 C364.32,117.430005 364.762496,118.254997 365.6475,118.855 C366.532504,119.455003 367.754992,119.755 369.315,119.755 Z M391.41,123.13 C390.269994,123.13 389.205005,122.980001 388.215,122.68 C387.224995,122.379998 386.370004,121.945003 385.65,121.375 C384.929996,120.804997 384.360002,120.100004 383.94,119.26 C383.519998,118.419996 383.31,117.475005 383.31,116.425 C383.31,115.404995 383.519998,114.482504 383.94,113.6575 C384.360002,112.832496 384.937496,112.127503 385.6725,111.5425 C386.407504,110.957497 387.292495,110.515001 388.3275,110.215 C389.362505,109.914998 390.509994,109.765 391.77,109.765 C393.240007,109.765 394.514995,109.929998 395.595,110.26 C396.675005,110.590002 397.559997,110.964998 398.25,111.385 L398.25,108.37 C398.25,106.809992 397.747505,105.602504 396.7425,104.7475 C395.737495,103.892496 394.425008,103.465 392.805,103.465 C391.484993,103.465 390.382504,103.682498 389.4975,104.1175 C388.612496,104.552502 387.915003,105.054997 387.405,105.625 L384.885,103.24 C385.695004,102.279995 386.782493,101.470003 388.1475,100.81 C389.512507,100.149997 391.139991,99.82 393.03,99.82 C395.970015,99.82 398.234992,100.539993 399.825,101.98 C401.415008,103.420007 402.21,105.414987 402.21,107.965 L402.21,122.59 L398.25,122.59 L398.25,120.07 L398.16,120.07 C397.559997,120.940004 396.742505,121.667497 395.7075,122.2525 C394.672495,122.837503 393.240009,123.13 391.41,123.13 Z M392.355,119.755 C393.195004,119.755 393.982496,119.627501 394.7175,119.3725 C395.452504,119.117499 396.074997,118.750002 396.585,118.27 C397.095003,117.789998 397.499999,117.227503 397.8,116.5825 C398.100002,115.937497 398.25,115.225004 398.25,114.445 L398.25,114.085 C397.589997,113.814999 396.765005,113.567501 395.775,113.3425 C394.784995,113.117499 393.690006,113.005 392.49,113.005 C391.049993,113.005 389.835005,113.282497 388.845,113.8375 C387.854995,114.392503 387.36,115.239994 387.36,116.38 C387.36,117.430005 387.802496,118.254997 388.6875,118.855 C389.572504,119.455003 390.794992,119.755 392.355,119.755 Z M408.24,100.36 L412.02,100.36 L412.02,103.78 L412.065,103.78 C412.485002,102.699995 413.249994,101.770004 414.36,100.99 C415.470006,100.209996 416.744993,99.82 418.185,99.82 C419.475006,99.82 420.629995,100.029998 421.65,100.45 L420.075,104.32 C419.294996,103.929998 418.395005,103.735 417.375,103.735 C415.784992,103.735 414.525005,104.304994 413.595,105.445 C412.664995,106.585006 412.2,108.054991 412.2,109.855 L412.2,122.59 L408.24,122.59 L408.24,100.36 Z M436.905,123.13 C435.014991,123.13 433.365007,122.732504 431.955,121.9375 C430.544993,121.142496 429.540003,120.175006 428.94,119.035 L428.85,119.035 L428.85,122.59 L425.07,122.59 L425.07,91.54 L429.03,91.54 L429.03,103.69 L429.12,103.69 C429.720003,102.639995 430.679993,101.732504 432,100.9675 C433.320007,100.202496 434.96999,99.82 436.95,99.82 C438.690009,99.82 440.257493,100.134997 441.6525,100.765 C443.047507,101.395003 444.217495,102.249995 445.1625,103.33 C446.107505,104.410005 446.834997,105.647493 447.345,107.0425 C447.855003,108.437507 448.11,109.899992 448.11,111.43 C448.11,112.960008 447.862502,114.429993 447.3675,115.84 C446.872498,117.250007 446.145005,118.494995 445.185,119.575 C444.224995,120.655005 443.055007,121.517497 441.675,122.1625 C440.294993,122.807503 438.705009,123.13 436.905,123.13 Z M436.5,119.53 C437.550005,119.53 438.539995,119.335002 439.47,118.945 C440.400005,118.554998 441.202497,118.007504 441.8775,117.3025 C442.552503,116.597496 443.084998,115.750005 443.475,114.76 C443.865002,113.769995 444.06,112.690006 444.06,111.52 C444.06,110.349994 443.865002,109.270005 443.475,108.28 C443.084998,107.289995 442.552503,106.442504 441.8775,105.7375 C441.202497,105.032496 440.400005,104.485002 439.47,104.095 C438.539995,103.704998 437.550005,103.51 436.5,103.51 C435.449995,103.51 434.475005,103.704998 433.575,104.095 C432.674996,104.485002 431.887503,105.032496 431.2125,105.7375 C430.537497,106.442504 430.005002,107.282495 429.615,108.2575 C429.224998,109.232505 429.03,110.319994 429.03,111.52 C429.03,112.720006 429.224998,113.807495 429.615,114.7825 C430.005002,115.757505 430.537497,116.597496 431.2125,117.3025 C431.887503,118.007504 432.674996,118.554998 433.575,118.945 C434.475005,119.335002 435.449995,119.53 436.5,119.53 Z M454.95,97.21 C454.169996,97.21 453.555002,96.9700024 453.105,96.49 C452.654998,96.0099976 452.43,95.4400033 452.43,94.78 C452.43,94.1199967 452.654998,93.5425025 453.105,93.0475 C453.555002,92.5524975 454.169996,92.305 454.95,92.305 C455.730004,92.305 456.344998,92.5524975 456.795,93.0475 C457.245002,93.5425025 457.47,94.1199967 457.47,94.78 C457.47,95.4400033 457.245002,96.0099976 456.795,96.49 C456.344998,96.9700024 455.730004,97.21 454.95,97.21 Z M452.97,100.36 L456.93,100.36 L456.93,122.59 L452.97,122.59 L452.97,100.36 Z M460.755,130.555 C459.584994,130.555 458.535005,130.345002 457.605,129.925 C456.674995,129.504998 455.985002,129.010003 455.535,128.44 L458.19,125.83 C458.430001,126.130001 458.767498,126.377499 459.2025,126.5725 C459.637502,126.767501 460.109997,126.865 460.62,126.865 C461.490004,126.865 462.202497,126.610003 462.7575,126.1 C463.312503,125.589997 463.59,124.810005 463.59,123.76 L463.59,100.36 L467.55,100.36 L467.55,123.67 C467.55,124.630005 467.422501,125.529996 467.1675,126.37 C466.912499,127.210004 466.507503,127.937497 465.9525,128.5525 C465.397497,129.167503 464.692504,129.654998 463.8375,130.015 C462.982496,130.375002 461.955006,130.555 460.755,130.555 Z M465.57,97.21 C464.789996,97.21 464.175002,96.9700024 463.725,96.49 C463.274998,96.0099976 463.05,95.4400033 463.05,94.78 C463.05,94.1199967 463.274998,93.5425025 463.725,93.0475 C464.175002,92.5524975 464.789996,92.305 465.57,92.305 C466.350004,92.305 466.964998,92.5524975 467.415,93.0475 C467.865002,93.5425025 468.09,94.1199967 468.09,94.78 C468.09,95.4400033 467.865002,96.0099976 467.415,96.49 C466.964998,96.9700024 466.350004,97.21 465.57,97.21 Z M482.715,130.555 C481.544994,130.555 480.495005,130.345002 479.565,129.925 C478.634995,129.504998 477.945002,129.010003 477.495,128.44 L480.15,125.83 C480.390001,126.130001 480.727498,126.377499 481.1625,126.5725 C481.597502,126.767501 482.069997,126.865 482.58,126.865 C483.450004,126.865 484.162497,126.610003 484.7175,126.1 C485.272503,125.589997 485.55,124.810005 485.55,123.76 L485.55,100.36 L489.51,100.36 L489.51,123.67 C489.51,124.630005 489.382501,125.529996 489.1275,126.37 C488.872499,127.210004 488.467503,127.937497 487.9125,128.5525 C487.357497,129.167503 486.652504,129.654998 485.7975,130.015 C484.942496,130.375002 483.915006,130.555 482.715,130.555 Z M487.53,97.21 C486.749996,97.21 486.135002,96.9700024 485.685,96.49 C485.234998,96.0099976 485.01,95.4400033 485.01,94.78 C485.01,94.1199967 485.234998,93.5425025 485.685,93.0475 C486.135002,92.5524975 486.749996,92.305 487.53,92.305 C488.310004,92.305 488.924998,92.5524975 489.375,93.0475 C489.825002,93.5425025 490.05,94.1199967 490.05,94.78 C490.05,95.4400033 489.825002,96.0099976 489.375,96.49 C488.924998,96.9700024 488.310004,97.21 487.53,97.21 Z M505.485,123.13 C503.834992,123.13 502.327507,122.845003 500.9625,122.275 C499.597493,121.704997 498.427505,120.910005 497.4525,119.89 C496.477495,118.869995 495.720003,117.647507 495.18,116.2225 C494.639997,114.797493 494.37,113.215009 494.37,111.475 C494.37,109.764991 494.632497,108.190007 495.1575,106.75 C495.682503,105.309993 496.432495,104.080005 497.4075,103.06 C498.382505,102.039995 499.537493,101.245003 500.8725,100.675 C502.207507,100.104997 503.684992,99.82 505.305,99.82 C506.925008,99.82 508.417493,100.097497 509.7825,100.6525 C511.147507,101.207503 512.309995,101.987495 513.27,102.9925 C514.230005,103.997505 514.979997,105.212493 515.52,106.6375 C516.060003,108.062507 516.33,109.629991 516.33,111.34 C516.33,111.610001 516.3225,111.872499 516.3075,112.1275 C516.2925,112.382501 516.27,112.614999 516.24,112.825 L498.42,112.825 C498.48,113.785005 498.704998,114.677496 499.095,115.5025 C499.485002,116.327504 500.002497,117.032497 500.6475,117.6175 C501.292503,118.202503 502.034996,118.659998 502.875,118.99 C503.715004,119.320002 504.599995,119.485 505.53,119.485 C507.150008,119.485 508.522494,119.200003 509.6475,118.63 C510.772506,118.059997 511.709996,117.355004 512.46,116.515 L514.98,118.99 C512.90999,121.750014 509.745021,123.13 505.485,123.13 Z M505.305,103.33 C504.284995,103.33 503.370004,103.494998 502.56,103.825 C501.749996,104.155002 501.060003,104.604997 500.49,105.175 C499.919997,105.745003 499.462502,106.389996 499.1175,107.11 C498.772498,107.830004 498.57,108.594996 498.51,109.405 L512.19,109.405 C512.1,108.594996 511.882502,107.830004 511.5375,107.11 C511.192498,106.389996 510.727503,105.745003 510.1425,105.175 C509.557497,104.604997 508.852504,104.155002 508.0275,103.825 C507.202496,103.494998 506.295005,103.33 505.305,103.33 Z M544.365,123.13 C542.474991,123.13 540.825007,122.732504 539.415,121.9375 C538.004993,121.142496 537.000003,120.175006 536.4,119.035 L536.31,119.035 L536.31,122.59 L532.53,122.59 L532.53,91.54 L536.49,91.54 L536.49,103.69 L536.58,103.69 C537.180003,102.639995 538.139993,101.732504 539.46,100.9675 C540.780007,100.202496 542.42999,99.82 544.41,99.82 C546.150009,99.82 547.717493,100.134997 549.1125,100.765 C550.507507,101.395003 551.677495,102.249995 552.6225,103.33 C553.567505,104.410005 554.294997,105.647493 554.805,107.0425 C555.315003,108.437507 555.57,109.899992 555.57,111.43 C555.57,112.960008 555.322502,114.429993 554.8275,115.84 C554.332498,117.250007 553.605005,118.494995 552.645,119.575 C551.684995,120.655005 550.515007,121.517497 549.135,122.1625 C547.754993,122.807503 546.165009,123.13 544.365,123.13 Z M543.96,119.53 C545.010005,119.53 545.999995,119.335002 546.93,118.945 C547.860005,118.554998 548.662497,118.007504 549.3375,117.3025 C550.012503,116.597496 550.544998,115.750005 550.935,114.76 C551.325002,113.769995 551.52,112.690006 551.52,111.52 C551.52,110.349994 551.325002,109.270005 550.935,108.28 C550.544998,107.289995 550.012503,106.442504 549.3375,105.7375 C548.662497,105.032496 547.860005,104.485002 546.93,104.095 C545.999995,103.704998 545.010005,103.51 543.96,103.51 C542.909995,103.51 541.935005,103.704998 541.035,104.095 C540.134996,104.485002 539.347503,105.032496 538.6725,105.7375 C537.997497,106.442504 537.465002,107.282495 537.075,108.2575 C536.684998,109.232505 536.49,110.319994 536.49,111.52 C536.49,112.720006 536.684998,113.807495 537.075,114.7825 C537.465002,115.757505 537.997497,116.597496 538.6725,117.3025 C539.347503,118.007504 540.134996,118.554998 541.035,118.945 C541.935005,119.335002 542.909995,119.53 543.96,119.53 Z M569.745,123.13 C568.094992,123.13 566.587507,122.845003 565.2225,122.275 C563.857493,121.704997 562.687505,120.910005 561.7125,119.89 C560.737495,118.869995 559.980003,117.647507 559.44,116.2225 C558.899997,114.797493 558.63,113.215009 558.63,111.475 C558.63,109.764991 558.892497,108.190007 559.4175,106.75 C559.942503,105.309993 560.692495,104.080005 561.6675,103.06 C562.642505,102.039995 563.797493,101.245003 565.1325,100.675 C566.467507,100.104997 567.944992,99.82 569.565,99.82 C571.185008,99.82 572.677493,100.097497 574.0425,100.6525 C575.407507,101.207503 576.569995,101.987495 577.53,102.9925 C578.490005,103.997505 579.239997,105.212493 579.78,106.6375 C580.320003,108.062507 580.59,109.629991 580.59,111.34 C580.59,111.610001 580.5825,111.872499 580.5675,112.1275 C580.5525,112.382501 580.53,112.614999 580.5,112.825 L562.68,112.825 C562.74,113.785005 562.964998,114.677496 563.355,115.5025 C563.745002,116.327504 564.262497,117.032497 564.9075,117.6175 C565.552503,118.202503 566.294996,118.659998 567.135,118.99 C567.975004,119.320002 568.859995,119.485 569.79,119.485 C571.410008,119.485 572.782494,119.200003 573.9075,118.63 C575.032506,118.059997 575.969996,117.355004 576.72,116.515 L579.24,118.99 C577.16999,121.750014 574.005021,123.13 569.745,123.13 Z M569.565,103.33 C568.544995,103.33 567.630004,103.494998 566.82,103.825 C566.009996,104.155002 565.320003,104.604997 564.75,105.175 C564.179997,105.745003 563.722502,106.389996 563.3775,107.11 C563.032498,107.830004 562.83,108.594996 562.77,109.405 L576.45,109.405 C576.36,108.594996 576.142502,107.830004 575.7975,107.11 C575.452498,106.389996 574.987503,105.745003 574.4025,105.175 C573.817497,104.604997 573.112504,104.155002 572.2875,103.825 C571.462496,103.494998 570.555005,103.33 569.565,103.33 Z M585.45,100.36 L589.23,100.36 L589.23,103.15 L589.32,103.15 C589.860003,102.189995 590.714994,101.395003 591.885,100.765 C593.055006,100.134997 594.45,99.82 596.07,99.82 C598.890014,99.82 601.087492,100.629992 602.6625,102.25 C604.237508,103.870008 605.025,106.179985 605.025,109.18 L605.025,122.59 L601.065,122.59 L601.065,109.99 C601.065,107.859989 600.577505,106.202506 599.6025,105.0175 C598.627495,103.832494 597.195009,103.24 595.305,103.24 C593.474991,103.24 592.035005,103.832494 590.985,105.0175 C589.934995,106.202506 589.41,107.859989 589.41,109.99 L589.41,122.59 L585.45,122.59 L585.45,100.36 Z M618.48,123.13 C616.289989,123.13 614.692505,122.500006 613.6875,121.24 C612.682495,119.979994 612.18,118.210011 612.18,115.93 L612.18,103.87 L608.805,103.87 L608.805,100.36 L612.18,100.36 L612.18,94.33 L616.14,94.33 L616.14,100.36 L623.475,100.36 L623.475,103.87 L616.14,103.87 L616.14,115.66 C616.14,117.070007 616.417497,118.044997 616.9725,118.585 C617.527503,119.125003 618.269995,119.395 619.2,119.395 C619.920004,119.395 620.564997,119.267501 621.135,119.0125 C621.705003,118.757499 622.169998,118.420002 622.53,118 L623.88,121.33 C623.399998,121.840003 622.695005,122.267498 621.765,122.6125 C620.834995,122.957502 619.740006,123.13 618.48,123.13 Z M12.375,191.555 C10.3349898,191.555 8.55750757,191.217503 7.0425,190.5425 C5.52749242,189.867497 4.3200045,189.035005 3.42,188.045 L6.075,185.39 C6.76500345,186.110004 7.63499475,186.702498 8.685,187.1675 C9.73500525,187.632502 10.9049936,187.865 12.195,187.865 C14.2350102,187.865 15.8399941,187.355005 17.01,186.335 C18.1800058,185.314995 18.765,183.680011 18.765,181.43 L18.765,179.045 L18.675,179.045 C18.1049971,180.005005 17.2050061,180.844996 15.975,181.565 C14.7449938,182.285004 13.2150091,182.645 11.385,182.645 C9.7649919,182.645 8.31000645,182.345003 7.02,181.745 C5.72999355,181.144997 4.62750457,180.342505 3.7125,179.3375 C2.79749543,178.332495 2.1000024,177.177507 1.62,175.8725 C1.1399976,174.567493 0.9,173.195007 0.9,171.755 C0.9,170.314993 1.13249768,168.935007 1.5975,167.615 C2.06250233,166.294993 2.7449955,165.132505 3.645,164.1275 C4.5450045,163.122495 5.63999355,162.320003 6.93,161.72 C8.22000645,161.119997 9.68999175,160.82 11.34,160.82 C13.140009,160.82 14.6999934,161.187496 16.02,161.9225 C17.3400066,162.657504 18.2849971,163.564995 18.855,164.645 L18.945,164.645 L18.945,161.36 L22.725,161.36 L22.725,181.835 C22.725,183.245007 22.5000023,184.542494 22.05,185.7275 C21.5999977,186.912506 20.9400043,187.932496 20.07,188.7875 C19.1999956,189.642504 18.1200064,190.317498 16.83,190.8125 C15.5399936,191.307502 14.0550084,191.555 12.375,191.555 Z M11.79,178.955 C12.7200047,178.955 13.6124957,178.790002 14.4675,178.46 C15.3225043,178.129998 16.0649969,177.650003 16.695,177.02 C17.3250032,176.389997 17.8274981,175.632504 18.2025,174.7475 C18.5775019,173.862496 18.765,172.865006 18.765,171.755 C18.765,170.644994 18.5775019,169.640004 18.2025,168.74 C17.8274981,167.839995 17.3250032,167.075003 16.695,166.445 C16.0649969,165.814997 15.3225043,165.335002 14.4675,165.005 C13.6124957,164.674998 12.7200047,164.51 11.79,164.51 C10.8299952,164.51 9.9300042,164.682498 9.09,165.0275 C8.2499958,165.372502 7.52250308,165.859997 6.9075,166.49 C6.29249693,167.120003 5.81250173,167.884995 5.4675,168.785 C5.12249828,169.685004 4.95,170.674995 4.95,171.755 C4.95,172.835005 5.12249828,173.817496 5.4675,174.7025 C5.81250173,175.587504 6.29249693,176.344997 6.9075,176.975 C7.52250308,177.605003 8.2499958,178.092498 9.09,178.4375 C9.9300042,178.782502 10.8299952,178.955 11.79,178.955 Z M38.7,184.13 C37.0499918,184.13 35.5425068,183.845003 34.1775,183.275 C32.8124932,182.704997 31.6425049,181.910005 30.6675,180.89 C29.6924951,179.869995 28.9350027,178.647507 28.395,177.2225 C27.8549973,175.797493 27.585,174.215009 27.585,172.475 C27.585,170.764991 27.8474974,169.190007 28.3725,167.75 C28.8975026,166.309993 29.6474951,165.080005 30.6225,164.06 C31.5975049,163.039995 32.7524933,162.245003 34.0875,161.675 C35.4225067,161.104997 36.8999919,160.82 38.52,160.82 C40.1400081,160.82 41.6324932,161.097497 42.9975,161.6525 C44.3625068,162.207503 45.5249952,162.987495 46.485,163.9925 C47.4450048,164.997505 48.1949973,166.212493 48.735,167.6375 C49.2750027,169.062507 49.545,170.629991 49.545,172.34 C49.545,172.610001 49.5375001,172.872499 49.5225,173.1275 C49.5074999,173.382501 49.4850002,173.614999 49.455,173.825 L31.635,173.825 C31.6950003,174.785005 31.9199981,175.677496 32.31,176.5025 C32.700002,177.327504 33.2174968,178.032497 33.8625,178.6175 C34.5075032,179.202503 35.2499958,179.659998 36.09,179.99 C36.9300042,180.320002 37.8149954,180.485 38.745,180.485 C40.3650081,180.485 41.7374944,180.200003 42.8625,179.63 C43.9875056,179.059997 44.9249963,178.355004 45.675,177.515 L48.195,179.99 C46.1249897,182.750014 42.9600213,184.13 38.7,184.13 Z M38.52,164.33 C37.4999949,164.33 36.5850041,164.494998 35.775,164.825 C34.964996,165.155002 34.2750029,165.604997 33.705,166.175 C33.1349972,166.745003 32.6775017,167.389996 32.3325,168.11 C31.9874983,168.830004 31.7850003,169.594996 31.725,170.405 L45.405,170.405 C45.3149996,169.594996 45.0975017,168.830004 44.7525,168.11 C44.4074983,167.389996 43.9425029,166.745003 43.3575,166.175 C42.7724971,165.604997 42.0675041,165.155002 41.2425,164.825 C40.4174959,164.494998 39.510005,164.33 38.52,164.33 Z M54.405,152.54 L58.365,152.54 L58.365,163.97 L58.455,163.97 C59.0250029,163.069995 59.8649945,162.320003 60.975,161.72 C62.0850056,161.119997 63.4349921,160.82 65.025,160.82 C67.8450141,160.82 70.0424921,161.629992 71.6175,163.25 C73.1925079,164.870008 73.98,167.179985 73.98,170.18 L73.98,183.59 L70.02,183.59 L70.02,170.99 C70.02,168.859989 69.5325049,167.202506 68.5575,166.0175 C67.5824951,164.832494 66.1500094,164.24 64.26,164.24 C62.4299909,164.24 60.9900053,164.832494 59.94,166.0175 C58.8899948,167.202506 58.365,168.859989 58.365,170.99 L58.365,183.59 L54.405,183.59 L54.405,152.54 Z M89.685,184.13 C87.7349902,184.13 86.0400072,183.777504 84.6,183.0725 C83.1599928,182.367496 81.9675047,181.460006 81.0225,180.35 C80.0774953,179.239994 79.3725023,177.987507 78.9075,176.5925 C78.4424977,175.197493 78.21,173.825007 78.21,172.475 C78.21,171.124993 78.4424977,169.752507 78.9075,168.3575 C79.3725023,166.962493 80.0774953,165.710006 81.0225,164.6 C81.9675047,163.489994 83.1599928,162.582504 84.6,161.8775 C86.0400072,161.172496 87.7349902,160.82 89.685,160.82 C91.6650099,160.82 93.3749928,161.172496 94.815,161.8775 C96.2550072,162.582504 97.4474953,163.489994 98.3925,164.6 C99.3375047,165.710006 100.042498,166.962493 100.5075,168.3575 C100.972502,169.752507 101.205,171.124993 101.205,172.475 C101.205,173.825007 100.972502,175.197493 100.5075,176.5925 C100.042498,177.987507 99.3375047,179.239994 98.3925,180.35 C97.4474953,181.460006 96.2550072,182.367496 94.815,183.0725 C93.3749928,183.777504 91.6650099,184.13 89.685,184.13 Z M89.685,180.53 C90.7650054,180.53 91.7624954,180.327502 92.6775,179.9225 C93.5925046,179.517498 94.3799967,178.955004 95.04,178.235 C95.7000033,177.514996 96.2174981,176.667505 96.5925,175.6925 C96.9675019,174.717495 97.155,173.645006 97.155,172.475 C97.155,171.304994 96.9675019,170.225005 96.5925,169.235 C96.2174981,168.244995 95.7000033,167.390004 95.04,166.67 C94.3799967,165.949996 93.5925046,165.395002 92.6775,165.005 C91.7624954,164.614998 90.7650054,164.42 89.685,164.42 C88.6349948,164.42 87.6600045,164.614998 86.76,165.005 C85.8599955,165.395002 85.0725034,165.949996 84.3975,166.67 C83.7224966,167.390004 83.1975019,168.244995 82.8225,169.235 C82.4474981,170.225005 82.26,171.304994 82.26,172.475 C82.26,173.645006 82.4474981,174.717495 82.8225,175.6925 C83.1975019,176.667505 83.7224966,177.514996 84.3975,178.235 C85.0725034,178.955004 85.8599955,179.517498 86.76,179.9225 C87.6600045,180.327502 88.6349948,180.53 89.685,180.53 Z M106.065,152.54 L110.025,152.54 L110.025,183.59 L106.065,183.59 L106.065,152.54 Z M116.685,161.36 L120.465,161.36 L120.465,164.915 L120.555,164.915 C120.855002,164.344997 121.267497,163.812502 121.7925,163.3175 C122.317503,162.822498 122.924997,162.387502 123.615,162.0125 C124.305003,161.637498 125.062496,161.345001 125.8875,161.135 C126.712504,160.924999 127.604995,160.82 128.565,160.82 C130.365009,160.82 131.954993,161.142497 133.335,161.7875 C134.715007,162.432503 135.877495,163.287495 136.8225,164.3525 C137.767505,165.417505 138.487498,166.654993 138.9825,168.065 C139.477502,169.475007 139.725,170.944992 139.725,172.475 C139.725,174.005008 139.470003,175.474993 138.96,176.885 C138.449997,178.295007 137.715005,179.532495 136.755,180.5975 C135.794995,181.662505 134.617507,182.517497 133.2225,183.1625 C131.827493,183.807503 130.260009,184.13 128.52,184.13 C126.53999,184.13 124.897507,183.747504 123.5925,182.9825 C122.287493,182.217496 121.335003,181.310005 120.735,180.26 L120.645,180.26 L120.645,191.015 L116.685,191.015 L116.685,161.36 Z M128.115,180.485 C129.165005,180.485 130.154995,180.290002 131.085,179.9 C132.015005,179.509998 132.817497,178.962504 133.4925,178.2575 C134.167503,177.552496 134.699998,176.705005 135.09,175.715 C135.480002,174.724995 135.675,173.645006 135.675,172.475 C135.675,171.304994 135.480002,170.225005 135.09,169.235 C134.699998,168.244995 134.167503,167.397504 133.4925,166.6925 C132.817497,165.987496 132.015005,165.440002 131.085,165.05 C130.154995,164.659998 129.165005,164.465 128.115,164.465 C127.064995,164.465 126.090005,164.659998 125.19,165.05 C124.289996,165.440002 123.502503,165.979997 122.8275,166.67 C122.152497,167.360003 121.620002,168.199995 121.23,169.19 C120.839998,170.180005 120.645,171.274994 120.645,172.475 C120.645,173.675006 120.839998,174.769995 121.23,175.76 C121.620002,176.750005 122.152497,177.589997 122.8275,178.28 C123.502503,178.970003 124.289996,179.509998 125.19,179.9 C126.090005,180.290002 127.064995,180.485 128.115,180.485 Z M153.9,184.13 C152.249992,184.13 150.742507,183.845003 149.3775,183.275 C148.012493,182.704997 146.842505,181.910005 145.8675,180.89 C144.892495,179.869995 144.135003,178.647507 143.595,177.2225 C143.054997,175.797493 142.785,174.215009 142.785,172.475 C142.785,170.764991 143.047497,169.190007 143.5725,167.75 C144.097503,166.309993 144.847495,165.080005 145.8225,164.06 C146.797505,163.039995 147.952493,162.245003 149.2875,161.675 C150.622507,161.104997 152.099992,160.82 153.72,160.82 C155.340008,160.82 156.832493,161.097497 158.1975,161.6525 C159.562507,162.207503 160.724995,162.987495 161.685,163.9925 C162.645005,164.997505 163.394997,166.212493 163.935,167.6375 C164.475003,169.062507 164.745,170.629991 164.745,172.34 C164.745,172.610001 164.7375,172.872499 164.7225,173.1275 C164.7075,173.382501 164.685,173.614999 164.655,173.825 L146.835,173.825 C146.895,174.785005 147.119998,175.677496 147.51,176.5025 C147.900002,177.327504 148.417497,178.032497 149.0625,178.6175 C149.707503,179.202503 150.449996,179.659998 151.29,179.99 C152.130004,180.320002 153.014995,180.485 153.945,180.485 C155.565008,180.485 156.937494,180.200003 158.0625,179.63 C159.187506,179.059997 160.124996,178.355004 160.875,177.515 L163.395,179.99 C161.32499,182.750014 158.160021,184.13 153.9,184.13 Z M153.72,164.33 C152.699995,164.33 151.785004,164.494998 150.975,164.825 C150.164996,165.155002 149.475003,165.604997 148.905,166.175 C148.334997,166.745003 147.877502,167.389996 147.5325,168.11 C147.187498,168.830004 146.985,169.594996 146.925,170.405 L160.605,170.405 C160.515,169.594996 160.297502,168.830004 159.9525,168.11 C159.607498,167.389996 159.142503,166.745003 158.5575,166.175 C157.972497,165.604997 157.267504,165.155002 156.4425,164.825 C155.617496,164.494998 154.710005,164.33 153.72,164.33 Z M169.605,161.36 L173.385,161.36 L173.385,164.15 L173.475,164.15 C174.015003,163.189995 174.869994,162.395003 176.04,161.765 C177.210006,161.134997 178.605,160.82 180.225,160.82 C183.045014,160.82 185.242492,161.629992 186.8175,163.25 C188.392508,164.870008 189.18,167.179985 189.18,170.18 L189.18,183.59 L185.22,183.59 L185.22,170.99 C185.22,168.859989 184.732505,167.202506 183.7575,166.0175 C182.782495,164.832494 181.350009,164.24 179.46,164.24 C177.629991,164.24 176.190005,164.832494 175.14,166.0175 C174.089995,167.202506 173.565,168.859989 173.565,170.99 L173.565,183.59 L169.605,183.59 L169.605,161.36 Z M215.955,184.13 C214.154991,184.13 212.565007,183.807503 211.185,183.1625 C209.804993,182.517497 208.635005,181.655005 207.675,180.575 C206.714995,179.494995 205.987502,178.250007 205.4925,176.84 C204.997498,175.429993 204.75,173.960008 204.75,172.43 C204.75,170.899992 205.004997,169.437507 205.515,168.0425 C206.025003,166.647493 206.752495,165.410005 207.6975,164.33 C208.642505,163.249995 209.804993,162.395003 211.185,161.765 C212.565007,161.134997 214.139991,160.82 215.91,160.82 C217.89001,160.82 219.539993,161.202496 220.86,161.9675 C222.180007,162.732504 223.139997,163.639995 223.74,164.69 L223.83,164.69 L223.83,152.54 L227.79,152.54 L227.79,183.59 L224.01,183.59 L224.01,180.035 L223.92,180.035 C223.319997,181.175006 222.315007,182.142496 220.905,182.9375 C219.494993,183.732504 217.845009,184.13 215.955,184.13 Z M216.36,180.53 C217.380005,180.53 218.347495,180.335002 219.2625,179.945 C220.177505,179.554998 220.972497,179.007504 221.6475,178.3025 C222.322503,177.597496 222.854998,176.757505 223.245,175.7825 C223.635002,174.807495 223.83,173.720006 223.83,172.52 C223.83,171.319994 223.635002,170.232505 223.245,169.2575 C222.854998,168.282495 222.322503,167.442504 221.6475,166.7375 C220.972497,166.032496 220.177505,165.485002 219.2625,165.095 C218.347495,164.704998 217.380005,164.51 216.36,164.51 C215.309995,164.51 214.320005,164.704998 213.39,165.095 C212.459995,165.485002 211.657503,166.032496 210.9825,166.7375 C210.307497,167.442504 209.775002,168.289995 209.385,169.28 C208.994998,170.270005 208.8,171.349994 208.8,172.52 C208.8,173.690006 208.994998,174.769995 209.385,175.76 C209.775002,176.750005 210.307497,177.597496 210.9825,178.3025 C211.657503,179.007504 212.459995,179.554998 213.39,179.945 C214.320005,180.335002 215.309995,180.53 216.36,180.53 Z M244.125,184.13 C242.17499,184.13 240.480007,183.777504 239.04,183.0725 C237.599993,182.367496 236.407505,181.460006 235.4625,180.35 C234.517495,179.239994 233.812502,177.987507 233.3475,176.5925 C232.882498,175.197493 232.65,173.825007 232.65,172.475 C232.65,171.124993 232.882498,169.752507 233.3475,168.3575 C233.812502,166.962493 234.517495,165.710006 235.4625,164.6 C236.407505,163.489994 237.599993,162.582504 239.04,161.8775 C240.480007,161.172496 242.17499,160.82 244.125,160.82 C246.10501,160.82 247.814993,161.172496 249.255,161.8775 C250.695007,162.582504 251.887495,163.489994 252.8325,164.6 C253.777505,165.710006 254.482498,166.962493 254.9475,168.3575 C255.412502,169.752507 255.645,171.124993 255.645,172.475 C255.645,173.825007 255.412502,175.197493 254.9475,176.5925 C254.482498,177.987507 253.777505,179.239994 252.8325,180.35 C251.887495,181.460006 250.695007,182.367496 249.255,183.0725 C247.814993,183.777504 246.10501,184.13 244.125,184.13 Z M244.125,180.53 C245.205005,180.53 246.202495,180.327502 247.1175,179.9225 C248.032505,179.517498 248.819997,178.955004 249.48,178.235 C250.140003,177.514996 250.657498,176.667505 251.0325,175.6925 C251.407502,174.717495 251.595,173.645006 251.595,172.475 C251.595,171.304994 251.407502,170.225005 251.0325,169.235 C250.657498,168.244995 250.140003,167.390004 249.48,166.67 C248.819997,165.949996 248.032505,165.395002 247.1175,165.005 C246.202495,164.614998 245.205005,164.42 244.125,164.42 C243.074995,164.42 242.100005,164.614998 241.2,165.005 C240.299996,165.395002 239.512503,165.949996 238.8375,166.67 C238.162497,167.390004 237.637502,168.244995 237.2625,169.235 C236.887498,170.225005 236.7,171.304994 236.7,172.475 C236.7,173.645006 236.887498,174.717495 237.2625,175.6925 C237.637502,176.667505 238.162497,177.514996 238.8375,178.235 C239.512503,178.955004 240.299996,179.517498 241.2,179.9225 C242.100005,180.327502 243.074995,180.53 244.125,180.53 Z M270.18,184.13 C268.22999,184.13 266.535007,183.777504 265.095,183.0725 C263.654993,182.367496 262.462505,181.460006 261.5175,180.35 C260.572495,179.239994 259.867502,177.987507 259.4025,176.5925 C258.937498,175.197493 258.705,173.825007 258.705,172.475 C258.705,171.124993 258.937498,169.752507 259.4025,168.3575 C259.867502,166.962493 260.572495,165.710006 261.5175,164.6 C262.462505,163.489994 263.654993,162.582504 265.095,161.8775 C266.535007,161.172496 268.22999,160.82 270.18,160.82 C272.16001,160.82 273.869993,161.172496 275.31,161.8775 C276.750007,162.582504 277.942495,163.489994 278.8875,164.6 C279.832505,165.710006 280.537498,166.962493 281.0025,168.3575 C281.467502,169.752507 281.7,171.124993 281.7,172.475 C281.7,173.825007 281.467502,175.197493 281.0025,176.5925 C280.537498,177.987507 279.832505,179.239994 278.8875,180.35 C277.942495,181.460006 276.750007,182.367496 275.31,183.0725 C273.869993,183.777504 272.16001,184.13 270.18,184.13 Z M270.18,180.53 C271.260005,180.53 272.257495,180.327502 273.1725,179.9225 C274.087505,179.517498 274.874997,178.955004 275.535,178.235 C276.195003,177.514996 276.712498,176.667505 277.0875,175.6925 C277.462502,174.717495 277.65,173.645006 277.65,172.475 C277.65,171.304994 277.462502,170.225005 277.0875,169.235 C276.712498,168.244995 276.195003,167.390004 275.535,166.67 C274.874997,165.949996 274.087505,165.395002 273.1725,165.005 C272.257495,164.614998 271.260005,164.42 270.18,164.42 C269.129995,164.42 268.155005,164.614998 267.255,165.005 C266.354996,165.395002 265.567503,165.949996 264.8925,166.67 C264.217497,167.390004 263.692502,168.244995 263.3175,169.235 C262.942498,170.225005 262.755,171.304994 262.755,172.475 C262.755,173.645006 262.942498,174.717495 263.3175,175.6925 C263.692502,176.667505 264.217497,177.514996 264.8925,178.235 C265.567503,178.955004 266.354996,179.517498 267.255,179.9225 C268.155005,180.327502 269.129995,180.53 270.18,180.53 Z M286.56,161.36 L290.34,161.36 L290.34,164.78 L290.385,164.78 C290.805002,163.699995 291.569994,162.770004 292.68,161.99 C293.790006,161.209996 295.064993,160.82 296.505,160.82 C297.795006,160.82 298.949995,161.029998 299.97,161.45 L298.395,165.32 C297.614996,164.929998 296.715005,164.735 295.695,164.735 C294.104992,164.735 292.845005,165.304994 291.915,166.445 C290.984995,167.585006 290.52,169.054991 290.52,170.855 L290.52,183.59 L286.56,183.59 L286.56,161.36 Z M324.135,184.13 C322.334991,184.13 320.745007,183.807503 319.365,183.1625 C317.984993,182.517497 316.815005,181.655005 315.855,180.575 C314.894995,179.494995 314.167502,178.250007 313.6725,176.84 C313.177498,175.429993 312.93,173.960008 312.93,172.43 C312.93,170.899992 313.184997,169.437507 313.695,168.0425 C314.205003,166.647493 314.932495,165.410005 315.8775,164.33 C316.822505,163.249995 317.984993,162.395003 319.365,161.765 C320.745007,161.134997 322.319991,160.82 324.09,160.82 C326.07001,160.82 327.719993,161.202496 329.04,161.9675 C330.360007,162.732504 331.319997,163.639995 331.92,164.69 L332.01,164.69 L332.01,152.54 L335.97,152.54 L335.97,183.59 L332.19,183.59 L332.19,180.035 L332.1,180.035 C331.499997,181.175006 330.495007,182.142496 329.085,182.9375 C327.674993,183.732504 326.025009,184.13 324.135,184.13 Z M324.54,180.53 C325.560005,180.53 326.527495,180.335002 327.4425,179.945 C328.357505,179.554998 329.152497,179.007504 329.8275,178.3025 C330.502503,177.597496 331.034998,176.757505 331.425,175.7825 C331.815002,174.807495 332.01,173.720006 332.01,172.52 C332.01,171.319994 331.815002,170.232505 331.425,169.2575 C331.034998,168.282495 330.502503,167.442504 329.8275,166.7375 C329.152497,166.032496 328.357505,165.485002 327.4425,165.095 C326.527495,164.704998 325.560005,164.51 324.54,164.51 C323.489995,164.51 322.500005,164.704998 321.57,165.095 C320.639995,165.485002 319.837503,166.032496 319.1625,166.7375 C318.487497,167.442504 317.955002,168.289995 317.565,169.28 C317.174998,170.270005 316.98,171.349994 316.98,172.52 C316.98,173.690006 317.174998,174.769995 317.565,175.76 C317.955002,176.750005 318.487497,177.597496 319.1625,178.3025 C319.837503,179.007504 320.639995,179.554998 321.57,179.945 C322.500005,180.335002 323.489995,180.53 324.54,180.53 Z M351.945,184.13 C350.294992,184.13 348.787507,183.845003 347.4225,183.275 C346.057493,182.704997 344.887505,181.910005 343.9125,180.89 C342.937495,179.869995 342.180003,178.647507 341.64,177.2225 C341.099997,175.797493 340.83,174.215009 340.83,172.475 C340.83,170.764991 341.092497,169.190007 341.6175,167.75 C342.142503,166.309993 342.892495,165.080005 343.8675,164.06 C344.842505,163.039995 345.997493,162.245003 347.3325,161.675 C348.667507,161.104997 350.144992,160.82 351.765,160.82 C353.385008,160.82 354.877493,161.097497 356.2425,161.6525 C357.607507,162.207503 358.769995,162.987495 359.73,163.9925 C360.690005,164.997505 361.439997,166.212493 361.98,167.6375 C362.520003,169.062507 362.79,170.629991 362.79,172.34 C362.79,172.610001 362.7825,172.872499 362.7675,173.1275 C362.7525,173.382501 362.73,173.614999 362.7,173.825 L344.88,173.825 C344.94,174.785005 345.164998,175.677496 345.555,176.5025 C345.945002,177.327504 346.462497,178.032497 347.1075,178.6175 C347.752503,179.202503 348.494996,179.659998 349.335,179.99 C350.175004,180.320002 351.059995,180.485 351.99,180.485 C353.610008,180.485 354.982494,180.200003 356.1075,179.63 C357.232506,179.059997 358.169996,178.355004 358.92,177.515 L361.44,179.99 C359.36999,182.750014 356.205021,184.13 351.945,184.13 Z M351.765,164.33 C350.744995,164.33 349.830004,164.494998 349.02,164.825 C348.209996,165.155002 347.520003,165.604997 346.95,166.175 C346.379997,166.745003 345.922502,167.389996 345.5775,168.11 C345.232498,168.830004 345.03,169.594996 344.97,170.405 L358.65,170.405 C358.56,169.594996 358.342502,168.830004 357.9975,168.11 C357.652498,167.389996 357.187503,166.745003 356.6025,166.175 C356.017497,165.604997 355.312504,165.155002 354.4875,164.825 C353.662496,164.494998 352.755005,164.33 351.765,164.33 Z M380.97,158.21 C380.189996,158.21 379.575002,157.970002 379.125,157.49 C378.674998,157.009998 378.45,156.440003 378.45,155.78 C378.45,155.119997 378.674998,154.542502 379.125,154.0475 C379.575002,153.552498 380.189996,153.305 380.97,153.305 C381.750004,153.305 382.364998,153.552498 382.815,154.0475 C383.265002,154.542502 383.49,155.119997 383.49,155.78 C383.49,156.440003 383.265002,157.009998 382.815,157.49 C382.364998,157.970002 381.750004,158.21 380.97,158.21 Z M378.99,161.36 L382.95,161.36 L382.95,183.59 L378.99,183.59 L378.99,161.36 Z M389.61,161.36 L393.39,161.36 L393.39,164.15 L393.48,164.15 C394.020003,163.189995 394.874994,162.395003 396.045,161.765 C397.215006,161.134997 398.61,160.82 400.23,160.82 C403.050014,160.82 405.247492,161.629992 406.8225,163.25 C408.397508,164.870008 409.185,167.179985 409.185,170.18 L409.185,183.59 L405.225,183.59 L405.225,170.99 C405.225,168.859989 404.737505,167.202506 403.7625,166.0175 C402.787495,164.832494 401.355009,164.24 399.465,164.24 C397.634991,164.24 396.195005,164.832494 395.145,166.0175 C394.094995,167.202506 393.57,168.859989 393.57,170.99 L393.57,183.59 L389.61,183.59 L389.61,161.36 Z M422.64,184.13 C420.449989,184.13 418.852505,183.500006 417.8475,182.24 C416.842495,180.979994 416.34,179.210011 416.34,176.93 L416.34,164.87 L412.965,164.87 L412.965,161.36 L416.34,161.36 L416.34,155.33 L420.3,155.33 L420.3,161.36 L427.635,161.36 L427.635,164.87 L420.3,164.87 L420.3,176.66 C420.3,178.070007 420.577497,179.044997 421.1325,179.585 C421.687503,180.125003 422.429995,180.395 423.36,180.395 C424.080004,180.395 424.724997,180.267501 425.295,180.0125 C425.865003,179.757499 426.329998,179.420002 426.69,179 L428.04,182.33 C427.559998,182.840003 426.855005,183.267498 425.925,183.6125 C424.994995,183.957502 423.900006,184.13 422.64,184.13 Z M441.81,184.13 C440.159992,184.13 438.652507,183.845003 437.2875,183.275 C435.922493,182.704997 434.752505,181.910005 433.7775,180.89 C432.802495,179.869995 432.045003,178.647507 431.505,177.2225 C430.964997,175.797493 430.695,174.215009 430.695,172.475 C430.695,170.764991 430.957497,169.190007 431.4825,167.75 C432.007503,166.309993 432.757495,165.080005 433.7325,164.06 C434.707505,163.039995 435.862493,162.245003 437.1975,161.675 C438.532507,161.104997 440.009992,160.82 441.63,160.82 C443.250008,160.82 444.742493,161.097497 446.1075,161.6525 C447.472507,162.207503 448.634995,162.987495 449.595,163.9925 C450.555005,164.997505 451.304997,166.212493 451.845,167.6375 C452.385003,169.062507 452.655,170.629991 452.655,172.34 C452.655,172.610001 452.6475,172.872499 452.6325,173.1275 C452.6175,173.382501 452.595,173.614999 452.565,173.825 L434.745,173.825 C434.805,174.785005 435.029998,175.677496 435.42,176.5025 C435.810002,177.327504 436.327497,178.032497 436.9725,178.6175 C437.617503,179.202503 438.359996,179.659998 439.2,179.99 C440.040004,180.320002 440.924995,180.485 441.855,180.485 C443.475008,180.485 444.847494,180.200003 445.9725,179.63 C447.097506,179.059997 448.034996,178.355004 448.785,177.515 L451.305,179.99 C449.23499,182.750014 446.070021,184.13 441.81,184.13 Z M441.63,164.33 C440.609995,164.33 439.695004,164.494998 438.885,164.825 C438.074996,165.155002 437.385003,165.604997 436.815,166.175 C436.244997,166.745003 435.787502,167.389996 435.4425,168.11 C435.097498,168.830004 434.895,169.594996 434.835,170.405 L448.515,170.405 C448.425,169.594996 448.207502,168.830004 447.8625,168.11 C447.517498,167.389996 447.052503,166.745003 446.4675,166.175 C445.882497,165.604997 445.177504,165.155002 444.3525,164.825 C443.527496,164.494998 442.620005,164.33 441.63,164.33 Z M457.515,161.36 L461.295,161.36 L461.295,164.78 L461.34,164.78 C461.760002,163.699995 462.524994,162.770004 463.635,161.99 C464.745006,161.209996 466.019993,160.82 467.46,160.82 C468.750006,160.82 469.904995,161.029998 470.925,161.45 L469.35,165.32 C468.569996,164.929998 467.670005,164.735 466.65,164.735 C465.059992,164.735 463.800005,165.304994 462.87,166.445 C461.939995,167.585006 461.475,169.054991 461.475,170.855 L461.475,183.59 L457.515,183.59 L457.515,161.36 Z M475.47,164.87 L472.095,164.87 L472.095,161.36 L475.47,161.36 L475.47,159.2 C475.47,157.069989 476.099994,155.337507 477.36,154.0025 C478.620006,152.667493 480.419988,152 482.76,152 C483.990006,152 485.069995,152.209998 486,152.63 C486.930005,153.050002 487.694997,153.574997 488.295,154.205 L485.865,156.635 C485.534998,156.274998 485.085003,155.997501 484.515,155.8025 C483.944997,155.607499 483.405003,155.51 482.895,155.51 C481.904995,155.51 481.080003,155.839997 480.42,156.5 C479.759997,157.160003 479.43,158.089994 479.43,159.29 L479.43,161.36 L485.82,161.36 L485.82,164.87 L479.43,164.87 L479.43,183.59 L475.47,183.59 L475.47,164.87 Z M495.765,184.13 C494.624994,184.13 493.560005,183.980001 492.57,183.68 C491.579995,183.379998 490.725004,182.945003 490.005,182.375 C489.284996,181.804997 488.715002,181.100004 488.295,180.26 C487.874998,179.419996 487.665,178.475005 487.665,177.425 C487.665,176.404995 487.874998,175.482504 488.295,174.6575 C488.715002,173.832496 489.292496,173.127503 490.0275,172.5425 C490.762504,171.957497 491.647495,171.515001 492.6825,171.215 C493.717505,170.914998 494.864994,170.765 496.125,170.765 C497.595007,170.765 498.869995,170.929998 499.95,171.26 C501.030005,171.590002 501.914997,171.964998 502.605,172.385 L502.605,169.37 C502.605,167.809992 502.102505,166.602504 501.0975,165.7475 C500.092495,164.892496 498.780008,164.465 497.16,164.465 C495.839993,164.465 494.737504,164.682498 493.8525,165.1175 C492.967496,165.552502 492.270003,166.054997 491.76,166.625 L489.24,164.24 C490.050004,163.279995 491.137493,162.470003 492.5025,161.81 C493.867507,161.149997 495.494991,160.82 497.385,160.82 C500.325015,160.82 502.589992,161.539993 504.18,162.98 C505.770008,164.420007 506.565,166.414987 506.565,168.965 L506.565,183.59 L502.605,183.59 L502.605,181.07 L502.515,181.07 C501.914997,181.940004 501.097505,182.667497 500.0625,183.2525 C499.027495,183.837503 497.595009,184.13 495.765,184.13 Z M496.71,180.755 C497.550004,180.755 498.337496,180.627501 499.0725,180.3725 C499.807504,180.117499 500.429997,179.750002 500.94,179.27 C501.450003,178.789998 501.854998,178.227503 502.155,177.5825 C502.455001,176.937497 502.605,176.225004 502.605,175.445 L502.605,175.085 C501.944997,174.814999 501.120005,174.567501 500.13,174.3425 C499.139995,174.117499 498.045006,174.005 496.845,174.005 C495.404993,174.005 494.190005,174.282497 493.2,174.8375 C492.209995,175.392503 491.715,176.239994 491.715,177.38 C491.715,178.430005 492.157496,179.254997 493.0425,179.855 C493.927504,180.455003 495.149992,180.755 496.71,180.755 Z M522.135,184.13 C520.18499,184.13 518.497507,183.785003 517.0725,183.095 C515.647493,182.404997 514.470005,181.505006 513.54,180.395 C512.609995,179.284994 511.920002,178.032507 511.47,176.6375 C511.019998,175.242493 510.795,173.855007 510.795,172.475 C510.795,171.094993 511.019998,169.707507 511.47,168.3125 C511.920002,166.917493 512.609995,165.665006 513.54,164.555 C514.470005,163.444994 515.647493,162.545003 517.0725,161.855 C518.497507,161.164997 520.18499,160.82 522.135,160.82 C523.935009,160.82 525.509993,161.134997 526.86,161.765 C528.210007,162.395003 529.364995,163.234995 530.325,164.285 L527.67,166.895 C526.979997,166.114996 526.147505,165.530002 525.1725,165.14 C524.197495,164.749998 523.170005,164.555 522.09,164.555 C521.039995,164.555 520.080004,164.749998 519.21,165.14 C518.339996,165.530002 517.575003,166.077496 516.915,166.7825 C516.254997,167.487504 515.745002,168.319995 515.385,169.28 C515.024998,170.240005 514.845,171.304994 514.845,172.475 C514.845,173.615006 515.024998,174.672495 515.385,175.6475 C515.745002,176.622505 516.254997,177.462496 516.915,178.1675 C517.575003,178.872504 518.339996,179.427498 519.21,179.8325 C520.080004,180.237502 521.039995,180.44 522.09,180.44 C523.200006,180.44 524.257495,180.245002 525.2625,179.855 C526.267505,179.464998 527.114997,178.880004 527.805,178.1 L530.415,180.71 C529.454995,181.760005 528.292507,182.592497 526.9275,183.2075 C525.562493,183.822503 523.965009,184.13 522.135,184.13 Z M543.6,184.13 C541.949992,184.13 540.442507,183.845003 539.0775,183.275 C537.712493,182.704997 536.542505,181.910005 535.5675,180.89 C534.592495,179.869995 533.835003,178.647507 533.295,177.2225 C532.754997,175.797493 532.485,174.215009 532.485,172.475 C532.485,170.764991 532.747497,169.190007 533.2725,167.75 C533.797503,166.309993 534.547495,165.080005 535.5225,164.06 C536.497505,163.039995 537.652493,162.245003 538.9875,161.675 C540.322507,161.104997 541.799992,160.82 543.42,160.82 C545.040008,160.82 546.532493,161.097497 547.8975,161.6525 C549.262507,162.207503 550.424995,162.987495 551.385,163.9925 C552.345005,164.997505 553.094997,166.212493 553.635,167.6375 C554.175003,169.062507 554.445,170.629991 554.445,172.34 C554.445,172.610001 554.4375,172.872499 554.4225,173.1275 C554.4075,173.382501 554.385,173.614999 554.355,173.825 L536.535,173.825 C536.595,174.785005 536.819998,175.677496 537.21,176.5025 C537.600002,177.327504 538.117497,178.032497 538.7625,178.6175 C539.407503,179.202503 540.149996,179.659998 540.99,179.99 C541.830004,180.320002 542.714995,180.485 543.645,180.485 C545.265008,180.485 546.637494,180.200003 547.7625,179.63 C548.887506,179.059997 549.824996,178.355004 550.575,177.515 L553.095,179.99 C551.02499,182.750014 547.860021,184.13 543.6,184.13 Z M543.42,164.33 C542.399995,164.33 541.485004,164.494998 540.675,164.825 C539.864996,165.155002 539.175003,165.604997 538.605,166.175 C538.034997,166.745003 537.577502,167.389996 537.2325,168.11 C536.887498,168.830004 536.685,169.594996 536.625,170.405 L550.305,170.405 C550.215,169.594996 549.997502,168.830004 549.6525,168.11 C549.307498,167.389996 548.842503,166.745003 548.2575,166.175 C547.672497,165.604997 546.967504,165.155002 546.1425,164.825 C545.317496,164.494998 544.410005,164.33 543.42,164.33 Z M560.07,184.04 C559.199996,184.04 558.525002,183.777503 558.045,183.2525 C557.564998,182.727497 557.325,182.105004 557.325,181.385 C557.325,180.664996 557.564998,180.035003 558.045,179.495 C558.525002,178.954997 559.199996,178.685 560.07,178.685 C560.940004,178.685 561.614998,178.954997 562.095,179.495 C562.575002,180.035003 562.815,180.664996 562.815,181.385 C562.815,182.105004 562.575002,182.727497 562.095,183.2525 C561.614998,183.777503 560.940004,184.04 560.07,184.04 Z" id="Jehebtmaarliefstkeereenkeuzegemaaktwaarbijjebentgeholpendoordeinterface."></path>
        </g>
    </g>
</svg>