<?xml version="1.0" encoding="UTF-8"?>
<svg width="173px" height="40px" viewBox="0 0 173 40" version="1.1" xmlns="http://www.w3.org/2000/svg" xmlns:xlink="http://www.w3.org/1999/xlink">
    <!-- Generator: Sketch 54.1 (76490) - https://sketchapp.com -->
    <title>Versie B Copy</title>
    <desc>Created with Sketch.</desc>
    <g id="Page-1" stroke="none" stroke-width="1" fill="none" fill-rule="evenodd">
        <g id="Versie-B-Copy" transform="translate(0.299000, 0.000000)" fill-rule="nonzero">
            <path d="M0,11.7 L7.056,11.7 L13.482,30.6 L19.866,11.7 L26.754,11.7 L17.01,39 L9.786,39 L0,11.7 Z M37.128,39.504 C35.2519906,39.504 33.6280069,39.1750033 32.256,38.517 C30.8839931,37.8589967 29.7430046,37.0120052 28.833,35.976 C27.9229955,34.9399948 27.2510022,33.7710065 26.817,32.469 C26.3829978,31.1669935 26.166,29.8860063 26.166,28.626 C26.166,27.3659937 26.368998,26.0850065 26.775,24.783 C27.181002,23.4809935 27.8109957,22.3120052 28.665,21.276 C29.5190043,20.2399948 30.6179933,19.3930033 31.962,18.735 C33.3060067,18.0769967 34.9159906,17.748 36.792,17.748 C38.6680094,17.748 40.2709934,18.0769967 41.601,18.735 C42.9310066,19.3930033 44.0159958,20.2399948 44.856,21.276 C45.6960042,22.3120052 46.311998,23.4809935 46.704,24.783 C47.096002,26.0850065 47.292,27.3659937 47.292,28.626 C47.292,28.9340015 47.2640003,29.3049978 47.208,29.739 C47.1519997,30.1730022 47.0960003,30.5159987 47.04,30.768 L32.466,30.768 C32.6340008,31.3280028 32.8789984,31.8179979 33.201,32.238 C33.5230016,32.6580021 33.9079978,33.0009987 34.356,33.267 C34.8040022,33.5330013 35.2799975,33.7289994 35.784,33.855 C36.2880025,33.9810006 36.8059973,34.044 37.338,34.044 C38.2620046,34.044 39.1369959,33.8970015 39.963,33.603 C40.7890041,33.3089985 41.4259978,32.9100025 41.874,32.406 L45.654,36.06 C44.8699961,37.0400049 43.7360074,37.8589967 42.252,38.517 C40.7679926,39.1750033 39.0600097,39.504 37.128,39.504 Z M36.792,22.956 C35.7279947,22.956 34.7900041,23.2219973 33.978,23.754 C33.1659959,24.2860027 32.6340013,25.1819937 32.382,26.442 L41.16,26.442 C40.9079987,25.1819937 40.383004,24.2860027 39.585,23.754 C38.786996,23.2219973 37.8560053,22.956 36.792,22.956 Z M50.4,18.252 L56.238,18.252 L56.238,21.15 L56.28,21.15 C56.8400028,20.2539955 57.6659945,19.4630034 58.758,18.777 C59.8500055,18.0909966 61.193992,17.748 62.79,17.748 C63.8820055,17.748 64.9179951,17.9019985 65.898,18.21 L63.672,24.384 C62.9719965,23.991998 62.2160041,23.796 61.404,23.796 C60.7599968,23.796 60.1440029,23.9079989 59.556,24.132 C58.9679971,24.3560011 58.4570022,24.6779979 58.023,25.098 C57.5889978,25.5180021 57.2460013,26.028997 56.994,26.631 C56.7419987,27.233003 56.616,27.9119962 56.616,28.668 L56.616,39 L50.4,39 L50.4,18.252 Z M75.306,39.504 C74.297995,39.504 73.3250047,39.4200008 72.387,39.252 C71.4489953,39.0839992 70.581004,38.8460015 69.783,38.538 C68.984996,38.2299985 68.2710032,37.880002 67.641,37.488 C67.0109969,37.095998 66.4860021,36.6620024 66.066,36.186 L69.846,32.448 C70.0700011,32.6720011 70.377998,32.8959989 70.77,33.12 C71.162002,33.3440011 71.5959976,33.5399992 72.072,33.708 C72.5480024,33.8760008 73.0589973,34.0159994 73.605,34.128 C74.1510027,34.2400006 74.6899973,34.296 75.222,34.296 C76.1180045,34.296 76.8529971,34.1770012 77.427,33.939 C78.0010029,33.7009988 78.288,33.3020028 78.288,32.742 C78.288,32.1539971 77.8540043,31.7410012 76.986,31.503 C76.1179957,31.2649988 74.9140077,31.0060014 73.374,30.726 C72.5339958,30.5859993 71.7290039,30.3550016 70.959,30.033 C70.1889962,29.7109984 69.5100029,29.2980025 68.922,28.794 C68.3339971,28.2899975 67.8650018,27.6810036 67.515,26.967 C67.1649983,26.2529964 66.99,25.4060049 66.99,24.426 C66.99,23.3619947 67.2139978,22.4170041 67.662,21.591 C68.1100022,20.7649959 68.732996,20.0650029 69.531,19.491 C70.329004,18.9169971 71.2809945,18.4830015 72.387,18.189 C73.4930055,17.8949985 74.7039934,17.748 76.02,17.748 C78.0640102,17.748 79.8349925,18.0629968 81.333,18.693 C82.8310075,19.3230031 83.9719961,20.0719957 84.756,20.94 L80.934,24.72 C80.4579976,24.1879973 79.7860043,23.7470017 78.918,23.397 C78.0499957,23.0469983 77.1680045,22.872 76.272,22.872 C75.4599959,22.872 74.7670029,22.9839989 74.193,23.208 C73.6189971,23.4320011 73.332,23.8239972 73.332,24.384 C73.332,24.9720029 73.7659957,25.3779989 74.634,25.602 C75.5020043,25.8260011 76.7059923,26.0779986 78.246,26.358 C79.0860042,26.4980007 79.8909962,26.7219985 80.661,27.03 C81.4310039,27.3380015 82.1099971,27.7439975 82.698,28.248 C83.2860029,28.7520025 83.7549982,29.3679964 84.105,30.096 C84.4550018,30.8240036 84.63,31.6639952 84.63,32.616 C84.63,33.7080055 84.3990023,34.6809957 83.937,35.535 C83.4749977,36.3890043 82.8240042,37.1099971 81.984,37.698 C81.1439958,38.2860029 80.1570057,38.7339985 79.023,39.042 C77.8889943,39.3500015 76.6500067,39.504 75.306,39.504 Z M91.056,16.53 C89.8799941,16.53 88.9700032,16.1870034 88.326,15.501 C87.6819968,14.8149966 87.36,13.9960048 87.36,13.044 C87.36,12.0919952 87.6819968,11.2660035 88.326,10.566 C88.9700032,9.8659965 89.8799941,9.516 91.056,9.516 C92.2320059,9.516 93.1419968,9.8659965 93.786,10.566 C94.4300032,11.2660035 94.752,12.0919952 94.752,13.044 C94.752,13.9960048 94.4300032,14.8149966 93.786,15.501 C93.1419968,16.1870034 92.2320059,16.53 91.056,16.53 Z M87.948,18.252 L94.164,18.252 L94.164,39 L87.948,39 L87.948,18.252 Z M108.318,39.504 C106.441991,39.504 104.818007,39.1750033 103.446,38.517 C102.073993,37.8589967 100.933005,37.0120052 100.023,35.976 C99.1129955,34.9399948 98.4410022,33.7710065 98.007,32.469 C97.5729978,31.1669935 97.356,29.8860063 97.356,28.626 C97.356,27.3659937 97.558998,26.0850065 97.965,24.783 C98.371002,23.4809935 99.0009957,22.3120052 99.855,21.276 C100.709004,20.2399948 101.807993,19.3930033 103.152,18.735 C104.496007,18.0769967 106.105991,17.748 107.982,17.748 C109.858009,17.748 111.460993,18.0769967 112.791,18.735 C114.121007,19.3930033 115.205996,20.2399948 116.046,21.276 C116.886004,22.3120052 117.501998,23.4809935 117.894,24.783 C118.286002,26.0850065 118.482,27.3659937 118.482,28.626 C118.482,28.9340015 118.454,29.3049978 118.398,29.739 C118.342,30.1730022 118.286,30.5159987 118.23,30.768 L103.656,30.768 C103.824001,31.3280028 104.068998,31.8179979 104.391,32.238 C104.713002,32.6580021 105.097998,33.0009987 105.546,33.267 C105.994002,33.5330013 106.469997,33.7289994 106.974,33.855 C107.478003,33.9810006 107.995997,34.044 108.528,34.044 C109.452005,34.044 110.326996,33.8970015 111.153,33.603 C111.979004,33.3089985 112.615998,32.9100025 113.064,32.406 L116.844,36.06 C116.059996,37.0400049 114.926007,37.8589967 113.442,38.517 C111.957993,39.1750033 110.25001,39.504 108.318,39.504 Z M107.982,22.956 C106.917995,22.956 105.980004,23.2219973 105.168,23.754 C104.355996,24.2860027 103.824001,25.1819937 103.572,26.442 L112.35,26.442 C112.097999,25.1819937 111.573004,24.2860027 110.775,23.754 C109.976996,23.2219973 109.046005,22.956 107.982,22.956 Z" id="Versie" fill="#8B8B8B"></path>
            <path d="M145.53,0 L158.49,0 C161.930017,0 164.68999,0.9399906 166.77,2.82 C168.85001,4.7000094 169.89,7.2599838 169.89,10.5 C169.89,12.3800094 169.440005,13.9999932 168.54,15.36 C167.639996,16.7200068 166.430008,17.799996 164.91,18.6 C167.030011,19.3200036 168.709994,20.5099917 169.95,22.17 C171.190006,23.8300083 171.81,25.8399882 171.81,28.2 C171.81,29.800008 171.510003,31.2599934 170.91,32.58 C170.309997,33.9000066 169.480005,35.0399952 168.42,36 C167.359995,36.9600048 166.100007,37.6999974 164.64,38.22 C163.179993,38.7400026 161.610008,39 159.93,39 L145.53,39 L145.53,0 Z M157.95,16.74 C159.87001,16.74 161.379995,16.2100053 162.48,15.15 C163.580006,14.0899947 164.13,12.660009 164.13,10.86 C164.13,8.9799906 163.600005,7.540005 162.54,6.54 C161.479995,5.539995 159.99001,5.04 158.07,5.04 L151.17,5.04 L151.17,16.74 L157.95,16.74 Z M159.21,33.96 C161.25001,33.96 162.899994,33.4200054 164.16,32.34 C165.420006,31.2599946 166.05,29.7600096 166.05,27.84 C166.05,25.83999 165.440006,24.3100053 164.22,23.25 C162.999994,22.1899947 161.37001,21.66 159.33,21.66 L151.17,21.66 L151.17,33.96 L159.21,33.96 Z" id="B" fill="#FF5500"></path>
        </g>
    </g>
</svg>